<svg data-name="Layer 1" xmlns="http://www.w3.org/2000/svg" viewBox="0 0 2000 1000"><path d="M540.46 392.76c1.3-4.95 3.45-13.36 4.49-17.43a1.88 1.88 0 0 0-1.83-2.34h-52.4L400 539.05l26.07 40s43.31-3.62 64.58-5.25v29.66c-1.28 5-3.27 13.13-4.28 17.22a1.89 1.89 0 0 0 2 2.32l54.88-4.51a1.88 1.88 0 0 0 1.66-2.41c-1.12-3.72-3.36-11.25-4.64-16v-30.9l9.46-.86a1.89 1.89 0 0 0 1.71-1.68l3.85-37.11a1.9 1.9 0 0 0-2-2.08l-13 .86zm-49.68 63.13l-.07 74.94c-9 .77-23.64 1.22-35.39 2 0 .03 25.75-51.39 35.46-76.94zm211.87-83.16H587.14a1.89 1.89 0 0 0-1.84 2.32c1 4.15 3.13 12.88 4.43 17.74l-.13 203.89c-1.27 4.81-3.23 12.5-4.22 16.44a1.88 1.88 0 0 0 2 2.34l54.8-3.46a1.88 1.88 0 0 0 1.68-2.42c-1-3.45-3-10.23-4.29-16.07l.56-69.89 53.53-2.07 45.67-42.68-.13-73zM673 478.13l-33.82.52.09-55.75c9.8-.09 25.58-.18 35.38-.26l15.1 12.2v29c.5.44-16.17 14.95-16.75 14.29zm231.24-105.3H768.09a1.88 1.88 0 0 0-1.82 2.38c1.15 4.17 3.54 12.78 4.83 17.42l-.23 192.9c-1.28 4.61-4.48 13.18-6.12 17.5a1.88 1.88 0 0 0 1.83 2.54l63.58-2.12a1.89 1.89 0 0 0 1.63-2.71c-1.92-4-5.49-11.68-7.06-17.21l.08-66.07c6.76-.13 15.46-.25 22.22-.36 4.79 1.33 13.82 6 18.36 8.44a1.89 1.89 0 0 0 2.77-1.67V468.1a1.88 1.88 0 0 0-2.78-1.66c-4.58 2.51-13.7 7.34-18.51 8.81l-22.06.27.06-52.8c15.36-.08 34.19-.14 49.56-.19l27.46 8.87a1.87 1.87 0 0 0 2.46-1.79zm166.36 32.24c-11.81-10.36-36.84-32.25-36.84-32.25h-64.61l-38.54 33.79-.09 161.39 38.6 33.77h64.66s25-22.32 36.86-32.54zm-77 147.18c-2.81-1.22-12.37-10.56-12.37-10.56V434l12.41-10.65h14.73l12.36 10.65v107.6s-9.6 9.39-12.42 10.61zM1249 405.07c-11.82-10.36-36.85-32.25-36.85-32.25h-64.6L1109 406.61l-.07 161.39 38.59 35.51 63 1.64s26.69-25.7 38.5-35.92zm-77 147.18c-2.81-1.22-12.36-10.56-12.36-10.56V434l12.36-10.66h14.72l12.41 10.66v107.63s-9.61 9.39-12.43 10.61zm252.06-142.04a4049.63 4049.63 0 0 0-38.23-35.93l-1.43-1.28h-2l-96.27-.06h-2.58a1.89 1.89 0 0 0-1.84 2.31c1 4.16 3 12.91 4.34 17.64v194.9c-1.32 4.71-3.51 13.66-4.52 17.8a1.88 1.88 0 0 0 1.73 2.32l101.26 5.79s27.28-23.36 39.55-34.09l1.71-1.49-.21-166.38zm-68 151.13c-8.62-.5-20-1.19-20-1.19l-.23-137.62c12 .07 10.89.15 19.74.24l16.61 15.42.17 109.16zm156.43-118.03v-11.42l11.86-9.44 47.14 3.15 25.78 8.8a1.89 1.89 0 0 0 2.48-2.06l-7.54-51.34-93.3-7.94-38.35 36.52.06 48.73 14.94 26.65 62.28 45.94 12.36 17.55v12.23s-14.57 13.62-14.57 13.77c0-.15-46-3.45-46-3.3l-25.93-10.8a1.88 1.88 0 0 0-2.6 1.9l5.07 56.88 95.2 8.18 38.63-31.5v-64.72l-16.42-29.32-64.14-47z"/></svg>