<svg version="1.1" id="Layer_1" xmlns="http://www.w3.org/2000/svg" x="0" y="0" viewBox="0 0 600 600" xml:space="preserve"><style>.st0{fill:#5fb35f}</style><path class="st0" d="M281.8 160.5h-39.1v180.2h-35.6c-15.8 0-28.6-12.8-28.6-28.6 0-2.2.3-4.4.8-6.6l34.2-145h-40.2l-32.1 136c-8.6 36.4 14 72.9 50.4 81.4 5.1 1.2 10.3 1.8 15.5 1.8h35.6v70.8h39.1v-70.8h17.4v-39.1h-17.4V160.5zm152.9 0h-116v290.1h39.1V198.8h44.3l20.3 108c2.9 15.5-7.3 30.5-22.8 33.4-1.7.3-3.5.5-5.3.5h-17v39.1h17c37.4 0 67.7-30.3 67.7-67.7 0-4.2-.4-8.4-1.2-12.6l-26.1-139z"/><path class="st0" d="M300 0C134.6 0 0 134.6 0 300s134.6 300 300 300 300-134.6 300-300S465.4 0 300 0zm0 560.9c-143.9 0-260.9-117-260.9-260.9C39.4 156 156 39.4 300 39.1c143.9 0 260.9 117 260.9 260.9S443.9 560.9 300 560.9z"/></svg>