<svg version="1.1" id="Layer_1" xmlns="http://www.w3.org/2000/svg" x="0" y="0" viewBox="0 0 300 300" xml:space="preserve"><style>.st1{fill:#5fb35f}</style><circle cx="150" cy="150" r="92" fill="#f8f6ee"/><path class="st1" d="M230.5 200.4c6.9 0 12.4-5.6 12.4-12.4 0-6.9-5.6-12.4-12.4-12.4-6.9 0-12.4 5.6-12.4 12.4 0 6.8 5.5 12.4 12.4 12.4zm0-19.9c4.1 0 7.5 3.3 7.5 7.5s-3.3 7.5-7.5 7.5-7.5-3.3-7.5-7.5 3.4-7.5 7.5-7.5z"/><path class="st1" d="M230.5 201.5c-7.5 0-13.6-6.1-13.6-13.6s6.1-13.6 13.6-13.6 13.6 6.1 13.6 13.6-6.1 13.6-13.6 13.6zm0-24.8c-6.2 0-11.3 5.1-11.3 11.3s5.1 11.3 11.3 11.3 11.3-5.1 11.3-11.3-5.1-11.3-11.3-11.3zm0 19.9c-4.7 0-8.6-3.9-8.6-8.6s3.9-8.6 8.6-8.6c4.7 0 8.6 3.9 8.6 8.6s-3.9 8.6-8.6 8.6zm0-15c-3.5 0-6.3 2.8-6.3 6.3s2.8 6.3 6.3 6.3 6.3-2.8 6.3-6.3c0-3.4-2.8-6.3-6.3-6.3zm-34.8 21.3c5.5 0 10-4.5 10-10 0-1.4-1.1-2.5-2.5-2.5s-2.5 1.1-2.5 2.5c0 2.7-2.2 5-5 5-2.7 0-5-2.2-5-5 0-2.7 2.2-5 5-5 1.4 0 2.5-1.1 2.5-2.5s-1.1-2.5-2.5-2.5c-5.5 0-10 4.5-10 10s4.5 10 10 10z"/><path class="st1" d="M195.7 204c-6.1 0-11.1-5-11.1-11.1s5-11.1 11.1-11.1c2 0 3.6 1.6 3.6 3.6s-1.6 3.6-3.6 3.6c-2.1 0-3.8 1.7-3.8 3.8s1.7 3.8 3.8 3.8 3.8-1.7 3.8-3.8c0-2 1.6-3.6 3.6-3.6s3.6 1.6 3.6 3.6c.1 6.2-4.9 11.2-11 11.2zm0-19.9c-4.9 0-8.8 4-8.8 8.8s4 8.8 8.8 8.8 8.8-4 8.8-8.8c0-.7-.6-1.3-1.3-1.3s-1.3.6-1.3 1.3c0 3.4-2.7 6.1-6.1 6.1s-6.1-2.7-6.1-6.1 2.7-6.1 6.1-6.1c.7 0 1.3-.6 1.3-1.3-.1-.8-.7-1.4-1.4-1.4z"/><path class="st1" d="M252.8 166.9c-.6-22.1-19.3-38.7-44-38.7-.6 0-1.3.2-1.7.7L169 165.4c-.5.5-.8 1.1-.8 1.8v13.3c0 1.4 1.1 2.5 2.5 2.5 2.7 0 5 2.2 5 5 0 2.7-2.2 5-5 5-1.4 0-2.5 1.1-2.5 2.5v24.9c0 1.4 1.1 2.5 2.5 2.5h22.4c1.4 0 2.5-1.1 2.5-2.5 0-4.1 3.3-7.5 7.5-7.5 4.1 0 7.5 3.3 7.5 7.5 0 1.4 1.1 2.5 2.5 2.5h37.3c1.4 0 2.5-1.1 2.5-2.5v-53.1c0-.2-.1-.3-.1-.4zm-43-33.7c20.5.4 36.2 13.6 37.9 31.5H177l32.8-31.5zm38.1 84.6h-32.6c-1.2-5.7-6.2-10-12.2-10-6 0-11 4.3-12.2 10h-17.7v-20.2c4.3-1.1 7.5-5 7.5-9.6s-3.2-8.5-7.5-9.6v-8.6h74.6v48z"/><path class="st1" d="M250.4 223.9h-37.3c-2 0-3.6-1.6-3.6-3.6 0-3.5-2.8-6.3-6.3-6.3s-6.3 2.8-6.3 6.3c0 2-1.6 3.6-3.6 3.6h-22.4c-2 0-3.6-1.6-3.6-3.6v-24.9c0-2 1.6-3.6 3.6-3.6 2.1 0 3.8-1.7 3.8-3.8s-1.7-3.8-3.8-3.8c-2 0-3.6-1.6-3.6-3.6v-13.3c0-.7.2-1.3.5-1.9l-.1-.1.6-.6 38.1-36.5c.7-.7 1.6-1 2.5-1 25 0 44.4 17.1 45.1 39.7 0 .1.1.3.1.5v53.1c-.1 1.8-1.7 3.4-3.7 3.4zm-47.3-12.2c4.7 0 8.6 3.9 8.6 8.6 0 .7.6 1.3 1.3 1.3h37.3c.7 0 1.3-.6 1.3-1.3V167c-.6-21.4-19-37.6-42.8-37.6-.3 0-.7.1-.9.4l-38.1 36.5c-.3.3-.4.6-.4 1v13.3c0 .7.6 1.3 1.3 1.3 3.4 0 6.1 2.7 6.1 6.1s-2.7 6.1-6.1 6.1c-.7 0-1.3.6-1.3 1.3v24.9c0 .7.6 1.3 1.3 1.3h22.4c.7 0 1.3-.6 1.3-1.3.1-4.7 4-8.6 8.7-8.6zm48.6-44.5zm-2.6 51.8h-34.7l-.2-.9c-1.1-5.2-5.7-9-11.1-9-5.3 0-10 3.8-11.1 9l-.2.9h-19.7v-22.3l.9-.2c3.9-1 6.6-4.5 6.6-8.5s-2.7-7.5-6.6-8.5l-.9-.2v-10.6H249V219zm-32.9-2.3h30.6v-45.8h-72.4v6.6c4.4 1.5 7.5 5.7 7.5 10.5s-3 9-7.5 10.5v18.2H190c1.6-5.8 7-10 13.1-10s11.5 4.2 13.1 10zm32.8-50.8h-74.9l35.3-33.8h.5c20.8.4 37.2 14.1 39 32.5l.1 1.3zm-69.2-2.3h66.6c-2.3-16.7-16.9-28.6-36.2-29.2l-30.4 29.2zm-16-88c.8.4 3.4 3.8 8.4 3.5 2.7-.2 4 3.4 1.5 5-.7.5-4.9 3.7-5.3 9.3 6.5.8 9.2-6.7 12.3-3.1.3.4 2.9 5.7 4.2 6.3 0 0 1.1 0 1.8.9 4.3-10.6-3.9-15.7.9-17.9 5.8-2.6 8 15 2.4 23.1-1.1 1.6-2.8 1.2-4.3.6-5.7 11.6-27.4 52.6-49.1 51.6-15.6-.7-24.7-9.1-26.6-24.6-2.6-21.4 36.7-46.3 48.2-53-.9-1.1-1.3-1.8-1.3-1.8-.8-1.4-.3-3.2 1.2-3.8 19.6-8.6 24.5 1 24.5 1 1.7 3.1-3 5.7-4.7 2.5 0 0-2.2-4.4-14.3.1.1.1.1.2.2.3zm-1.5 5.7c-8.7 5-49.2 29.4-46.9 48.5 1.5 12.9 8.5 19.4 21.5 19.9 18.8.8 39.5-39.2 44.3-49.3-1.5-1.4-2.6-3-3.5-4.4-6.4 4-14.5 3.2-14.7-.5-.3-5.2 1.6-9.2 3.7-11.9-1.6-.6-3.1-1.4-4.4-2.3z"/><path class="st1" d="M137.4 156.2h-.8c-16.2-.7-25.7-9.6-27.6-25.6-2.6-21.4 34.4-45.6 47.6-53.5-.4-.5-.6-.9-.6-.9l-.4-.7.1-.1c-.2-.7-.2-1.5 0-2.3.3-1.1 1.1-1.9 2.1-2.4 10.9-4.8 17.4-4 21-2.5 3.3 1.4 4.7 3.5 4.9 4.1 1.2 2.2.1 4.2-1.6 5.1-1.6.9-3.9.7-5.1-1.4l-.1-.1s-1.9-3-11.1-.1c1.2 1 3.3 2.4 6.4 2.2 1.8-.1 3.3 1 3.9 2.6.6 1.7-.1 3.4-1.6 4.4-.9.7-3.9 3.1-4.7 7.3 2.1-.1 3.8-1.3 5.3-2.4 1.9-1.3 4.3-3 6.5-.4.2.2.3.4.7 1.3 1.5 2.7 2.5 4.3 3 4.7.3 0 .6.1.9.2 1.5-4.7.4-8.1-.5-10.7-.8-2.5-1.6-5 1.5-6.4 1.7-.7 3.3-.3 4.6 1.2 3.5 4.3 3.8 16.9-.8 23.6-1.3 2-3.4 1.8-4.7 1.4-6.6 13.3-27.5 51.4-48.9 51.4zm20.8-80.8c.2.3.5.8 1 1.3l.8 1-1.1.7c-5.1 3-18.1 11-29.1 20.9-13.3 11.8-19.5 22.3-18.5 31 1.8 15 10.4 23 25.5 23.6h.7c21.2 0 43.1-42.4 47.3-51l.5-.9 1 .4c1.9.7 2.5.5 3-.2 4.2-6.1 3.6-17.6.9-20.8-.8-.9-1.4-.8-1.9-.6-1.1.5-1.2.8-.3 3.6 1 3 2.4 7.5-.1 13.6l-.7 1.7-1.2-1.4c-.4-.4-.8-.5-1-.5l-.4-.1c-1.1-.5-2.3-2.4-4.1-5.8-.2-.5-.4-.8-.5-.9-.7-.9-1.2-.8-3.4.8-1.9 1.3-4.5 3.2-8.1 2.7l-1.1-.1.1-1.1c.5-5.9 4.6-9.3 5.8-10.2 1-.7.8-1.6.8-1.8-.2-.5-.7-1.1-1.6-1.1-4.5.3-7.2-2.1-8.5-3.2-.2-.2-.4-.3-.5-.4l-.2-.2-.2-.2-.1-.1-1.4-1.3 1.7-.6c11.5-4.3 14.9-.8 15.6.3l.1.2c.7 1.3 1.8.7 2.1.6.1-.1 1.3-.8.6-2-.2-.4-5.1-8.4-23-.5-.4.2-.7.5-.8 1-.1.4-.1.9.1 1.2l.2.4zm-20.7 75.4h-.6c-13.6-.6-21-7.4-22.6-20.9-1-8.5 5.6-18.8 19.7-30.6 10.9-9.1 23-16.4 27.7-19.1l.6-.4.6.4c1.3.9 2.7 1.7 4.1 2.2l1.5.5-.9 1.2c-1.7 2.3-3.7 6.1-3.4 11.2 0 .6.4 1.1 1.2 1.4 2.4 1.2 7.5.9 11.8-1.8l1-.6.6 1c1 1.6 2.1 3 3.3 4.2l.6.6-.4.7c-5.8 11.9-25.8 50-44.8 50zm24.8-68.2c-5 2.9-16.5 9.9-26.8 18.5-13.3 11.1-19.8 21-18.9 28.5 1.5 12.4 8 18.4 20.4 18.9h.5c17.7 0 37.6-38.3 42.4-47.9-.9-.9-1.7-1.9-2.4-3.1-4.9 2.7-10.3 2.8-13.1 1.4-1.5-.7-2.3-1.9-2.4-3.3-.3-5 1.3-8.8 3-11.5-1-.4-1.9-.9-2.7-1.5z"/><path class="st1" d="M197.1 57.5c1.6-3.1 6.4-.7 4.8 2.4 0 0-5.3 10.3-16.6 21.7-2.5 2.5-6.3-1.3-3.8-3.8 10.7-10.7 15.5-20.3 15.6-20.3z"/><path class="st1" d="M183.5 83.6c-1 0-2-.5-2.7-1.2-1.3-1.3-1.8-3.6 0-5.4 9.9-10.1 14.7-19 15.2-19.9V57c1.1-2.2 3.4-2.5 5.1-1.6 1.7.9 2.8 2.9 1.7 5.1l-.1.2c-1.1 2.1-6.5 11.6-16.7 21.8-.7.7-1.6 1.1-2.5 1.1zM198.1 58c-.8 1.5-5.6 10.4-15.8 20.6-1 1-.1 2 0 2.2.1.1 1.1 1.1 2.1 0 10.1-10.2 15.4-19.6 16.3-21.3v-.1c.6-1.3-.6-1.9-.7-2 0-.1-1.3-.7-1.9.6zm-53.3 124.7c0-.3 0-.6-.1-1l-.1-.6c-1-6.7-7.8-10.5-13.4-11.7-3.4-.6-6.9-1.1-10.4-1.2h-.7c-2.7-.2-5.3-.5-7.9-1-4.1-1-8.2-2.5-12-4.3l-.2-.1-.6-.3-1.1-.5c-5.4-2.8-11.1-4.8-17.1-6-1.5-.2-3-.4-4.5-.3h-.1c-5.4.1-10.7 1.6-15.3 4.4h-.1c-4.5 2.7-8.2 6.5-10.7 11.2-1.6 3-2.6 6.3-2.8 9.7-1.1 6-.6 12.1 1.3 17.9 1.2 5.9 4.2 11.2 8.5 15.3 8 6.7 18.3 10.2 28.7 9.7 13.3-.3 26.4-3.4 38.5-8.9 6.9-3.3 12.7-8.6 16.6-15.3l.3-.6c2.7-5 3.8-10.7 3.2-16.4zm-33.7-10.5c2.4.5 4.9.8 7.4 1l13.9 19.5c-2.5 1.6-5.1 3.1-7.7 4.4l-18.9-26.4c1.7.6 3.5 1.1 5.3 1.5zm-15-5.6l.8.4 23 32.2c-2.8 1.2-5.7 2.2-8.7 3.1l-29.3-41c5 1.2 9.7 3 14.2 5.3zm-20.7-5.8l30.6 42.8c-3.2.7-6.4 1.3-9.7 1.6l-30.1-42.1c2.9-1.3 6-2.1 9.2-2.3zm-13.5 4.9l28.6 40c-3.5.2-7.1.2-10.6 0h-.3l-23.8-33.3c1.5-2.7 3.6-4.9 6.1-6.7zm-9.2 16v-.2c.1-1.3.3-2.6.7-3.8l19.4 27.1c-3.6-.6-7.1-1.9-10.3-3.8-2.5-1.6-4.7-3.8-6.3-6.3-1.2-1.9-2.2-3.9-2.8-6.1-.6-2.2-.9-4.5-.7-6.9zm84.2 15.3l-.2.4c-3.3 5.6-8.3 10.1-14.2 12.9-11.3 5.4-44.3 16.1-61.6.1-2.7-2.6-4.8-5.8-6.1-9.3 1.5 1.6 3.1 2.9 4.9 4.1 5.5 3.3 11.8 5.1 18.2 5.3l1.5.1c2 .1 4 .2 6 .2 3.3 0 6.6-.2 9.9-.5 5.2-.5 10.4-1.5 15.5-2.8 4.8-1.3 9.4-3 14-5.1 3.9-1.7 7.6-3.8 11.1-6.2.5-.3 1-.7 1.4-1 .1 0 .1-.1.2-.2l.3-.2c-.2.8-.5 1.5-.9 2.2zm2.4-11.9c-.6 1.7-1.6 3.2-2.9 4.4l-11.3-15.8c1.7.2 3.4.4 5.1.8 4.3.9 8.9 3.6 9.4 7.1v.4c0 .2.1.3.1.5 0 .9-.1 1.8-.4 2.6z"/><path class="st1" d="M84.1 225.1c-10 0-19.6-3.5-27.3-10-4.6-4.3-7.6-9.8-8.9-15.9-2-5.9-2.4-12.2-1.3-18.3.3-3.6 1.3-7 3-10.1 2.5-4.8 6.4-8.9 11.1-11.6 4.8-2.9 10.3-4.5 15.9-4.6h.1c1.6 0 3.2.1 4.7.4 6.1 1.2 11.9 3.2 17.4 6.1l1 .5.6.3.1.1c3.8 1.8 7.8 3.3 11.9 4.3 2.5.5 5.1.8 7.7 1h.7c3.5.2 7.1.6 10.5 1.3 6 1.3 13.3 5.3 14.3 12.6l.1.6c.1.4.1.7.1 1.1.6 5.9-.5 11.8-3.4 17 0 .1-.1.3-.3.6-4 6.9-9.9 12.3-17.1 15.8-12.3 5.7-25.4 8.7-38.9 9-.6-.2-1.3-.2-2-.2zm-7.6-68.3c-5.2.1-10.3 1.5-14.7 4.2-4.4 2.6-8 6.3-10.3 10.8-1.6 2.9-2.5 6-2.7 9.3v.1c-1 5.8-.6 11.8 1.3 17.3v.1c1.2 5.7 4 10.7 8.2 14.7 7.8 6.5 17.7 9.9 27.9 9.4 13.2-.3 26-3.3 38-8.8 6.8-3.2 12.3-8.3 16-14.8l.2-.4.4-1h.1c2.3-4.6 3.3-9.7 2.7-14.9v-.1c0-.3 0-.5-.1-.8l-.1-.5c-.9-6.2-7.3-9.6-12.5-10.7-3.3-.6-6.8-1-10.2-1.2h-.7c-2.7-.2-5.4-.5-8-1-4.3-1.1-8.4-2.6-12.3-4.4l-.3-.2c-.1-.1-.2-.1-.3-.1l-.1-.1-1.1-.5c-5.3-2.8-10.9-4.8-16.8-5.9-1.4-.2-2.8-.3-4.3-.3h-.3zm9.7 63.2c-9.6 0-19.1-2.2-26.1-8.7-2.9-2.7-5.1-6.1-6.4-9.8l-1.8-5.1 3.7 4c1.4 1.5 3 2.8 4.7 3.9 5.3 3.1 11.4 4.9 17.6 5.2l1.6.1c1.9.1 4 .2 5.9.2 3.2 0 6.5-.2 9.7-.5 5.2-.5 10.3-1.4 15.3-2.8 4.7-1.3 9.3-3 13.8-5 3.8-1.7 7.5-3.7 10.9-6.1.5-.3.9-.6 1.3-1l.6-.5.8-1.5v.8l2.4-1.9-1.5 3.9c-.3.7-.6 1.4-1 2.2l-2.2 4v-.7c-3.3 4.5-7.7 8.1-12.8 10.5-6.7 3.6-21.7 8.8-36.5 8.8zm-27.8-14.3c1 1.4 2.1 2.8 3.3 4 16.8 15.5 49.2 5 60.3-.3 5.1-2.4 9.4-6.1 12.6-10.8-3 1.8-6.1 3.5-9.3 4.9-4.5 2.1-9.3 3.8-14.1 5.1-5.1 1.4-10.4 2.3-15.7 2.9-3.3.3-6.6.5-9.9.5-2 0-4.1-.1-6.1-.2l-1.6-.1c-6.5-.2-13-2.1-18.7-5.5-.3-.1-.6-.3-.8-.5zm27.1 1.3c-1.9 0-3.8-.1-5.7-.2l-.9-.1-24.6-34.4.4-.6c1.7-2.7 3.8-5 6.4-6.9l.9-.7 30.5 42.6-2.1.1c-1.5.1-3.2.2-4.9.2zm-5.3-2.4c2.7.2 5.4.2 8.1.1l-26.7-37.3c-1.7 1.4-3.3 3.1-4.5 4.9l23.1 32.3zm15.6 1.8l-31.3-43.8 1.2-.6c3-1.4 6.2-2.3 9.6-2.5h.6l32 44.7-1.7.4c-3.2.7-6.5 1.3-9.8 1.7l-.6.1zM68 163.6L96.9 204c2.4-.3 4.8-.7 7.2-1.2L74.8 162c-2.3.2-4.6.7-6.8 1.6zm7.3 42.8l-2.7-.4c-3.8-.6-7.4-2-10.7-4-2.7-1.7-4.9-4-6.7-6.6-1.3-2-2.3-4.1-2.9-6.4-.7-2.4-.9-4.8-.8-7.3v-.2c.1-1.4.3-2.8.7-4.1l.6-2.3 22.5 31.3zm-21.4-25.9c0 .4-.1.7-.1 1.1v.2c-.2 2.2.1 4.4.7 6.5.6 2 1.4 4 2.6 5.7 1.6 2.4 3.6 4.4 6 5.9 2.2 1.3 4.5 2.3 7 3l-16.2-22.4zm56.9 23.1l-31.6-44.1 3 .7c5 1.2 9.8 3.1 14.4 5.4l1 .5 24 33.6-1.3.5c-2.9 1.2-5.8 2.2-8.8 3.1l-.7.3zm-26-40.4l26.9 37.7c2.2-.7 4.3-1.4 6.5-2.3l-22-30.8-.6-.3c-3.5-1.7-7.1-3.1-10.8-4.3zm39.5 35.3l-21.5-30.2 3.4 1.2c1.7.6 3.4 1.1 5.2 1.5l.6.1c2.2.4 4.4.7 6.6.9h.5l14.9 21-1 .7c-2.5 1.6-5.2 3.1-7.9 4.4l-.8.4zm-15.6-25.7l16.3 22.8c2-1 3.9-2.1 5.8-3.2l-12.9-18.1c-2.3-.2-4.7-.5-7-1l-.7-.2-1.5-.3zm27.5 18.5l-13.6-19 2.5.2c1.7.2 3.5.4 5.2.8 4.7 1 9.7 3.9 10.3 8v.5c0 .1 0 .2.1.3v.2c.1 1.1-.1 2.1-.4 3.1l-.7 1.9-.1-.1c-.6 1.2-1.5 2.2-2.4 3.2l-.9.9zm-8.7-16.1l9 12.6c.7-.9 1.3-1.9 1.7-3l.1-.2c.2-.6.3-1.3.2-1.9 0-.2-.1-.3-.1-.5v-.5c-.5-2.9-4.7-5.2-8.5-6.1-.8-.2-1.6-.3-2.4-.4z"/></svg>