<svg id="Group_106" data-name="Group 106" xmlns="http://www.w3.org/2000/svg" width="166.009" height="55.325" viewBox="0 0 166.009 55.325">
  <path id="Path_83" data-name="Path 83" d="M668.689,148.645c2.889-.376,5.771-.947,8.671-1.058,1.885-.072,2.053,1.617,2.05,3.132q-.014,7.35,0,14.7V168l.834.549c2.693-2.866,5.577-5.584,8-8.658,1.331-1.685,2.424-2.056,4.191-1.1.785.425,1.653.708,2.4,1.181,2.448,1.541,2.99,3.587,1.219,5.847-1.8,2.3-3.946,4.343-6.294,6.881,1.4,2.287,2.9,4.874,4.555,7.363a3.421,3.421,0,0,0,1.964,1.249c1.255.28,2.791.308,2.532,2.019-.233,1.544-.6,3.478-1.648,4.413-3.224,2.868-8.394,1.924-11.013-1.936-1.688-2.489-2.924-5.282-4.426-8.055-1.8.127-2.427,1.139-2.35,2.96.107,2.564.027,5.137.027,8.109-3.05,0-5.88.095-8.7-.033-1.97-.089-1.707-1.743-1.709-3.04-.018-10.958,0-21.916-.023-32.874,0-1.234-.185-2.468-.284-3.7Z" transform="translate(-668.689 -147.586)" fill="#a7a9ac"/>
  <path id="Path_84" data-name="Path 84" d="M1112.475,184.416c2.875,0,5.547-.053,8.216.018,1.854.049,2.013,1.416,2.01,2.857-.011,4.907,0,9.814,0,14.721v3.236c3.885-2.1,5.426-5.168,6.443-9.3,2.28,3.893,4.068,7.419,3.315,11.611-.683,3.8-4.305,5.621-9.52,4.893-.188,1.479-.318,2.968-.575,4.435a12.742,12.742,0,0,1-7.666,9.967,20.848,20.848,0,0,1-12.145,1.242c-3.568-.575-6.8-2.031-7.9-5.933-1.069-3.772.952-6.27,4.129-8.324-4.027-3.029-4.717-7.147-4.685-11.563.037-5.085.043-10.171-.019-15.256-.016-1.393.364-1.978,1.866-2.274,7.713-1.518,8.485-.967,8.487,6.6,0,3.926-.04,7.852.027,11.776.05,2.968,1.228,4.225,3.694,4.183,2.9-.049,4.161-1.318,4.169-4.239.013-5.175,0-10.349.011-15.523C1112.331,186.587,1112.416,185.625,1112.475,184.416Zm-.077,27.227c-1.544.878-2.562,1.406-3.527,2.018a16.294,16.294,0,0,0-3.025,2.141c-1.169,1.2-2.106,2.99-.511,4.146a5.073,5.073,0,0,0,4.308.127c1.074-.493,1.9-2.074,2.292-3.341A24.819,24.819,0,0,0,1112.4,211.643Z" transform="translate(-966.625 -173.138)" fill="#a7a9ac"/>
  <path id="Path_85" data-name="Path 85" d="M991.978,185.892c2.519-.993,4.664-2.308,6.956-2.654,6.452-.975,10.763,2.961,11.141,9.938.183,3.38-.034,6.782.153,10.162.054.979.713,2.577,1.379,2.74,1.6.392,2.634,1.1,2.269,2.627s-.943,3.419-2.089,4.233c-4.9,3.482-11.579-.015-11.883-6.139-.19-3.826-.013-7.669-.071-11.5-.057-3.706-2.2-5.193-5.654-4.05a3.023,3.023,0,0,0-2.35,3.348c.091,6.062,0,12.127-.03,18.191a4.818,4.818,0,0,1-.28.888c-2.7,0-5.537.116-8.354-.1-.583-.044-1.529-1.3-1.538-2.009q-.159-12.975.01-25.953c.008-.622,1.033-1.59,1.745-1.769a24.989,24.989,0,0,1,4.806-.508C990.216,183.235,992.089,183.452,991.978,185.892Z" transform="translate(-887.815 -172.453)" fill="#a7a9ac"/>
  <path id="Path_86" data-name="Path 86" d="M886.89,195.146c.385-3.358-.978-5.162-4.463-5.128a77.024,77.024,0,0,0-9.139,1.138c-1.812-2.489-1.609-4.227,1.246-5.827a19.229,19.229,0,0,1,16.611-1.343c4.287,1.571,6.075,5.119,6.3,9.436.175,3.293-.033,6.605.143,9.9.048.89.689,2.266,1.373,2.5,1.318.445,2.582.772,2.234,2.347-.339,1.536-.771,3.382-1.84,4.359-2.318,2.118-6.336,1.831-8.993-.184-.636-.482-1.177-1.088-2.025-1.883-2.3,2.975-5.49,3.965-9.172,3.635-5.1-.457-8.867-4.069-9.208-8.859-.365-5.136,2.381-9.048,7.674-9.993C880.564,194.717,883.663,195.146,886.89,195.146Zm-2.056,5.229c-2.866-.035-4.552,1.263-4.548,3.409a2.835,2.835,0,0,0,3.141,3.174c2.108,0,3.6-1.748,3.8-4.029C887.407,200.826,886.4,200.231,884.835,200.375Z" transform="translate(-809.636 -172.182)" fill="#a7a9ac"/>
  <path id="Path_87" data-name="Path 87" d="M779.081,203.954c2.941,4.6,7.593,4.432,14.713-.273,3.2,2.475,3.3,4.3.388,7.123-4.587,4.457-12.837,5.8-18.519,3.007-5.961-2.926-9.344-9.743-8.473-17.077.717-6.043,5.83-11.2,12.571-12.673,7.976-1.746,14,1.947,15.243,9.352.638,3.783-.5,5.7-4.168,6.873C786.951,201.531,783.048,202.719,779.081,203.954Zm-1.843-5.478c2.3-.693,4.611-1.288,6.826-2.136a2.282,2.282,0,0,0,1.055-1.9c-.366-2.786-2.8-3.947-5.331-2.7C777.424,192.917,776.558,195.083,777.238,198.476Z" transform="translate(-737.583 -172.833)" fill="#a7a9ac"/>
</svg>
