<svg id="Group_105" data-name="Group 105" xmlns="http://www.w3.org/2000/svg" width="140.308" height="54.671" viewBox="0 0 140.308 54.671">
  <path id="Path_77" data-name="Path 77" d="M1215.377-48.041c-1.819-.449-3.606-.962-5.423-1.322-2.574-.509-5.159-.805-7.726.144a5.487,5.487,0,0,0-3.708,5.458,4.141,4.141,0,0,0,2.569,3.619c1.918.94,3.918,1.722,5.913,2.494,2.848,1.1,5.729,2.169,7.953,4.351,3.42,3.357,3.945,7.477,2.739,11.895-1.275,4.672-4.773,7.016-9.182,8.209-5.614,1.519-11.218,1.058-16.786-.335-1.835-.459-1.831-.481-1.833-2.339q0-2.33,0-4.66v-.987c1.241.458,2.3.9,3.383,1.239a24.791,24.791,0,0,0,7.7,1.277,10.65,10.65,0,0,0,5.259-1.389c3.478-1.975,3.612-6.149.145-8.174a42.611,42.611,0,0,0-5.589-2.522,30.254,30.254,0,0,1-7.626-3.836,10.213,10.213,0,0,1-3.966-8.451,12.045,12.045,0,0,1,2.7-8.221,12.789,12.789,0,0,1,6.208-3.937c4.677-1.4,9.4-1.151,14.125-.287a21.2,21.2,0,0,1,2.71.676c.276.089.647.473.649.723.013,2.049-.05,4.1-.1,6.147C1215.486-48.187,1215.411-48.109,1215.377-48.041Z" transform="translate(-1189.191 56.521)" fill="#a7a9ac"/>
  <path id="Path_78" data-name="Path 78" d="M1562.747-15.311a16.574,16.574,0,0,1,10.979,3.6c4.409,3.565,5.947,8.369,5.591,13.847-.566,8.73-7.062,14.026-15.287,14.491a18.948,18.948,0,0,1-10.4-2.019,14.481,14.481,0,0,1-7.8-12.445c-.37-5.327,1.082-10.057,5.268-13.624A16.775,16.775,0,0,1,1562.747-15.311ZM1570.687.15a20.531,20.531,0,0,0-.132-2.1,12.576,12.576,0,0,0-.529-1.974A7.673,7.673,0,0,0,1562.5-9.23a7.762,7.762,0,0,0-7.4,5.37,14.155,14.155,0,0,0-.1,8.245c.974,3.855,3.218,5.874,7.178,6.128a6.951,6.951,0,0,0,6.338-2.671C1570.227,5.6,1570.612,2.986,1570.687.15Z" transform="translate(-1439.059 27.647)" fill="#a7a9ac"/>
  <path id="Path_79" data-name="Path 79" d="M1378.1,8.914c1.623.5,3.105,1.047,4.631,1.411a10.353,10.353,0,0,0,7.118-.346,3.19,3.19,0,0,0,2.008-2.9,2.875,2.875,0,0,0-1.95-2.9c-1.605-.652-3.273-1.158-4.93-1.676a13.02,13.02,0,0,1-5.384-2.65c-2.3-2.195-2.689-4.976-2.057-7.914.775-3.6,3.345-5.554,6.677-6.591,4.153-1.293,8.359-.951,12.552-.15,2.235.427,2.223.444,2.185,2.708-.02,1.164,0,2.328,0,3.615-.933-.22-1.627-.359-2.306-.547a19,19,0,0,0-6.748-.583,7.229,7.229,0,0,0-2.375.734,2.606,2.606,0,0,0-1.474,2.593,2.272,2.272,0,0,0,1.607,2.186c1.674.655,3.436,1.088,5.1,1.766A23.947,23.947,0,0,1,1397.57.034c2.781,1.962,3.275,4.936,2.831,8.08-.568,4.016-3.257,6.205-6.869,7.432-4.062,1.38-8.208,1.162-12.358.445-.919-.159-1.841-.321-2.739-.564-.293-.08-.744-.431-.735-.642C1377.784,12.844,1377.952,10.906,1378.1,8.914Z" transform="translate(-1320.976 27.781)" fill="#a7a9ac"/>
  <path id="Path_80" data-name="Path 80" d="M1485.293,9.013c.106,2.088.226,4.035.276,5.984a.923.923,0,0,1-.584.657c-5.276,1.13-10.533,1.553-15.615-.828a12.882,12.882,0,0,1-6.909-8.027,19.429,19.429,0,0,1-.094-12.278,13.417,13.417,0,0,1,9.124-9.2c4.313-1.34,8.663-.965,12.986.03a.887.887,0,0,1,.536.664c-.18,1.847-.427,3.688-.667,5.625-.863-.238-1.65-.49-2.453-.67a10.37,10.37,0,0,0-6.939.473,7.874,7.874,0,0,0-4.354,5.619c-.775,3.407-.644,6.741,1.289,9.786a7.52,7.52,0,0,0,7.191,3.477,35.238,35.238,0,0,0,5.272-1.056C1484.62,9.212,1484.88,9.126,1485.293,9.013Z" transform="translate(-1379.944 27.811)" fill="#a7a9ac"/>
  <path id="Path_81" data-name="Path 81" d="M1298.837,27.624c.511-1.406.928-2.6,1.376-3.782q3.235-8.529,6.483-17.052,3.525-9.263,7.053-18.525c1.038-2.721,1.045-2.718,3.928-2.718h5.519c-.431,1.115-.795,2.083-1.178,3.043q-4.5,11.282-9.006,22.561-3.16,7.908-6.343,15.807c-.107.266-.424.633-.65.637C1303.7,27.642,1301.373,27.624,1298.837,27.624Z" transform="translate(-1266.021 27.044)" fill="#a7a9ac"/>
  <path id="Path_82" data-name="Path 82" d="M1278.365,8.439a44.763,44.763,0,0,0-13.949-25.912,2.208,2.208,0,0,1,.55-.13c4.575.517,8.921,1.66,12.561,4.677a12.219,12.219,0,0,1,4.42,11.106,24.348,24.348,0,0,1-2.941,9.35C1278.884,7.759,1278.705,7.959,1278.365,8.439Z" transform="translate(-1241.902 29.252)" fill="#a7a9ac"/>
</svg>
