<svg id="Group_104" data-name="Group 104" xmlns="http://www.w3.org/2000/svg" width="153.838" height="36.493" viewBox="0 0 153.838 36.493">
  <path id="Path_70" data-name="Path 70" d="M759.18-33.674h-10.79c-.073-.37-.141-.719-.21-1.067-.445-2.262-2.24-3.224-4.141-1.913a8.482,8.482,0,0,0-2.752,3.38,29.9,29.9,0,0,0-2.2,11.327c-.083,2.32.737,3.634,2.129,3.984,1.764.442,3.488-.5,4.5-2.519.328-.651.524-1.369.889-2.345H742.63c.418-2.4.787-4.626,1.224-6.844a1.01,1.01,0,0,1,.751-.6c4.656-.036,9.312-.026,14.211-.026-.269,1.466-.466,2.782-.756,4.077a27.622,27.622,0,0,1-4.667,10.982,15.951,15.951,0,0,1-18.806,4.7c-4.206-1.948-5.882-5.6-6.189-9.924A27.18,27.18,0,0,1,733-38.132c3.964-5.812,9.576-8.323,16.551-7.371C755.472-44.694,759.338-39.864,759.18-33.674Z" transform="translate(-605.346 45.699)" fill="#a7a9ac"/>
  <path id="Path_71" data-name="Path 71" d="M593.606-9.053c.655-3.706,1.269-7.188,1.886-10.669,1.366-7.713,2.755-15.423,4.077-23.144.182-1.065.516-1.5,1.666-1.445,4.748.221,9.548-.011,14.24.607,7.13.939,9.883,5.406,8.235,12.4-1.494,6.339-5.83,9.913-12.819,10.543-1.161.1-2.329.2-3.493.188-.813-.005-1.131.272-1.263,1.087-.5,3.083-1.112,6.149-1.607,9.233-.148.922-.5,1.24-1.44,1.223C600.016-9.086,596.942-9.053,593.606-9.053ZM607.8-28.761a4.577,4.577,0,0,0,5.252-5.774,2.9,2.9,0,0,0-2.956-2.1,1.384,1.384,0,0,0-1.023.788C608.593-33.526,608.222-31.185,607.8-28.761Z" transform="translate(-523.218 44.855)" fill="#a7a9ac"/>
  <path id="Path_72" data-name="Path 72" d="M680.908-30.915h7.56c-.332,1.9-.638,3.613-.929,5.327-.52,3.06-.516,3.059-3.642,3.062q-1.958,0-3.917.021a4.458,4.458,0,0,0-.6.115c-.451,2.488-.915,5.037-1.374,7.585-.289,1.6-.527,3.221-.89,4.808-.084.366-.579.9-.895.911-3.208.068-6.418.041-9.868.041.231-1.421.419-2.683.641-3.94q2.665-15.07,5.329-30.139c.127-.721.283-1.178,1.185-1.172,5.736.037,11.472.022,17.208.029a4.15,4.15,0,0,1,.615.13c-.457,2.6-.886,5.192-1.415,7.766-.046.224-.748.435-1.151.444-1.958.046-3.918.061-5.875,0-.878-.026-1.251.257-1.347,1.145C681.414-33.541,681.148-32.32,680.908-30.915Z" transform="translate(-567.572 44.843)" fill="#a7a9ac"/>
  <path id="Path_73" data-name="Path 73" d="M486.225-44.034c-.409,2.29-.758,4.4-1.2,6.484a1.136,1.136,0,0,1-.889.585q-8.326.049-16.653,0a4.918,4.918,0,0,1-1.357-.308c-1.427-.434-2.871-.826-4.267-1.347a53.69,53.69,0,0,0-16.646-3.227c-9.5-.409-18.993-1.141-28.488-1.746a25.046,25.046,0,0,1-3.453-.443Z" transform="translate(-413.278 44.684)" fill="#a7a9ac"/>
  <path id="Path_74" data-name="Path 74" d="M501.331-19.915l-1.239,7.028c-1.5,0-2.945-.1-4.373.017a41.94,41.94,0,0,1-21.5-3.652c-3.421-1.59-7.117-1.336-10.719-1.62-7.4-.584-14.8-1.027-22.205-1.531a.667.667,0,0,1-.5-.242Z" transform="translate(-430.05 29.979)" fill="#a7a9ac"/>
  <path id="Path_75" data-name="Path 75" d="M520.193,3.892c-.386,2.216-.7,4.237-1.127,6.232a1.356,1.356,0,0,1-1.031.76c-3.075.061-6.153.056-9.229.016a4.531,4.531,0,0,1-1.6-.424c-2.757-1.137-5.555-2.19-8.233-3.491-2.5-1.213-5.159-1.143-7.78-1.4-5.379-.536-10.767-.979-16.151-1.462a1.04,1.04,0,0,1-.616-.226Z" transform="translate(-450.558 15.465)" fill="#a7a9ac"/>
  <path id="Path_76" data-name="Path 76" d="M508.918,27.82H539.53c-.388,2.218-.721,4.32-1.162,6.4-.058.275-.658.6-1.023.619-3.316.193-6.614.235-9.523-1.792-.414-.288-.95-.4-1.377-.674-4.663-2.995-9.886-3.883-15.292-4.12-.772-.034-1.539-.183-2.309-.278Z" transform="translate(-471.541 0.877)" fill="#a7a9ac"/>
</svg>
