<svg id="lebysc.tif" xmlns="http://www.w3.org/2000/svg" width="169.234" height="48.64" viewBox="0 0 169.234 48.64">
  <g id="Group_102" data-name="Group 102" transform="translate(0 0)">
    <path id="Path_52" data-name="Path 52" d="M1277.344-346.963c-.69-.979-.471-1.507.686-1.667.3-.042.609-.089.909-.155,1.376-.3,1.735-.71,1.859-2.107.027-.305.031-.613.031-.919q0-11.234,0-22.469a11.631,11.631,0,0,0-.059-1.193c-.141-1.371-.486-1.684-1.867-1.952a3.371,3.371,0,0,1-.992-.611c.252-.31.443-.783.766-.9a23.94,23.94,0,0,0,6.151-3.488c.257-.2.793-.366.976-.236a1.453,1.453,0,0,1,.415,1.01c.054.931.018,1.868.018,2.8l.283.144c.38-.314.774-.614,1.138-.945a10.455,10.455,0,0,1,6.132-2.906,10.41,10.41,0,0,1,11.148,6.924c2.575,6.724-.4,14.258-6.769,16.949a14.421,14.421,0,0,1-10.8.241c-1.063-.381-1.073-.391-1.074.742,0,2.148-.011,4.3,0,6.446.012,1.712.405,2.167,2.079,2.46a11.309,11.309,0,0,1,1.365.2c.376.116.895.309,1,.6.094.255-.292.687-.467,1.04h-2.956a21.571,21.571,0,0,0-7.76,0Zm22.954-22.583c-.054-.507-.106-1.335-.239-2.15a8.357,8.357,0,0,0-9.193-7.315c-2.79.184-4.294,1.617-4.5,4.38-.091,1.253-.077,2.514-.071,3.772.01,2.547-.031,5.1.1,7.64a3.932,3.932,0,0,0,3.275,3.836,7.966,7.966,0,0,0,7.2-1.62C1299.425-363.134,1300.221-366.039,1300.3-369.546Z" transform="translate(-1203.07 395.603)" fill="#a7a9ac"/>
    <path id="Path_53" data-name="Path 53" d="M1136-368.032c.753-.119,1.5-.255,2.259-.354,1.625-.212,2.176-.785,2.177-2.389q.01-12.713,0-25.426c0-1.319-.292-1.672-1.6-1.918-.663-.125-1.351-.135-2-.3-.255-.063-.646-.429-.617-.6a1.307,1.307,0,0,1,.611-.735,1.654,1.654,0,0,1,.807-.1c3.905-.012,7.812-.077,11.715,0a27.771,27.771,0,0,1,5.669.579c4.313,1,6.6,4.112,6.757,8.6.281,7.959-7.879,12.008-13.947,9.9-1.112-.386-1.316-.284-1.321.888q-.019,4.651.031,9.3c.016,1.344.6,1.924,2.043,2.152.577.091,1.177.072,1.736.217a.932.932,0,0,1,.6.631.974.974,0,0,1-.494.746,2.341,2.341,0,0,1-1.173.137,52.909,52.909,0,0,0-11.513-.019,5.518,5.518,0,0,1-1.736-.408Zm10.526-22.322h-.03c0,1.962.01,3.925,0,5.887a1.8,1.8,0,0,0,1.313,1.886,4.733,4.733,0,0,0,5.2-1.037c2.807-2.753,3.373-8.3,1.19-11.8a5.573,5.573,0,0,0-5.751-2.83c-1.338.155-1.882.669-1.906,2C1146.5-394.279,1146.525-392.317,1146.525-390.355Z" transform="translate(-1135.999 403.774)" fill="#a7a9ac"/>
    <path id="Path_54" data-name="Path 54" d="M1362.275-371.4a12.944,12.944,0,0,1-13.089,13.1,13.1,13.1,0,0,1-13.224-13.213,13.114,13.114,0,0,1,13.244-13.1A12.949,12.949,0,0,1,1362.275-371.4Z" transform="translate(-1231.149 396.508)" fill="#a7a9ac"/>
    <path id="Path_55" data-name="Path 55" d="M1409.748-370.862a30.754,30.754,0,0,1-5.2,1.929c-7.364,1.3-13.492-3.341-14.169-10.412A12.786,12.786,0,0,1,1402.3-393.7a15.555,15.555,0,0,1,6.281.629c.773.251,1.042-.018,1.044-.737,0-2.209,0-4.419,0-6.628a1.484,1.484,0,0,0-1-1.5,7.232,7.232,0,0,1-.775-.29c-.4-.217-.777-.476-1.163-.717a6.477,6.477,0,0,1,1.272-.871c1.918-.73,3.877-1.352,5.789-2.1,1.176-.458,1.581-.237,1.57,1.033q-.129,14.863-.247,29.725c0,.52.046,1.041.083,1.561a2.488,2.488,0,0,0,.1.54.807.807,0,0,0,1.274.562c.193-.092.363-.23.553-.329.4-.211.76-.922,1.281-.186a1.4,1.4,0,0,1-.49,1.843,3.724,3.724,0,0,1-.518.19c-1.791.641-3.586,1.268-5.37,1.927-1.106.408-1.349.318-1.8-.8C1410.018-370.233,1409.85-370.618,1409.748-370.862Zm-.1-9.9h.072c0-1.535.064-3.073-.019-4.6a23.729,23.729,0,0,0-.5-4,3.441,3.441,0,0,0-2.944-2.693,7.115,7.115,0,0,0-6.946,2.248c-3.223,3.46-4.021,10.45-1.611,14.515,1.992,3.36,5.165,4.323,8.849,4.107,2.039-.119,3-1.007,3.081-3.04C1409.718-376.4,1409.651-378.581,1409.651-380.76Z" transform="translate(-1257.011 406.748)" fill="#a7a9ac"/>
    <path id="Path_56" data-name="Path 56" d="M1247.617-361.277c-.3.17-.592.321-.871.491-1.286.781-2.537,1.625-3.865,2.326a7.769,7.769,0,0,1-2.434.8c-2.966.444-5-1.06-5.565-4.028a6.71,6.71,0,0,1,2.491-6.885,27.27,27.27,0,0,1,7.045-3.759c.794-.33,1.627-.582,2.38-.985a1.491,1.491,0,0,0,.762-.99,39.576,39.576,0,0,0-.149-4.682A2.071,2.071,0,0,0,1245.1-381a4.111,4.111,0,0,0-3.686,1.892c-.626.908-1.161,1.878-1.747,2.814a4,4,0,0,1-3.629,1.966c-1.088,0-1.539-.491-1.35-1.557a5.613,5.613,0,0,1,1.923-3.172c3.318-3,7.311-3.842,11.646-3.541.153.01.3.042.457.061,2.91.362,4.174,1.636,4.228,4.574.081,4.48.032,8.962.055,13.443a13.3,13.3,0,0,0,.159,2.015c.238,1.491,1.25,1.934,2.537,1.145A5.33,5.33,0,0,1,1256.8-362a1.038,1.038,0,0,1,.908.135,1.554,1.554,0,0,1,.1,1,1.178,1.178,0,0,1-.344.533,8.428,8.428,0,0,1-3.7,2.5,4.222,4.222,0,0,1-4.984-1.585C1248.364-359.977,1248.035-360.6,1247.617-361.277Zm.022-6.853h-.005c0-1.012.006-2.024,0-3.036,0-.523-.218-.728-.759-.5-.964.4-1.969.708-2.908,1.154a6.292,6.292,0,0,0-3.742,7.055,2.773,2.773,0,0,0,3.364,2.465,4.738,4.738,0,0,0,4.05-4.557C1247.658-366.412,1247.639-367.271,1247.639-368.13Z" transform="translate(-1182.938 395.577)" fill="#a7a9ac"/>
    <path id="Path_57" data-name="Path 57" d="M1199.789-371.979h-6.555c-1.642,0-1.682,0-1.62,1.676.123,3.275,1.167,6.156,3.936,8.14,3.124,2.238,7.766,1.938,11.113-.632.317-.243.609-.523.944-.736.16-.1.476-.186.575-.1a.714.714,0,0,1,.233.611,4.261,4.261,0,0,1-.726,1.348,12.817,12.817,0,0,1-10.312,4.236c-7.489-.229-12.179-5.7-11.639-13.577.69-10.064,9.89-12.907,16-11.069a9.327,9.327,0,0,1,6.827,8.008c.275,1.7-.123,2.094-1.85,2.1Q1203.252-371.974,1199.789-371.979Zm-3.193-1.651h3.324c.092,0,.185-.009.277-.015,1.966-.126,2.638-.82,2.594-2.784-.037-1.678-.332-3.283-2.007-4.165-2.407-1.266-6.105-.233-7.341,2.17a23.589,23.589,0,0,0-1.3,3.9c-.2.642.113.907.756.9C1194.133-373.638,1195.364-373.628,1196.6-373.629Z" transform="translate(-1159.647 395.554)" fill="#a7a9ac"/>
    <path id="Path_58" data-name="Path 58" d="M1452.978-403.958a3.154,3.154,0,0,1-3.283,3.118,3.157,3.157,0,0,1-3.2-3.3,3.172,3.172,0,0,1,3.335-3.167A3.168,3.168,0,0,1,1452.978-403.958Zm-1.427,1.782a2.572,2.572,0,0,0,.138-3.749,2.691,2.691,0,0,0-3.816-.082,2.646,2.646,0,0,0-.055,3.795,2.553,2.553,0,0,0,3.761.014Z" transform="translate(-1283.745 407.308)" fill="#a7a9ac"/>
    <path id="Path_59" data-name="Path 59" d="M1453.189-400.888c-.613.147-.876-.257-1.138-.7-.355-.6-.748-1.152-1.644-.827l-.089,1.5-.323,0a24.152,24.152,0,0,1-.1-3.622,15.177,15.177,0,0,1,2.116.031c.285.041.727.424.733.66a4.346,4.346,0,0,1-.39,1.331l-.257-.045q.528.846,1.058,1.69Zm-2.767-3.361v1.418c.649-.167,1.205-.293,1.743-.475a.891.891,0,0,0-.024-.551C1451.62-404.014,1451.079-404.109,1450.422-404.249Z" transform="translate(-1285.355 405.998)" fill="#a7a9ac"/>
  </g>
</svg>
