<svg version="1.1" id="Layer_1" xmlns="http://www.w3.org/2000/svg" x="0" y="0" viewBox="0 0 300 300" xml:space="preserve"><style>.st1{fill:#5fb35f}</style><circle cx="150" cy="150" r="92" fill="#f8f6ee"/><path class="st1" d="M193.1 1136.9c-1.8 0-3.2 1.4-3.2 3.2v15.7c0 1.8 1.4 3.2 3.2 3.2h22.2c1.8 0 3.2-1.4 3.2-3.2 0-.7-.2-1.3-.6-1.9l-11.2-15.7c-.6-.9-1.6-1.4-2.6-1.4h-11zm3.2 6.5h6.1l6.6 9.3h-12.7v-9.3z" transform="translate(0 -952.362)"/><path class="st1" d="M97.2 1108.3c-5.6 0-10.3 4.6-10.3 10.3v56c0 5.6 4.6 10.3 10.3 10.3h10c1.7 6.1 7.3 10.6 13.9 10.6 6.6 0 12.2-4.5 13.9-10.6h56.5c1.7 6.1 7.3 10.6 13.9 10.6 6.6 0 12.2-4.5 13.9-10.6h1.3c4.6 0 8.4-3.8 8.4-8.4V1156c.1-.5 0-.9-.1-1.4 0-.1 0-.1-.1-.2-.1-.4-.4-.8-.7-1.1l-17.2-23.9c-.6-.8-1.6-1.3-2.6-1.3h-20.9v-9.5c0-5.6-4.6-10.3-10.3-10.3H97.2zm0 6.4h79.9c2.1 0 3.8 1.7 3.8 3.8v59.8h-45.6c-1.2-6.7-7.1-11.9-14.2-11.9s-13 5.2-14.2 11.9h-9.7c-2.1 0-3.8-1.7-3.8-3.8v-56c-.1-2.1 1.6-3.8 3.8-3.8zm90.2 19.8h19.2l15.9 22.1v19.8c0 1.1-.9 2-2 2h-1c-1.2-6.7-7.1-11.9-14.2-11.9s-13 5.2-14.2 11.9h-3.8v-43.9h.1zm-66.3 38.4c4.4 0 8 3.5 8 8v.2c-.1 4.4-3.6 7.8-8 7.8s-8-3.5-8-8c0-4.4 3.5-8 8-8zm84.2 0c4.4 0 8 3.5 8 8 0 4.4-3.5 8-8 8-4.4 0-8-3.5-8-8 .1-4.4 3.6-8 8-8z" transform="translate(0 -952.362)"/><path class="st1" d="M139.4 1130.9c-1.8 0-3.2 1.4-3.3 3.2 0 1.8 1.4 3.2 3.2 3.3h31.8c1.8 0 3.2-1.4 3.3-3.2 0-1.8-1.4-3.2-3.2-3.3h-31.8zm-14.5 14.5c-1.8 0-3.2 1.4-3.3 3.2 0 1.8 1.4 3.2 3.2 3.3h46.3c1.8 0 3.2-1.4 3.3-3.2 0-1.8-1.4-3.2-3.2-3.3h-46.3z" transform="translate(0 -952.362)"/><path class="st1" d="M43.7 168.9H31.1c-1.9 0-3.4-1.5-3.4-3.4s1.5-3.4 3.4-3.4h9.1v-40c0-1.9 1.5-3.4 3.4-3.4H70c1.9 0 3.4 1.5 3.4 3.4v8h32V53.4c0-1.9 1.5-3.4 3.4-3.4h50.3c1.9 0 3.4 1.5 3.4 3.4v37.5L178.4 75c.7-.7 1.6-1 2.5-1 .9 0 1.8.4 2.5 1.1l22.9 25.2c.6.6.9 1.5.9 2.3v18.3h33.2c1.9 0 3.4 1.5 3.4 3.4v26.3H269c1.9 0 3.4 1.5 3.4 3.4s-1.5 3.4-3.4 3.4h-28.6c-1.9 0-3.4-1.5-3.4-3.4v-26.3h-33.2c-1.9 0-3.4-1.5-3.4-3.4v-20.4l-19.6-21.5-19.2 19.2c-1 1-2.5 1.3-3.7.7-1.3-.5-2.1-1.8-2.1-3.2V56.9h-43.4v76.6c0 1.9-1.5 3.4-3.4 3.4H70c-1.9 0-3.4-1.5-3.4-3.4v-8H47.1v40c0 1.9-1.5 3.4-3.4 3.4z"/><path class="st1" d="M127.1 79.7c-1.9 0-3.4-1.5-3.4-3.4v-9.1c0-1.9 1.5-3.4 3.4-3.4s3.4 1.5 3.4 3.4v9.1c.1 1.9-1.5 3.4-3.4 3.4zm14.9 0c-1.9 0-3.4-1.5-3.4-3.4v-9.1c0-1.9 1.5-3.4 3.4-3.4s3.4 1.5 3.4 3.4v9.1c0 1.9-1.5 3.4-3.4 3.4zm-14.9 22.9c-1.9 0-3.4-1.5-3.4-3.4V90c0-1.9 1.5-3.4 3.4-3.4s3.4 1.5 3.4 3.4v9.1c.1 2-1.5 3.5-3.4 3.5zm14.9 0c-1.9 0-3.4-1.5-3.4-3.4V90c0-1.9 1.5-3.4 3.4-3.4s3.4 1.5 3.4 3.4v9.1c0 2-1.5 3.5-3.4 3.5zm-14.9 22.9c-1.9 0-3.4-1.5-3.4-3.4V113c0-1.9 1.5-3.4 3.4-3.4s3.4 1.5 3.4 3.4v9.1c.1 1.8-1.5 3.4-3.4 3.4zm14.9 0c-1.9 0-3.4-1.5-3.4-3.4V113c0-1.9 1.5-3.4 3.4-3.4s3.4 1.5 3.4 3.4v9.1c0 1.8-1.5 3.4-3.4 3.4zm38.9-44.6c-1.9 0-3.4-1.5-3.4-3.4V62.6c0-1.9 1.5-3.4 3.4-3.4s3.4 1.5 3.4 3.4v14.9c0 1.8-1.5 3.4-3.4 3.4zM70 149.8c-1.9 0-3.4-1.5-3.4-3.4v-23.9c0-1.9 1.5-3.4 3.4-3.4s3.4 1.5 3.4 3.4v23.9c0 1.9-1.5 3.4-3.4 3.4zm89.1-31.2c-1.9 0-3.4-1.5-3.4-3.4V53.4c0-1.9 1.5-3.4 3.4-3.4s3.4 1.5 3.4 3.4v61.7c.1 2-1.5 3.5-3.4 3.5zm25.2 21.7c-1.9 0-3.4-1.5-3.4-3.4v-12.6c0-1.9 1.5-3.4 3.4-3.4h56c1.9 0 3.4 1.5 3.4 3.4s-1.5 3.4-3.4 3.4h-52.6v9.1c0 2-1.5 3.5-3.4 3.5z"/></svg>