<svg version="1.1" id="Layer_1" xmlns="http://www.w3.org/2000/svg" x="0" y="0" viewBox="0 0 300 300" xml:space="preserve"><style>.st1{fill:#5fb35f}</style><circle cx="150" cy="150" r="92" fill="#f8f6ee"/><path class="st1" d="M226.6 206.6c-.8 0-1.5-.3-2.2-.8-.4-.3-10.3-8.4-20.2-20.7-13.6-16.8-20.5-32.9-20.5-47.7 0-23.6 19.2-42.9 42.9-42.9s42.9 19.2 42.9 42.9c0 16-7.1 33-20.5 49-10 12-19.9 19.2-20.3 19.5-.7.5-1.4.7-2.1.7zm0-105.2c-19.9 0-36 16.2-36 36 0 27.4 28.2 54.3 36.1 61.3 8-6.5 35.9-31.2 35.9-61.3 0-19.8-16.2-36-36-36z"/><path class="st1" d="M226.6 158.6c-11.7 0-21.2-9.5-21.2-21.2s9.5-21.2 21.2-21.2 21.2 9.5 21.2 21.2-9.6 21.2-21.2 21.2zm0-35.5c-7.9 0-14.3 6.4-14.3 14.3s6.4 14.3 14.3 14.3 14.3-6.4 14.3-14.3c-.1-7.9-6.5-14.3-14.3-14.3zM78 202.8c-.8 0-1.5-.3-2.2-.8-1.5-1.2-37.5-30.8-44.2-65.2-.7-3.7-1.1-7.3-1.1-10.7v-1.3c.4-12.7 9.8-23.4 22.1-24.8 1-.1 2-.2 3.1-.2 9.2 0 17.1 6.2 21.8 13.7 4.5-8.3 12.9-15.2 22.7-15.2h1.6c12.3.7 22.3 11 23.4 23.8.1 1.3.2 2.6.2 4 0 2.5-.2 5.2-.5 7.8-4.8 38.8-43.3 67.1-44.9 68.2-.6.5-1.3.7-2 .7zm-22.3-96.1c-.8 0-1.5 0-2.3.1-8.9 1-15.8 8.9-16 18.2v1.1c0 3 .3 6.2.9 9.4 5.3 27.5 32 52.7 39.7 59.5 8-6.4 36.2-31.1 40-61.9.3-2.4.4-4.7.4-7 0-1.1 0-2.3-.1-3.4-.8-9.5-8.1-17-17-17.5h-1.2c-9.4 0-17.2 9.3-19.1 17.9-.3 1.5-1.7 2.6-3.2 2.7-1.6 0-3-1-3.4-2.5-2.3-8.2-10-16.6-18.7-16.6zm116.6 51.9h-36.6c-1.9 0-3.4-1.5-3.4-3.4s1.5-3.4 3.4-3.4h36.6c1.9 0 3.4 1.5 3.4 3.4s-1.6 3.4-3.4 3.4z"/><path class="st1" d="M157.4 173.4c-.9 0-1.8-.3-2.4-1-1.3-1.3-1.3-3.5 0-4.8l12.4-12.4-12.4-12.5c-1.3-1.3-1.3-3.5 0-4.8 1.3-1.3 3.5-1.3 4.8 0l14.9 14.9c1.3 1.3 1.3 3.5 0 4.8l-14.9 14.9c-.7.6-1.5.9-2.4.9z"/></svg>