<svg xmlns="http://www.w3.org/2000/svg" viewBox="0 0 1200 254.6"><path d="M140.5 20c1.3-5 3.5-13.4 4.5-17.4.3-1-.4-2-1.4-2.3-.2 0-.3-.1-.5-.1H90.7L0 166.3l26.1 40s43.3-3.6 64.6-5.2v29.7c-1.3 5-3.3 13.1-4.3 17.2a2 2 0 0 0 1.4 2.3c.2 0 .4.1.6 0l54.9-4.5c1-.1 1.8-1 1.7-2 0-.1 0-.3-.1-.4-1.1-3.7-3.4-11.2-4.6-16v-30.9l9.5-.9c.9-.1 1.6-.8 1.7-1.7l3.8-37.1c.1-1-.7-2-1.7-2.1h-.3l-13 .9.2-135.6zM90.8 83.2l-.1 74.9c-9 .8-23.6 1.2-35.4 2 0 0 25.8-51.4 35.5-76.9zM302.7 0H187.1c-1 0-1.9.8-1.9 1.9v.4c1 4.1 3.1 12.9 4.4 17.7l-.1 203.9c-1.3 4.8-3.2 12.5-4.2 16.4-.3 1 .3 2 1.4 2.3.2.1.4.1.6.1l54.8-3.5c1-.1 1.8-1 1.8-2 0-.1 0-.3-.1-.4-1-3.5-3-10.2-4.3-16.1l.6-69.9 53.5-2.1 45.7-42.7-.1-73-36.5-33zM273 105.4l-33.8.5.1-55.8c9.8-.1 25.6-.2 35.4-.3L289.8 62v29c.4.5-16.2 15.1-16.8 14.4zM504.2.1H368.1c-1 0-1.9.8-1.9 1.9 0 .2 0 .3.1.5 1.2 4.2 3.5 12.8 4.8 17.4l-.2 192.9c-1.3 4.6-4.5 13.2-6.1 17.5-.4 1 .1 2.1 1.1 2.4.2.1.5.1.7.1l63.6-2.1c1 0 1.9-.9 1.8-2 0-.3-.1-.5-.2-.7-1.9-4-5.5-11.7-7.1-17.2l.1-66.1c6.8-.1 15.5-.2 22.2-.4 4.8 1.3 13.8 6 18.4 8.4.9.5 2.1.1 2.6-.8.1-.3.2-.6.2-.9V95.4c0-1-.8-1.9-1.9-1.9-.3 0-.6.1-.9.2-4.6 2.5-13.7 7.3-18.5 8.8l-22.1.3.1-52.8c15.4-.1 34.2-.1 49.6-.2l27.5 8.9c1 .3 2-.2 2.4-1.2.1-.2.1-.4.1-.6L504.2.1zm166.4 32.2C658.8 22 633.8.1 633.8.1h-64.6l-38.5 33.8-.1 161.4 38.6 33.8h64.7s25-22.3 36.9-32.5l-.2-164.3zm-77 147.2c-2.8-1.2-12.4-10.6-12.4-10.6V61.3l12.4-10.6h14.7l12.4 10.6v107.6s-9.6 9.4-12.4 10.6h-14.7zM849 32.3C837.2 22 812.2.1 812.2.1h-64.6L709 33.9l-.1 161.4 38.6 35.5 63 1.6s26.7-25.7 38.5-35.9V32.3zm-77 147.2c-2.8-1.2-12.4-10.6-12.4-10.6V61.3L772 50.6h14.7l12.4 10.7v107.6s-9.6 9.4-12.4 10.6H772zm252.1-142c-12.4-11.8-25.2-23.9-38.2-35.9L984.5.3h-2L886.2.2h-2.6c-1 0-1.9.8-1.9 1.9v.4c1 4.2 3 12.9 4.3 17.6V215c-1.3 4.7-3.5 13.7-4.5 17.8a2 2 0 0 0 1.4 2.3c.1 0 .2 0 .3.1l101.3 5.8s27.3-23.4 39.6-34.1l1.7-1.5-.2-166.4-1.5-1.5zm-68 151.1c-8.6-.5-20-1.2-20-1.2l-.2-137.6c12 .1 10.9.1 19.7.2l16.6 15.4.2 109.2-16.3 14zm156.4-118V59.2l11.9-9.4 47.1 3.1 25.8 8.8c1 .3 2.1-.2 2.4-1.2.1-.3.1-.6.1-.9l-7.5-51.3L1099 .4l-38.3 36.5.1 48.7 14.9 26.6 62.3 45.9 12.4 17.5v12.2s-14.6 13.6-14.6 13.8c0-.2-46-3.5-46-3.3l-25.9-10.8c-1-.4-2.1 0-2.5 1-.1.3-.2.6-.1.9l5.1 56.9 95.2 8.2 38.6-31.5v-64.7l-16.4-29.3-64.1-47-7.2-11.4z" fill="#5fb35f"/></svg>