<svg xmlns="http://www.w3.org/2000/svg" width="924.28" height="491.666" viewBox="0 0 924.28 491.666">
  <g id="Group_367" data-name="Group 367" transform="translate(-657 -198.334)">
    <g id="Group_3" data-name="Group 3" transform="translate(920.807 621.678)">
      <path id="Path_11" data-name="Path 11" d="M777.96,748.518v-8.3H769.57v8.3h-4.551V727.836h4.551v8.185h8.391v-8.185h4.551v20.682Z" transform="translate(-747.676 -727.482)" fill="#5fb35f"/>
      <path id="Path_12" data-name="Path 12" d="M796.472,748.518V727.836h15.6v4.048h-11.08v4.2h9.75v4.048h-9.75v4.343H812.22v4.048Z" transform="translate(-754.903 -727.482)" fill="#5fb35f"/>
      <path id="Path_13" data-name="Path 13" d="M839.337,748.474l-1.891-4.638H828.7l-1.891,4.638h-4.639l8.864-20.829h4.2l8.865,20.829Zm-6.263-15.364-2.748,6.707h5.5Z" transform="translate(-760.808 -727.438)" fill="#5fb35f"/>
      <path id="Path_14" data-name="Path 14" d="M857.076,748.518V727.836h4.551v16.546h10.312v4.136Z" transform="translate(-768.828 -727.482)" fill="#5fb35f"/>
      <path id="Path_15" data-name="Path 15" d="M888.21,732.031v16.487h-4.55V732.031h-6.294v-4.2H894.5v4.2Z" transform="translate(-773.49 -727.482)" fill="#5fb35f"/>
      <path id="Path_16" data-name="Path 16" d="M919.383,748.518v-8.3h-8.392v8.3h-4.55V727.836h4.55v8.185h8.392v-8.185h4.55v20.682Z" transform="translate(-780.171 -727.482)" fill="#5fb35f"/>
      <path id="Path_17" data-name="Path 17" d="M947.631,740.275v8.243h-4.55v-8.154l-7.948-12.528h5.318l4.934,8.3,5.023-8.3h5.171Z" transform="translate(-786.763 -727.482)" fill="#5fb35f"/>
      <path id="Path_18" data-name="Path 18" d="M996.333,748.474l-1.891-4.638H985.7l-1.891,4.638h-4.639l8.864-20.829h4.2l8.864,20.829Zm-6.264-15.364-2.747,6.707h5.5Z" transform="translate(-796.88 -727.438)" fill="#5fb35f"/>
      <path id="Path_19" data-name="Path 19" d="M1028.578,748.518l-10.016-13.148v13.148h-4.491V727.836h4.2l9.691,12.734V727.836h4.491v20.682Z" transform="translate(-804.9 -727.482)" fill="#5fb35f"/>
      <path id="Path_20" data-name="Path 20" d="M1054.741,748.518h-8.066V727.836h8.066c6.5,0,10.991,4.462,10.991,10.283v.059C1065.732,744,1061.242,748.518,1054.741,748.518Zm6.234-10.34a5.94,5.94,0,0,0-6.234-6.235h-3.515v12.469h3.515a5.893,5.893,0,0,0,6.234-6.175Z" transform="translate(-812.392 -727.482)" fill="#5fb35f"/>
      <path id="Path_21" data-name="Path 21" d="M1092.78,748.518V727.836h4.551v16.546h10.311v4.136Z" transform="translate(-822.985 -727.482)" fill="#5fb35f"/>
      <path id="Path_22" data-name="Path 22" d="M1127.063,748.767a10.6,10.6,0,0,1-10.962-10.636v-.059a11,11,0,0,1,21.983-.059v.059A10.694,10.694,0,0,1,1127.063,748.767Zm6.264-10.695a6.284,6.284,0,0,0-6.264-6.5,6.186,6.186,0,0,0-6.2,6.441v.059a6.284,6.284,0,0,0,6.264,6.5,6.185,6.185,0,0,0,6.2-6.441Z" transform="translate(-828.343 -727.376)" fill="#5fb35f"/>
      <path id="Path_23" data-name="Path 23" d="M1161.613,748.767a10.439,10.439,0,0,1-10.607-10.636v-.059a10.512,10.512,0,0,1,10.784-10.7,10.668,10.668,0,0,1,8.155,3.191l-2.9,3.339a7.63,7.63,0,0,0-5.288-2.335,6.128,6.128,0,0,0-6,6.441v.059c0,3.545,2.452,6.5,6,6.5a7.465,7.465,0,0,0,5.437-2.422l2.9,2.925A10.571,10.571,0,0,1,1161.613,748.767Z" transform="translate(-836.364 -727.376)" fill="#5fb35f"/>
      <path id="Path_24" data-name="Path 24" d="M1197.669,748.474l-1.892-4.638h-8.745l-1.891,4.638H1180.5l8.864-20.829h4.2l8.864,20.829Zm-6.264-15.364-2.747,6.707h5.5Z" transform="translate(-843.141 -727.438)" fill="#5fb35f"/>
      <path id="Path_25" data-name="Path 25" d="M1215.407,748.518V727.836h4.551v16.546h10.312v4.136Z" transform="translate(-851.161 -727.482)" fill="#5fb35f"/>
      <path id="Path_26" data-name="Path 26" d="M750.57,809.449H742.5V788.767h8.067c6.5,0,10.991,4.462,10.991,10.282v.059C761.561,804.929,757.07,809.449,750.57,809.449Zm6.234-10.341a5.94,5.94,0,0,0-6.234-6.234h-3.516v12.469h3.516a5.894,5.894,0,0,0,6.234-6.175Z" transform="translate(-742.503 -741.482)" fill="#5fb35f"/>
      <path id="Path_27" data-name="Path 27" d="M775.069,809.449V788.767h4.551v20.682Z" transform="translate(-749.986 -741.482)" fill="#5fb35f"/>
      <path id="Path_28" data-name="Path 28" d="M802.547,809.449l-4.432-6.619H794.54v6.619h-4.55V788.767h9.455c4.876,0,7.8,2.57,7.8,6.825v.059a6.424,6.424,0,0,1-4.433,6.411l5.053,7.387Zm.089-13.621c0-1.95-1.359-2.955-3.575-2.955H794.54v5.939h4.61c2.216,0,3.486-1.182,3.486-2.925Z" transform="translate(-753.414 -741.482)" fill="#5fb35f"/>
      <path id="Path_29" data-name="Path 29" d="M820.023,809.449V788.767h15.6v4.047h-11.08v4.2h9.75v4.048h-9.75V805.4h11.227v4.048Z" transform="translate(-760.315 -741.482)" fill="#5fb35f"/>
      <path id="Path_30" data-name="Path 30" d="M857.442,809.7a10.439,10.439,0,0,1-10.607-10.636V799a10.512,10.512,0,0,1,10.785-10.7,10.671,10.671,0,0,1,8.154,3.19l-2.9,3.339a7.63,7.63,0,0,0-5.289-2.334,6.128,6.128,0,0,0-6,6.441V799c0,3.545,2.452,6.5,6,6.5a7.467,7.467,0,0,0,5.437-2.423l2.9,2.925A10.572,10.572,0,0,1,857.442,809.7Z" transform="translate(-766.475 -741.376)" fill="#5fb35f"/>
      <path id="Path_31" data-name="Path 31" d="M887.558,792.962v16.487h-4.55V792.962h-6.294v-4.2h17.137v4.2Z" transform="translate(-773.34 -741.482)" fill="#5fb35f"/>
      <path id="Path_32" data-name="Path 32" d="M928.524,792.962v16.487h-4.551V792.962H917.68v-4.2h17.137v4.2Z" transform="translate(-782.753 -741.482)" fill="#5fb35f"/>
      <path id="Path_33" data-name="Path 33" d="M955.377,809.7a10.6,10.6,0,0,1-10.962-10.636V799a11,11,0,0,1,21.983-.059V799A10.7,10.7,0,0,1,955.377,809.7ZM961.64,799a6.283,6.283,0,0,0-6.263-6.5,6.185,6.185,0,0,0-6.2,6.441V799a6.284,6.284,0,0,0,6.264,6.5,6.185,6.185,0,0,0,6.2-6.441Z" transform="translate(-788.896 -741.376)" fill="#5fb35f"/>
      <path id="Path_34" data-name="Path 34" d="M1004.054,801.206v8.243H999.5v-8.155l-7.948-12.527h5.318l4.935,8.3,5.023-8.3H1012Z" transform="translate(-799.727 -741.482)" fill="#5fb35f"/>
      <path id="Path_35" data-name="Path 35" d="M1031.553,809.7a10.6,10.6,0,0,1-10.961-10.636V799a11,11,0,0,1,21.982-.059V799A10.7,10.7,0,0,1,1031.553,809.7Zm6.264-10.7a6.284,6.284,0,0,0-6.264-6.5,6.185,6.185,0,0,0-6.2,6.441V799a6.284,6.284,0,0,0,6.264,6.5,6.185,6.185,0,0,0,6.205-6.441Z" transform="translate(-806.399 -741.376)" fill="#5fb35f"/>
      <path id="Path_36" data-name="Path 36" d="M1065.216,809.774c-5.555,0-8.952-3.1-8.952-9.189V788.767h4.55v11.7c0,3.369,1.684,5.112,4.462,5.112s4.461-1.684,4.461-4.964V788.767h4.551v11.671C1074.287,806.7,1070.771,809.774,1065.216,809.774Z" transform="translate(-814.595 -741.482)" fill="#5fb35f"/>
      <path id="Path_37" data-name="Path 37" d="M1100.543,809.449l-4.432-6.619h-3.576v6.619h-4.551V788.767h9.455c4.875,0,7.8,2.57,7.8,6.825v.059a6.423,6.423,0,0,1-4.432,6.411l5.053,7.387Zm.089-13.621c0-1.95-1.359-2.955-3.575-2.955h-4.521v5.939h4.609c2.216,0,3.487-1.182,3.487-2.925Z" transform="translate(-821.883 -741.482)" fill="#5fb35f"/>
      <path id="Path_38" data-name="Path 38" d="M1139.894,809.449h-8.067V788.767h8.067c6.5,0,10.991,4.462,10.991,10.282v.059C1150.885,804.929,1146.394,809.449,1139.894,809.449Zm6.234-10.341a5.941,5.941,0,0,0-6.234-6.234h-3.516v12.469h3.516a5.894,5.894,0,0,0,6.234-6.175Z" transform="translate(-831.957 -741.482)" fill="#5fb35f"/>
      <path id="Path_39" data-name="Path 39" d="M1173.9,809.7a10.6,10.6,0,0,1-10.962-10.636V799a11,11,0,0,1,21.982-.059V799A10.694,10.694,0,0,1,1173.9,809.7Zm6.263-10.7a6.284,6.284,0,0,0-6.263-6.5,6.185,6.185,0,0,0-6.2,6.441V799a6.284,6.284,0,0,0,6.264,6.5,6.185,6.185,0,0,0,6.2-6.441Z" transform="translate(-839.104 -741.376)" fill="#5fb35f"/>
      <path id="Path_40" data-name="Path 40" d="M1208.8,809.7a10.6,10.6,0,0,1-10.961-10.636V799a11,11,0,0,1,21.983-.059V799A10.7,10.7,0,0,1,1208.8,809.7Zm6.264-10.7a6.284,6.284,0,0,0-6.264-6.5,6.185,6.185,0,0,0-6.2,6.441V799a6.284,6.284,0,0,0,6.264,6.5,6.185,6.185,0,0,0,6.2-6.441Z" transform="translate(-847.124 -741.376)" fill="#5fb35f"/>
      <path id="Path_41" data-name="Path 41" d="M1246.491,809.449l-4.432-6.619h-3.575v6.619h-4.55V788.767h9.455c4.876,0,7.8,2.57,7.8,6.825v.059a6.423,6.423,0,0,1-4.432,6.411l5.053,7.387Zm.089-13.621c0-1.95-1.359-2.955-3.576-2.955h-4.52v5.939h4.61c2.216,0,3.486-1.182,3.486-2.925Z" transform="translate(-855.418 -741.482)" fill="#5fb35f"/>
    </g>
    <g id="Group_366" data-name="Group 366">
      <g id="Group_4" data-name="Group 4" transform="translate(657 388.667)">
        <path id="Path_42" data-name="Path 42" d="M508.183,440.343c1.005-3.812,2.663-10.291,3.462-13.427a1.448,1.448,0,0,0-1.41-1.8l-40.362.033L400,553.018l20.08,30.789s33.36-2.785,49.74-4.043l-.01,22.846c-.987,3.877-2.523,10.113-3.3,13.26a1.448,1.448,0,0,0,1.53,1.787l42.271-3.474a1.447,1.447,0,0,0,1.274-1.858c-.86-2.861-2.587-8.661-3.572-12.346l.025-23.8,7.288-.659a1.453,1.453,0,0,0,1.314-1.3l2.962-28.582a1.452,1.452,0,0,0-1.539-1.6l-9.992.656Zm-38.262,48.623-.052,57.725c-6.971.592-18.208.936-27.259,1.562C442.61,548.253,462.441,508.648,469.921,488.966Z" transform="translate(-400 -424.915)" fill="#255b35"/>
        <path id="Path_43" data-name="Path 43" d="M675.673,424.856H586.7a1.45,1.45,0,0,0-1.413,1.789c.773,3.2,2.407,9.916,3.409,13.664L588.6,597.351c-.98,3.7-2.489,9.629-3.257,12.663a1.449,1.449,0,0,0,1.5,1.8l42.249-2.685a1.449,1.449,0,0,0,1.3-1.862c-.8-2.658-2.318-7.886-3.306-12.381l.427-53.828c14.1-.553,41.234-1.594,41.234-1.594L703.93,506.59l-.106-56.249Zm-22.827,81.186-26.049.4.071-42.941c7.547-.068,19.7-.135,27.246-.2l11.634,9.394-.042,22.357C666.123,495.37,653.286,506.544,652.845,506.042Z" transform="translate(-442.564 -424.856)" fill="#255b35"/>
        <path id="Path_44" data-name="Path 44" d="M872.162,424.96l-104.869.027a1.448,1.448,0,0,0-1.4,1.833c.889,3.21,2.726,9.847,3.722,13.417l-.178,148.579c-.989,3.555-3.448,10.149-4.714,13.478a1.447,1.447,0,0,0,1.408,1.96l48.968-1.635a1.451,1.451,0,0,0,1.259-2.083,96.674,96.674,0,0,1-5.435-13.256l.058-50.894c5.205-.1,11.905-.189,17.112-.276,3.693,1.025,10.645,4.624,14.145,6.5a1.448,1.448,0,0,0,2.13-1.283l.032-42.954a1.447,1.447,0,0,0-2.14-1.279c-3.532,1.93-10.551,5.647-14.253,6.784-5.167.065-11.827.136-16.993.21l.045-40.676c11.832-.056,26.337-.1,38.17-.145l21.151,6.837a1.451,1.451,0,0,0,1.9-1.386Z" transform="translate(-483.779 -424.88)" fill="#255b35"/>
        <path id="Path_45" data-name="Path 45" d="M1038.416,449.788c-9.1-7.978-28.377-24.839-28.377-24.839H960.277l-29.686,26.022-.068,124.311,29.728,26.008h49.8s19.3-17.185,28.393-25.057ZM979.069,563.15c-2.166-.937-9.526-8.133-9.526-8.133V472.065l9.561-8.205c5.06,0,6.282,0,11.342,0l9.556,8.192.011,82.9s-7.4,7.229-9.568,8.174C985.374,563.124,984.141,563.133,979.069,563.15Z" transform="translate(-521.897 -424.877)" fill="#255b35"/>
        <path id="Path_46" data-name="Path 46" d="M1216.82,449.788c-9.1-7.978-28.377-24.839-28.377-24.839h-49.762l-29.686,26.022-.067,124.311,29.728,27.352,48.536,1.262s20.558-19.792,29.656-27.664ZM1157.473,563.15c-2.166-.937-9.526-8.133-9.526-8.133V472.065l9.56-8.205c5.061,0,6.283,0,11.343,0l9.556,8.192.011,82.9s-7.4,7.229-9.567,8.174C1163.778,563.124,1162.546,563.133,1157.473,563.15Z" transform="translate(-562.888 -424.877)" fill="#255b35"/>
        <path id="Path_47" data-name="Path 47" d="M1391.31,453.763c-9.522-9.067-19.428-18.38-29.447-27.68l-1.1-1.025h-1.506c-27.276-.018-46.875-.032-74.153-.045h-1.988a1.449,1.449,0,0,0-1.416,1.777c.743,3.2,2.33,9.942,3.342,13.589V590.491c-1.013,3.628-2.7,10.525-3.48,13.711a1.451,1.451,0,0,0,1.329,1.791l78,4.456s21.013-17.991,30.462-26.258l1.312-1.148L1392.5,454.9Zm-52.415,116.4c-6.645-.381-15.448-.917-15.448-.917l-.172-106c9.24.059,8.382.121,15.2.184l12.793,11.881.135,84.079Z" transform="translate(-602.544 -424.892)" fill="#255b35"/>
        <path id="Path_48" data-name="Path 48" d="M1500.56,479.287l-.011-8.793,9.139-7.274L1546,465.646l19.857,6.776a1.453,1.453,0,0,0,1.906-1.585l-5.8-39.571-71.859-6.116-29.541,28.124.045,37.535,11.507,20.529,47.974,35.382,9.52,13.522.008,9.418s-11.228,10.49-11.228,10.607c.009-.117-35.425-2.657-35.435-2.54l-19.971-8.323a1.452,1.452,0,0,0-2.005,1.47l3.908,43.808,73.319,6.3,29.758-24.232V546.9l-12.647-22.584-49.4-36.22Z" transform="translate(-643.682 -424.923)" fill="#255b35"/>
      </g>
      <g id="Group_6" data-name="Group 6" transform="translate(1052.136 198.334)">
        <g id="Group_5" data-name="Group 5">
          <path id="Path_49" data-name="Path 49" d="M985.223,224.28h-8.731v40.239h-7.955a6.387,6.387,0,0,1-6.218-7.853l7.63-32.385h-8.97l-7.159,30.383a15.12,15.12,0,0,0,14.717,18.587h7.955v15.814h8.731V273.25H989.1v-8.731h-3.879Z" transform="translate(-922.291 -188.437)" fill="#5fb35f"/>
          <path id="Path_50" data-name="Path 50" d="M1031.326,224.28h-25.909v64.784h8.731V232.834h9.905l4.545,24.114a6.388,6.388,0,0,1-6.278,7.571h-3.807v8.731h3.807a15.118,15.118,0,0,0,14.858-17.92Z" transform="translate(-934.241 -188.437)" fill="#5fb35f"/>
          <path id="Path_51" data-name="Path 51" d="M980.011,177.745a67,67,0,1,0,67,67A67.08,67.08,0,0,0,980.011,177.745Zm0,125.278a58.273,58.273,0,1,1,58.274-58.274A58.339,58.339,0,0,1,980.011,303.023Z" transform="translate(-913.008 -177.745)" fill="#5fb35f"/>
        </g>
      </g>
    </g>
  </g>
</svg>
