<svg xmlns="http://www.w3.org/2000/svg" width="104.551" height="104.551" viewBox="0 0 104.551 104.551">
  <g id="Group_2" data-name="Group 2" transform="translate(5639.779 2542.781)">
    <path id="Path_8" data-name="Path 8" d="M-5589.66-2514.933h-6.758v34.6h-8.088a5.479,5.479,0,0,1-4.232-1.99,5.483,5.483,0,0,1-1.171-4.528l5.294-28.08h-6.877l-5.057,26.829a12.217,12.217,0,0,0,2.607,10.093,12.224,12.224,0,0,0,9.437,4.434h8.088v13.895h6.758v-13.895h3.888v-6.758h-3.888Z" transform="translate(-1.688 -2.042)" fill="#265c35"/>
    <path id="Path_9" data-name="Path 9" d="M-5557.631-2514.933h-21.5v55.251h6.758v-48.492h9.135l4.019,21.322a5.483,5.483,0,0,1-1.17,4.528,5.482,5.482,0,0,1-4.234,1.99h-3.862v6.758h3.862a12.222,12.222,0,0,0,9.438-4.434,12.217,12.217,0,0,0,2.608-10.093Z" transform="translate(-4.446 -2.042)" fill="#265c35"/>
    <path id="Path_10" data-name="Path 10" d="M-5550.539-2527.469a51.931,51.931,0,0,0-36.965-15.312,51.927,51.927,0,0,0-36.963,15.312,51.928,51.928,0,0,0-15.312,36.963,51.934,51.934,0,0,0,15.312,36.965,51.928,51.928,0,0,0,36.963,15.311,51.932,51.932,0,0,0,36.965-15.311,51.932,51.932,0,0,0,15.311-36.965A51.927,51.927,0,0,0-5550.539-2527.469Zm-4.779,69.149a45.219,45.219,0,0,1-32.186,13.331,45.22,45.22,0,0,1-32.185-13.331,45.219,45.219,0,0,1-13.332-32.186,45.185,45.185,0,0,1,8.479-26.469,46.147,46.147,0,0,1,4.853-5.716c.355-.355.716-.7,1.081-1.042a45.191,45.191,0,0,1,31.1-12.29,45.22,45.22,0,0,1,32.186,13.332,45.217,45.217,0,0,1,13.332,32.185A45.22,45.22,0,0,1-5555.318-2458.32Z" transform="translate(0 0)" fill="#265c35"/>
  </g>
</svg>
