<svg xmlns="http://www.w3.org/2000/svg" width="120.822" height="120.991" viewBox="0 0 120.822 120.991">
  <g id="Group_381" data-name="Group 381" transform="translate(-9041 -2280)">
    <g id="Group_202" data-name="Group 202" transform="translate(9713.385 1137.864)">
      <path id="Path_98" data-name="Path 98" d="M-617.785,1263.127a54.662,54.662,0,0,1-54.6-54.6,54.662,54.662,0,0,1,54.6-54.6,54.663,54.663,0,0,1,54.6,54.6A54.663,54.663,0,0,1-617.785,1263.127Zm0-100.2a45.652,45.652,0,0,0-45.6,45.6,45.652,45.652,0,0,0,45.6,45.6,45.653,45.653,0,0,0,45.6-45.6A45.652,45.652,0,0,0-617.785,1162.926Z" fill="#60b460"/>
    </g>
    <g id="Group_203" data-name="Group 203" transform="translate(9713.385 1137.864)">
      <path id="Path_99" data-name="Path 99" d="M-617.785,1239.054a30.563,30.563,0,0,1-30.527-30.528A30.562,30.562,0,0,1-617.785,1178a30.561,30.561,0,0,1,30.527,30.527A30.562,30.562,0,0,1-617.785,1239.054Zm0-52.055a21.551,21.551,0,0,0-21.527,21.527,21.552,21.552,0,0,0,21.527,21.528,21.552,21.552,0,0,0,21.527-21.528A21.551,21.551,0,0,0-617.785,1187Z" fill="#60b460"/>
    </g>
    <g id="Group_204" data-name="Group 204" transform="translate(9713.385 1137.864)">
      <path id="Path_100" data-name="Path 100" d="M-617.785,1212.026A3.489,3.489,0,0,1-620.26,1211a3.5,3.5,0,0,1,0-4.949l57.511-57.511a3.5,3.5,0,0,1,4.95,0,3.5,3.5,0,0,1,0,4.949L-615.31,1211A3.485,3.485,0,0,1-617.785,1212.026Z" fill="#60b460"/>
    </g>
    <g id="Group_205" data-name="Group 205" transform="translate(9713.385 1137.864)">
      <path id="Path_101" data-name="Path 101" d="M-555.063,1167.111h-17.975a3.5,3.5,0,0,1-3.5-3.5v-17.975a3.5,3.5,0,0,1,3.5-3.5,3.5,3.5,0,0,1,3.5,3.5v14.475h14.475a3.5,3.5,0,0,1,3.5,3.5A3.5,3.5,0,0,1-555.063,1167.111Z" fill="#60b460"/>
    </g>
  </g>
</svg>
