<svg xmlns="http://www.w3.org/2000/svg" width="109.233" height="109.211" viewBox="0 0 109.233 109.211">
  <g id="Group_384" data-name="Group 384" transform="translate(-9937 -2286)">
    <g id="Group_226" data-name="Group 226" transform="translate(10084.996 1158.239)">
      <path id="Path_117" data-name="Path 117" d="M-93.3,1236.972a54.909,54.909,0,0,1-12.8-1.516,4.5,4.5,0,0,1-3.329-5.424A4.5,4.5,0,0,1-104,1226.7a45.537,45.537,0,0,0,41.8-11.018,45.655,45.655,0,0,0,2.193-64.453,45.3,45.3,0,0,0-31.771-14.445,45.257,45.257,0,0,0-32.68,12.251,45.413,45.413,0,0,0-10.014,53.019,4.5,4.5,0,0,1-2.114,6,4.5,4.5,0,0,1-6-2.115,54.378,54.378,0,0,1,11.987-63.483,54.258,54.258,0,0,1,39.13-14.67,54.244,54.244,0,0,1,38.042,17.3,54.663,54.663,0,0,1-2.627,77.173A54.481,54.481,0,0,1-93.3,1236.972Z" fill="#60b460"/>
    </g>
    <g id="Group_227" data-name="Group 227" transform="translate(10084.996 1158.239)">
      <path id="Path_118" data-name="Path 118" d="M-105.049,1235.581a4.538,4.538,0,0,1-1.147-.148c-12.712-3.342-19.945-9.41-21.5-18.036-4.456-24.721,43.889-59.577,49.416-63.469A4.5,4.5,0,0,1-73,1154a4.5,4.5,0,0,1,1.571,5.046c-2.35,6.953-2.12,11.916-1.9,16.715.366,7.931.712,15.423-9.887,26.608-4.876,5.147-10.372,7.651-16.316,7.426-6.8-.25-12.438-4.14-15.737-7.054-2.813,4.874-4.24,9.371-3.575,13.061.88,4.877,5.9,8.552,14.93,10.925a4.5,4.5,0,0,1,3.208,5.5A4.5,4.5,0,0,1-105.049,1235.581Zm-5.076-40.338c2.048,1.985,6.244,5.4,10.967,5.561,3.279.084,6.364-1.4,9.415-4.623,7.965-8.407,7.752-13.02,7.43-20a70.691,70.691,0,0,1-.046-7.928C-92.2,1176.082-102.854,1185.93-110.125,1195.243Z" fill="#60b460"/>
    </g>
    <g id="Group_228" data-name="Group 228" transform="translate(10084.996 1158.239)">
      <path id="Path_119" data-name="Path 119" d="M-122.643,1188.5a4.5,4.5,0,0,1-4.451-3.876c-.946-6.751,2.353-16,7.354-20.623,8.073-7.459,15.939-8.108,26.826-9.007,4.689-.387,10-.826,16.542-1.832a4.5,4.5,0,0,1,5.132,3.763A4.5,4.5,0,0,1-75,1162.054c-6.852,1.054-12.573,1.527-17.17,1.906-10.429.861-15.664,1.294-21.459,6.648-2.542,2.349-5.138,8.566-4.549,12.763a4.5,4.5,0,0,1-3.832,5.081A4.477,4.477,0,0,1-122.643,1188.5Z" fill="#60b460"/>
    </g>
  </g>
</svg>
