<svg xmlns="http://www.w3.org/2000/svg" width="112.67" height="109.2" viewBox="0 0 112.67 109.2">
  <g id="Group_383" data-name="Group 383" transform="translate(-9632 -2286)">
    <g id="Group_221" data-name="Group 221" transform="translate(9949.05 1151.39)">
      <path id="Path_112" data-name="Path 112" d="M-230.28,1142.78c-.01-.01-.01-.02-.02-.02-.22-.13-.43-.26-.65-.39a54.224,54.224,0,0,0-28.03-7.76,54.259,54.259,0,0,0-31.2,9.82c-1.36.94-2.68,1.95-3.94,3.02-1.33,1.11-2.6,2.3-3.82,3.54a8.76,8.76,0,0,1,6.88,5.84,44.244,44.244,0,0,1,3.54-3.17,43.324,43.324,0,0,1,3.67-2.66,45.373,45.373,0,0,1,24.87-7.39,45.2,45.2,0,0,1,15,2.54,44.7,44.7,0,0,1,10.58,5.33,45.581,45.581,0,0,1,20.02,37.73,45.252,45.252,0,0,1-4.29,19.28,45.484,45.484,0,0,1-4.65,7.81,45.561,45.561,0,0,1-36.66,18.51,45.334,45.334,0,0,1-12.18-1.65,45.283,45.283,0,0,1-8.39-3.25,46,46,0,0,1-17.37-15.41,45.127,45.127,0,0,1-4.3-8.1,45.327,45.327,0,0,1-3.37-17.19,45.087,45.087,0,0,1,1.68-12.26,41.891,41.891,0,0,1,1.44-4.31,44.412,44.412,0,0,1,1.96-4.33,8.719,8.719,0,0,1-7.62-4.83,51.908,51.908,0,0,0-2.24,4.7q-.96,2.28-1.71,4.66a54.359,54.359,0,0,0-2.51,16.37,54.206,54.206,0,0,0,5.87,24.59,4.661,4.661,0,0,0,.32.63,54.9,54.9,0,0,0,28.49,25.61c.01.01.03.01.04.02a3.607,3.607,0,0,0,.46.17,54.064,54.064,0,0,0,19.43,3.58,54.638,54.638,0,0,0,47.81-28.26,1.711,1.711,0,0,0,.13-.23.386.386,0,0,0,.06-.11,54.2,54.2,0,0,0,6.6-26A54.606,54.606,0,0,0-230.28,1142.78Z" fill="#60b460"/>
    </g>
    <g id="Group_222" data-name="Group 222" transform="translate(9949.05 1151.39)">
      <path id="Path_113" data-name="Path 113" d="M-211.16,1210.95a4.516,4.516,0,0,0-5.19-2,7.813,7.813,0,0,1-1.32-.46,52.75,52.75,0,0,1-11.8-7.35c.56-.8,1.39-1.81,1.96-2.51,2.11-2.6,4.12-5.05,4.51-7.88.36-2.58-.74-5.29-3.1-7.64-3.79-3.76-11.72-7.22-22.67-5.69a11.521,11.521,0,0,1-5.05-3.95,9.206,9.206,0,0,1-2.15-6.59c.8-6.14,6.04-8.55,16.86-13.01,1.84-.76,3.74-1.53,5.71-2.39.75-.32,1.5-.65,2.27-1a4.5,4.5,0,0,0,2.26-5.95,4.364,4.364,0,0,0-1.41-1.75c-.01-.01-.01-.02-.02-.02-.22-.13-.43-.26-.65-.39a4.48,4.48,0,0,0-3.87-.1c-2.68,1.21-5.24,2.26-7.71,3.28-.49.2-.97.4-1.45.6-10.57,4.36-19.47,8.48-20.92,19.56-.71,5.44,1.5,11.13,6.05,15.61,1.38,1.36,6.25,5.75,11.15,5.04,9.17-1.34,14.33,1.93,15.57,3.46a36.129,36.129,0,0,1-2.36,3.13c-2.8,3.43-6.29,7.71-3.56,12.01,1.71,2.68,7.42,6.62,10.53,8.53a45.268,45.268,0,0,0,5.2,2.81,15.438,15.438,0,0,0,6.29,1.72,6.193,6.193,0,0,0,3.31-.9,4.315,4.315,0,0,0,1.55-1.57,1.711,1.711,0,0,0,.13-.23.386.386,0,0,0,.06-.11A4.485,4.485,0,0,0-211.16,1210.95Z" fill="#60b460"/>
    </g>
    <g id="Group_223" data-name="Group 223" transform="translate(9949.05 1151.39)">
      <path id="Path_114" data-name="Path 114" d="M-277.052,1240.445a4.5,4.5,0,0,1-1.818-.385,4.5,4.5,0,0,1-2.3-5.936c3.107-7.058,5.6-18.357,1.976-20.316-6.054-3.275-18.689.733-22.638,2.393a4.5,4.5,0,0,1-5.893-2.4,4.5,4.5,0,0,1,2.4-5.893c1.965-.827,19.509-7.9,30.407-2.016,12.608,6.815,3.1,29.33,1.976,31.875A4.5,4.5,0,0,1-277.052,1240.445Z" fill="#60b460"/>
    </g>
    <g id="Group_224" data-name="Group 224" transform="translate(9949.05 1151.39)">
      <path id="Path_115" data-name="Path 115" d="M-287.52,1153.66a13.218,13.218,0,0,0-6.6-6.21,13.12,13.12,0,0,0-5.21-1.07,13.222,13.222,0,0,0-13.22,13.22,13.058,13.058,0,0,0,3.18,8.58,13.2,13.2,0,0,0,7.9,4.46,13.637,13.637,0,0,0,2.14.17,13.213,13.213,0,0,0,13.22-13.21A13.164,13.164,0,0,0-287.52,1153.66Zm-11.81,14.65h-.18a8.719,8.719,0,0,1-7.62-4.83,8.6,8.6,0,0,1-.92-3.88,8.728,8.728,0,0,1,8.72-8.72,9.1,9.1,0,0,1,1.39.11,8.76,8.76,0,0,1,6.88,5.84,8.739,8.739,0,0,1,.45,2.77A8.726,8.726,0,0,1-299.33,1168.31Z" fill="#60b460"/>
      <path id="Path_116" data-name="Path 116" d="M-283.85,1151a17.811,17.811,0,0,0-6.33-6.57,17.576,17.576,0,0,0-9.15-2.55,17.741,17.741,0,0,0-17.72,17.72,17.651,17.651,0,0,0,5.97,13.24,17.757,17.757,0,0,0,8.17,4.11,18.332,18.332,0,0,0,3.58.36,17.733,17.733,0,0,0,17.72-17.71A17.517,17.517,0,0,0-283.85,1151Zm-6.76,8.6a8.726,8.726,0,0,1-8.72,8.71h-.18a8.719,8.719,0,0,1-7.62-4.83,8.6,8.6,0,0,1-.92-3.88,8.728,8.728,0,0,1,8.72-8.72,9.1,9.1,0,0,1,1.39.11,8.76,8.76,0,0,1,6.88,5.84A8.739,8.739,0,0,1-290.61,1159.6Z" fill="#60b460"/>
    </g>
  </g>
</svg>
