<svg xmlns="http://www.w3.org/2000/svg" width="109.201" height="103.802" viewBox="0 0 109.201 103.802">
  <g id="Group_382" data-name="Group 382" transform="translate(-9347 -2289)">
    <g id="Group_207" data-name="Group 207" transform="translate(9839.985 1147.864)">
      <path id="Path_102" data-name="Path 102" d="M-461.174,1244.868a4.477,4.477,0,0,1-2.046-.495,54.409,54.409,0,0,1-29.765-48.637,54.662,54.662,0,0,1,54.6-54.6,54.663,54.663,0,0,1,54.6,54.6,54.424,54.424,0,0,1-29.71,48.61,4.5,4.5,0,0,1-6.058-1.95,4.5,4.5,0,0,1,1.95-6.058,45.458,45.458,0,0,0,24.818-40.6,45.652,45.652,0,0,0-45.6-45.6,45.652,45.652,0,0,0-45.6,45.6,45.448,45.448,0,0,0,24.863,40.625,4.5,4.5,0,0,1,1.957,6.056A4.5,4.5,0,0,1-461.174,1244.868Z" fill="#60b460"/>
    </g>
    <g id="Group_211" data-name="Group 211" transform="translate(9839.985 1147.864)">
      <g id="Group_208" data-name="Group 208">
        <path id="Path_103" data-name="Path 103" d="M-461.047,1244.927a4.5,4.5,0,0,1-4.5-4.5v-13.31a15.748,15.748,0,0,1,15.73-15.73h1.91a4.5,4.5,0,0,1,4.5,4.5,4.5,4.5,0,0,1-4.5,4.5h-1.91a6.738,6.738,0,0,0-6.73,6.73v13.31A4.5,4.5,0,0,1-461.047,1244.927Z" fill="#60b460"/>
      </g>
      <g id="Group_209" data-name="Group 209">
        <path id="Path_104" data-name="Path 104" d="M-415.727,1244.938a4.5,4.5,0,0,1-4.5-4.5v-13.321a6.738,6.738,0,0,0-6.73-6.73h-1.91a4.5,4.5,0,0,1-4.5-4.5,4.5,4.5,0,0,1,4.5-4.5h1.91a15.748,15.748,0,0,1,15.73,15.73v13.321A4.5,4.5,0,0,1-415.727,1244.938Z" fill="#60b460"/>
      </g>
      <g id="Group_210" data-name="Group 210">
        <path id="Path_105" data-name="Path 105" d="M-428.867,1220.387c-4.06,0-5.526-2.4-5.967-3.427-1.306-3.045.554-5.835,1.728-7.185a4.512,4.512,0,0,1,.6-.636,8.779,8.779,0,0,0,2.963-6.592,8.85,8.85,0,0,0-8.84-8.84,8.85,8.85,0,0,0-8.84,8.84,8.779,8.779,0,0,0,2.963,6.592,4.5,4.5,0,0,1,.6.643c1.175,1.352,3.026,4.137,1.723,7.178-.441,1.03-1.907,3.427-5.967,3.427a4.5,4.5,0,0,1-4.5-4.5,4.482,4.482,0,0,1,.389-1.834,17.807,17.807,0,0,1-4.209-11.506,17.86,17.86,0,0,1,17.84-17.84,17.86,17.86,0,0,1,17.84,17.84,17.8,17.8,0,0,1-4.24,11.541,4.412,4.412,0,0,1,.38,1.8A4.467,4.467,0,0,1-428.867,1220.387Z" fill="#60b460"/>
      </g>
    </g>
    <g id="Group_215" data-name="Group 215" transform="translate(9839.985 1147.864)">
      <g id="Group_212" data-name="Group 212">
        <path id="Path_106" data-name="Path 106" d="M-482.2,1222.462a3.5,3.5,0,0,1-3.5-3.5v-7.493a9.834,9.834,0,0,1,9.822-9.823h1.075a3.5,3.5,0,0,1,3.5,3.5,3.5,3.5,0,0,1-3.5,3.5h-1.075a2.825,2.825,0,0,0-2.822,2.823v7.493A3.5,3.5,0,0,1-482.2,1222.462Z" fill="#60b460"/>
      </g>
      <g id="Group_213" data-name="Group 213">
        <path id="Path_107" data-name="Path 107" d="M-456.691,1222.467a3.5,3.5,0,0,1-3.5-3.5v-7.5a2.825,2.825,0,0,0-2.822-2.823h-1.075a3.5,3.5,0,0,1-3.5-3.5,3.5,3.5,0,0,1,3.5-3.5h1.075a9.834,9.834,0,0,1,9.822,9.823v7.5A3.5,3.5,0,0,1-456.691,1222.467Z" fill="#60b460"/>
      </g>
      <g id="Group_214" data-name="Group 214">
        <path id="Path_108" data-name="Path 108" d="M-464.088,1208.646a4.285,4.285,0,0,1-4.247-2.514,4.78,4.78,0,0,1,1.119-5.047,3.563,3.563,0,0,1,.439-.464,3.972,3.972,0,0,0,1.339-2.984,4.014,4.014,0,0,0-4.009-4.01,4.015,4.015,0,0,0-4.01,4.01,3.972,3.972,0,0,0,1.339,2.984,3.543,3.543,0,0,1,.442.468,4.778,4.778,0,0,1,1.117,5.043,4.286,4.286,0,0,1-4.248,2.514,3.5,3.5,0,0,1-3.5-3.5,3.555,3.555,0,0,1,.1-.838,11,11,0,0,1-2.251-6.671,11.022,11.022,0,0,1,11.01-11.01,11.022,11.022,0,0,1,11.009,11.01,10.99,10.99,0,0,1-2.27,6.694,3.457,3.457,0,0,1,.1.838A3.48,3.48,0,0,1-464.088,1208.646Zm-12.89-2.984.012.02,0-.012Zm2.171-1.984v0Z" fill="#60b460"/>
      </g>
    </g>
    <g id="Group_219" data-name="Group 219" transform="translate(9839.985 1147.864)">
      <g id="Group_216" data-name="Group 216">
        <path id="Path_109" data-name="Path 109" d="M-420.21,1222.462a3.5,3.5,0,0,1-3.5-3.5v-7.493a9.834,9.834,0,0,1,9.822-9.823h1.075a3.5,3.5,0,0,1,3.5,3.5,3.5,3.5,0,0,1-3.5,3.5h-1.075a2.825,2.825,0,0,0-2.822,2.823v7.493A3.5,3.5,0,0,1-420.21,1222.462Z" fill="#60b460"/>
      </g>
      <g id="Group_217" data-name="Group 217">
        <path id="Path_110" data-name="Path 110" d="M-394.7,1222.467a3.5,3.5,0,0,1-3.5-3.5v-7.5a2.825,2.825,0,0,0-2.822-2.823h-1.075a3.5,3.5,0,0,1-3.5-3.5,3.5,3.5,0,0,1,3.5-3.5h1.075a9.834,9.834,0,0,1,9.822,9.823v7.5A3.5,3.5,0,0,1-394.7,1222.467Z" fill="#60b460"/>
      </g>
      <g id="Group_218" data-name="Group 218">
        <path id="Path_111" data-name="Path 111" d="M-402.094,1208.646a4.286,4.286,0,0,1-4.248-2.514,4.782,4.782,0,0,1,1.12-5.047,3.49,3.49,0,0,1,.439-.464,3.973,3.973,0,0,0,1.34-2.984,4.015,4.015,0,0,0-4.01-4.01,4.015,4.015,0,0,0-4.01,4.01,3.972,3.972,0,0,0,1.339,2.984,3.54,3.54,0,0,1,.442.468,4.778,4.778,0,0,1,1.117,5.043,4.286,4.286,0,0,1-4.248,2.514,3.5,3.5,0,0,1-3.5-3.5,3.5,3.5,0,0,1,.1-.838,10.99,10.99,0,0,1-2.252-6.671,11.022,11.022,0,0,1,11.01-11.01,11.022,11.022,0,0,1,11.01,11.01,10.994,10.994,0,0,1-2.27,6.694,3.456,3.456,0,0,1,.1.838A3.479,3.479,0,0,1-402.094,1208.646Zm-12.89-2.984.012.02,0-.012Zm2.171-1.984v0Z" fill="#60b460"/>
      </g>
    </g>
  </g>
</svg>
