<svg xmlns="http://www.w3.org/2000/svg" width="145.486" height="99.613" viewBox="0 0 145.486 99.613">
  <g id="Group_308" data-name="Group 308" transform="translate(0 0)">
    <path id="Path_157" data-name="Path 157" d="M3030.672-2939.293h-13.423c.274-.2.455-.322.63-.455a2.115,2.115,0,0,0,.853-2.675c-.492-1.381-1.064-2.735-1.619-4.094-.711-1.742-1.444-3.476-2.156-5.219a.46.46,0,0,0-.5-.342q-8.006.013-16.013,0c-.213,0-.375.015-.473.257-1.184,2.89-2.382,5.773-3.562,8.665a8.9,8.9,0,0,0-.359,1.227,1.943,1.943,0,0,0,.928,2.236c.165.111.339.21.589.364h-8.9c.308-.233.569-.432.833-.629a7.165,7.165,0,0,0,2.327-2.912c2.116-4.83,4.246-9.654,6.336-14.5q6.285-14.559,12.536-29.134c.046-.107.1-.211.181-.369.532,1.225,1.041,2.4,1.552,3.571q8.831,20.266,17.66,40.532a5.785,5.785,0,0,0,2.232,2.809c.112.068.234.119.351.178Zm-17.432-16.294-6.96-16.713-6.809,16.713Z" transform="translate(-2885.186 2986.865)" fill="#a7a9ac"/>
    <path id="Path_158" data-name="Path 158" d="M2672.918-2680.508h-142.8v-.449q0-10.273-.006-20.546c0-.318.076-.458.359-.567a268.176,268.176,0,0,1,28.407-9.132q10.394-2.748,20.92-4.792,6.953-1.339,13.937-2.482c3.734-.616,7.48-1.133,11.228-1.64q5.1-.689,10.212-1.256,4.607-.516,9.224-.912c4.31-.37,8.621-.727,12.936-1.01,3.917-.257,7.838-.474,11.759-.591,6.042-.181,12.086-.276,18.129-.377,1.78-.03,3.561.04,5.342.065.107,0,.214.014.349.024Z" transform="translate(-2528.576 2780.12)" fill="#a7a9ac"/>
    <path id="Path_159" data-name="Path 159" d="M2823.765-2981.5h8.041c3.572,0,7.145-.032,10.716.011a31.806,31.806,0,0,1,12.652,2.48,21.254,21.254,0,0,1,12.977,16.117c1.554,8.068-1.006,14.965-6.89,20.606a25.181,25.181,0,0,1-12.532,6.258,36.613,36.613,0,0,1-7.724.751q-8.308-.014-16.616,0h-.475c.014-.07.01-.106.025-.117a3.579,3.579,0,0,0,1.51-3.144q-.018-19.762,0-39.525A3.619,3.619,0,0,0,2823.765-2981.5Zm10.243,23.1q0,9.551,0,19.1c0,.562,0,.563.575.563,1.579,0,3.158.008,4.736,0a27.717,27.717,0,0,0,6.831-.787,15.852,15.852,0,0,0,11.208-9.459,23.978,23.978,0,0,0,1.743-7.413,23.405,23.405,0,0,0-.759-8.77,17.525,17.525,0,0,0-6.736-9.777,18.589,18.589,0,0,0-10.54-3.2c-2.152-.049-4.306.035-6.46.068-.6.01-.6.024-.6.615Z" transform="translate(-2758.084 2982.858)" fill="#a7a9ac"/>
    <path id="Path_160" data-name="Path 160" d="M2675.63-2771.6v6.605c-.544,0-1.072,0-1.6,0-5.786-.025-11.572-.1-17.358-.06-4.018.028-8.037.173-12.052.343-3.688.156-7.375.38-11.058.64-3.5.247-7,.532-10.5.885-4.264.431-8.528.885-12.779,1.448-4.8.636-9.6,1.318-14.379,2.14q-8.58,1.476-17.12,3.236-13.49,2.8-26.73,6.83c-6.084,1.844-12.123,3.855-18.055,6.235a.341.341,0,0,1-.262.015c.184-.109.365-.22.549-.325a151.48,151.48,0,0,1,22.055-10.195,224.05,224.05,0,0,1,23.66-7.3c6.082-1.538,12.2-2.884,18.355-3.988q6.927-1.241,13.884-2.271c4.051-.6,8.113-1.118,12.179-1.58,3.947-.449,7.9-.82,11.858-1.155,3.764-.319,7.533-.573,11.3-.809q11.914-.747,23.846-.733c1.271,0,2.542.015,3.813.025C2675.362-2771.618,2675.48-2771.607,2675.63-2771.6Z" transform="translate(-2531.289 2818.997)" fill="#a7a9ac"/>
    <path id="Path_161" data-name="Path 161" d="M2554.5-2981.41h7.511c-.037.051-.052.089-.08.107a3.291,3.291,0,0,0-1.5,2.936q-.05,7.382-.091,14.765-.043,6.52-.1,13.039a21.355,21.355,0,0,1-1.032,6.861,12.647,12.647,0,0,1-8.944,8.386,22.458,22.458,0,0,1-7.54.76,22.825,22.825,0,0,1-7.673-1.654,13.623,13.623,0,0,1-8.431-9.245,18.368,18.368,0,0,1-.585-4.879c0-9.108-.028-18.217.021-27.324a3.732,3.732,0,0,0-2.063-3.734h12.676c-.129.09-.231.164-.335.233a3.326,3.326,0,0,0-1.581,2.932q.006,14.164.007,28.328a15.467,15.467,0,0,0,.919,5.582,8.553,8.553,0,0,0,6.311,5.606,13.962,13.962,0,0,0,7.672-.276,9,9,0,0,0,5.969-6.271,17.331,17.331,0,0,0,.72-5.339q-.048-11.335-.11-22.669c-.009-1.6-.058-3.21-.027-4.814A3.507,3.507,0,0,0,2554.5-2981.41Z" transform="translate(-2523.995 2982.782)" fill="#a7a9ac"/>
    <path id="Path_162" data-name="Path 162" d="M2689.187-2951.075c.269.7.515,1.433.828,2.139a15.138,15.138,0,0,0,5.654,6.962,10.756,10.756,0,0,0,9.493,1.169,7.355,7.355,0,0,0,5.091-6.019,7.489,7.489,0,0,0-1.125-5.972,9.309,9.309,0,0,0-3.555-2.872c-1.956-.984-3.954-1.883-5.919-2.85a25.4,25.4,0,0,1-6.927-4.72,10.974,10.974,0,0,1-3.312-6.566,11.877,11.877,0,0,1,6.222-12.4,17.418,17.418,0,0,1,10.277-2.123,22.352,22.352,0,0,1,7.6,1.942,1.375,1.375,0,0,1,.913,1.447c.026,2.727.15,5.453.237,8.179,0,.106,0,.212,0,.436-.1-.233-.156-.365-.211-.5a12.4,12.4,0,0,0-7.794-7.6,9.419,9.419,0,0,0-6.6.1,6.433,6.433,0,0,0-3.918,6.628,5.925,5.925,0,0,0,2.32,4.185,25.967,25.967,0,0,0,5.132,2.947c2.5,1.2,5.031,2.359,7.5,3.624a13.926,13.926,0,0,1,5.058,4.178,11.7,11.7,0,0,1,2.1,5.679,14.473,14.473,0,0,1-.507,6.182,13.849,13.849,0,0,1-6.7,7.967,17.816,17.816,0,0,1-9.963,2.139,29.5,29.5,0,0,1-11.213-3.024.6.6,0,0,1-.394-.609c-.051-2.032-.114-4.063-.173-6.095C2689.271-2948.05,2689.229-2949.573,2689.187-2951.075Z" transform="translate(-2652.354 2985.027)" fill="#a7a9ac"/>
    <path id="Path_163" data-name="Path 163" d="M2530.173-2765.088v-6.063c1.224,0,2.425-.039,3.623.008,2.378.094,4.756.209,7.13.367q3.881.257,7.755.613c2.395.22,4.79.458,7.175.768,2.861.371,5.715.8,8.564,1.254a117.178,117.178,0,0,1,13.649,2.985c1.847.528,3.664,1.159,5.494,1.746a.426.426,0,0,1,.239.166c-.535-.037-1.071-.074-1.606-.113-3.28-.237-6.559-.488-9.84-.708-3.7-.247-7.391-.493-11.09-.687-3.9-.2-7.8-.393-11.7-.5s-7.836-.171-11.753-.153C2535.273-2765.4,2532.738-2765.2,2530.173-2765.088Z" transform="translate(-2528.619 2819.991)" fill="#a7a9ac"/>
    <path id="Path_164" data-name="Path 164" d="M2530.159-2723.09v-6.232c12.622-.414,25.223-.683,37.815.383-1.755.22-3.511.436-5.266.663-2.743.354-5.487.707-8.228,1.079-2.78.377-5.56.758-8.335,1.17-4.809.715-9.627,1.384-14.37,2.482C2531.233-2723.419,2530.7-2723.244,2530.159-2723.09Z" transform="translate(-2528.608 2787.983)" fill="#a7a9ac"/>
  </g>
</svg>
