<svg id="pbw4oj.tif" xmlns="http://www.w3.org/2000/svg" width="133.446" height="61.683" viewBox="0 0 133.446 61.683">
  <g id="Group_103" data-name="Group 103" transform="translate(0 0)">
    <path id="Path_60" data-name="Path 60" d="M790.04-302.9a.785.785,0,0,0,.2.113c.742.146,1.487.273,2.226.428.515.108,1.021.251,1.531.38a.287.287,0,0,1,.223.314c.007.3.02.593.028.889.037,1.4.064,2.8.112,4.2.042,1.243.082,2.486.17,3.726q.125,1.76.354,3.512c.115.888.279,1.771.465,2.648a27.754,27.754,0,0,0,.692,2.772c.37,1.139.792,2.266,1.269,3.364a19.24,19.24,0,0,0,2.474,4.114,19.807,19.807,0,0,0,4.663,4.336c.648.435.556.2.557,1.033q0,9.5,0,18.992c0,.025,0,.05,0,.074,0,1.125.107.86-.729,1.648a26.868,26.868,0,0,1-4.989,3.692,27.545,27.545,0,0,1-5.23,2.4c-1.013.33-2.039.633-3.076.88-.941.224-1.9.379-2.86.524a29.453,29.453,0,0,1-6.606.18,33,33,0,0,1-3.668-.489c-1.119-.212-2.221-.53-3.321-.835a26.328,26.328,0,0,1-4.8-1.915,27.884,27.884,0,0,1-5.779-3.843c-.236-.2-.456-.428-.688-.637a1.166,1.166,0,0,0-.182-.113v-21.27a1.233,1.233,0,0,0,.2-.087,20.476,20.476,0,0,0,3.061-2.406,19.913,19.913,0,0,0,3-3.654,21.108,21.108,0,0,0,2.3-4.809c.354-1.091.7-2.19.958-3.307.272-1.184.448-2.391.633-3.593.1-.657.145-1.325.2-1.989.077-.926.164-1.853.2-2.78.053-1.225.059-2.452.1-3.678.034-1.1.087-2.2.128-3.305.018-.493.014-.493.474-.633.024-.007.046-.019.07-.025.606-.148,1.209-.309,1.819-.439.546-.116,1.1-.193,1.649-.3a1.019,1.019,0,0,0,.238-.114h.346c.028.558.052,1.116.084,1.674.083,1.462.172,2.923.254,4.385q.107,1.911.2,3.822c.01.2.115.268.3.268q4.734,0,9.469,0c.185,0,.264-.061.276-.255.063-1.034.139-2.068.2-3.1.028-.436.034-.873.061-1.308q.108-1.761.226-3.521c.044-.656.1-1.311.15-1.966Z" transform="translate(-763.081 302.902)" fill="#a7a9ac"/>
    <path id="Path_61" data-name="Path 61" d="M945.922-184.71a1.006,1.006,0,0,1-.149-.743q0-11.771,0-23.541c0-.3.12-.46.392-.457.617.008,1.235.012,1.849.062a2.816,2.816,0,0,1,2.143,1.337c.161.236.219.248.413.059a5.916,5.916,0,0,1,2.56-1.472,6.182,6.182,0,0,1,3.65-.01,4.961,4.961,0,0,1,2.44,1.809,8.555,8.555,0,0,1,1.432,3.246,15.942,15.942,0,0,1,.348,4.663,9.935,9.935,0,0,1-1.876,5.475,6.137,6.137,0,0,1-2.786,2.132,5.951,5.951,0,0,1-2.835.349,8.009,8.009,0,0,1-2.142-.537c-.275-.114-.354-.049-.353.252,0,1.385.013,2.77,0,4.154a5,5,0,0,1-.29,1.941,1.84,1.84,0,0,1-1.352,1.145,1.332,1.332,0,0,0-.276.136Zm5.087-15.6c0,1.17,0,2.34,0,3.51a.4.4,0,0,0,.257.428,10.994,10.994,0,0,0,1.314.551,1.793,1.793,0,0,0,2.033-.559,4.633,4.633,0,0,0,.829-2.187,15.655,15.655,0,0,0,.138-3.031,6.763,6.763,0,0,0-.521-2.745,1.666,1.666,0,0,0-1.788-1.1,3.136,3.136,0,0,0-2.152,1.258.716.716,0,0,0-.1.419C951-202.618,951.008-201.465,951.008-200.311Z" transform="translate(-873.9 246.393)" fill="#a7a9ac"/>
    <path id="Path_62" data-name="Path 62" d="M908.282-285.856l.535.264a6.066,6.066,0,0,1,2.722,2.764,6.616,6.616,0,0,1,.717,3.774,6.213,6.213,0,0,1-1.363,3.583,6.168,6.168,0,0,1-2.449,1.7,11.762,11.762,0,0,1-4.469.776c-1.566-.008-3.132,0-4.7-.023-1.3-.018-2.6-.069-3.9-.107-.245-.007-.354-.116-.361-.371-.008-.288,0-.577,0-.865q0-10.893,0-21.787c0-.441.079-.516.516-.523,1.762-.03,3.524-.074,5.286-.093,1.243-.013,2.49-.045,3.73.02a8.519,8.519,0,0,1,4.244,1.3,4.915,4.915,0,0,1,2.124,2.838,6.668,6.668,0,0,1,.207,2.883,4.8,4.8,0,0,1-1.518,2.845C909.2-286.51,908.737-286.207,908.282-285.856Zm-7.825,5.693h0q0,1.532,0,3.065c0,.171.01.31.246.3a26,26,0,0,0,3.477-.111,3.16,3.16,0,0,0,1.655-.751,2.927,2.927,0,0,0,.915-1.99,3.838,3.838,0,0,0-.566-2.549,3.093,3.093,0,0,0-2.675-1.321c-.905-.035-1.813,0-2.719,0-.307,0-.326.014-.327.318C900.455-282.19,900.456-281.177,900.456-280.163Zm0-10.036h0c0,.84,0,1.68,0,2.52,0,.2.057.306.282.3,1-.036,2.008-.025,3.006-.107a2.033,2.033,0,0,0,1.581-.931,3.159,3.159,0,0,0,.343-2.854,2.014,2.014,0,0,0-1.386-1.426,8.013,8.013,0,0,0-1.576-.237c-.64-.04-1.285-.005-1.927-.015-.307,0-.319-.011-.321.305C900.454-291.829,900.456-291.014,900.456-290.2Z" transform="translate(-843.108 299.191)" fill="#a7a9ac"/>
    <path id="Path_63" data-name="Path 63" d="M899.9-225.078c.907.064,1.8.148,2.7.183.536.021.578.421.695.777q.434,1.322.856,2.647c.231.72.453,1.441.683,2.161s.473,1.452.705,2.18.46,1.456.692,2.183c.185.578.375,1.154.562,1.732q.349,1.078.7,2.156.41,1.279.815,2.558c.2.617.393,1.235.592,1.851.227.7.46,1.4.687,2.107q.359,1.114.713,2.229c0,.008,0,.016.005.024.151.582.155.59-.4.814a5.813,5.813,0,0,1-2.594.355c-.343-.022-.685-.079-1.025-.135a2.122,2.122,0,0,1-1.669-1.355c-.308-.731-.538-1.5-.788-2.251-.142-.429-.259-.866-.383-1.3-.05-.177-.186-.186-.332-.185q-2.645.012-5.291.022c-.585,0-1.17,0-1.755-.027a.291.291,0,0,0-.342.234q-.215.733-.434,1.465l-.71,2.383a4.349,4.349,0,0,0-.178.615.387.387,0,0,1-.374.359,12.477,12.477,0,0,1-3.765.005,4.838,4.838,0,0,1-.783-.216.352.352,0,0,1-.245-.506c.277-.825.563-1.647.834-2.474.319-.975.622-1.956.941-2.931s.644-1.915.958-2.875c.278-.851.539-1.708.817-2.559.268-.819.55-1.633.82-2.452.239-.725.467-1.455.705-2.18.225-.687.46-1.371.687-2.058.234-.709.465-1.419.7-2.129q.358-1.088.717-2.176c.087-.265.18-.528.258-.8.055-.187.187-.229.356-.24C897.984-224.946,898.945-225.013,899.9-225.078Zm2,14.428c.247.036.285-.021.209-.266-.063-.2-.12-.41-.177-.616q-.349-1.27-.7-2.541c-.232-.847-.47-1.693-.694-2.542-.268-1.017-.522-2.037-.79-3.054-.017-.063-.1-.109-.155-.163-.042.058-.108.111-.123.175-.146.6-.274,1.2-.424,1.8-.186.74-.388,1.476-.581,2.214-.187.715-.359,1.434-.561,2.144-.254.892-.531,1.778-.8,2.666-.043.142.01.209.149.207s.279-.023.419-.024Q899.79-210.651,901.9-210.65Z" transform="translate(-839.585 255.694)" fill="#a7a9ac"/>
    <path id="Path_64" data-name="Path 64" d="M977.974-274.264q0,2.943,0,5.885a3.38,3.38,0,0,0,.3,1.561,7.658,7.658,0,0,0,.511.716.413.413,0,0,1,.089.3,6.015,6.015,0,0,1-1.33,2.256.638.638,0,0,1-.552.205,4.438,4.438,0,0,1-2.629-1,7.14,7.14,0,0,1-.972-1.138c-.146-.2-.233-.168-.386-.048-.434.339-.861.69-1.314,1a6.472,6.472,0,0,1-2.872,1.179,4.511,4.511,0,0,1-4.024-1.218,5.262,5.262,0,0,1-1.262-2.341,12.557,12.557,0,0,1-.336-3.354c0-2.168,0-4.336,0-6.5a5.769,5.769,0,0,0-.712-2.965.257.257,0,0,1,.04-.242,4.262,4.262,0,0,1,1.625-.85,5.342,5.342,0,0,1,2.2-.108,2.025,2.025,0,0,1,2.006,1.637,6.89,6.89,0,0,1,.229,1.579c.023,2.514,0,5.028.016,7.542a6.544,6.544,0,0,0,.14,1.2,1.108,1.108,0,0,0,1.091.871,3.1,3.1,0,0,0,2.655-1.044.663.663,0,0,0,.12-.431q.01-4.476.005-8.952c0-.635.005-1.269,0-1.9,0-.19.056-.3.251-.319.335-.034.67-.087,1.006-.1.69-.03,1.382-.065,2.073-.05.575.011,1.148.089,1.722.139.243.021.32.148.319.4-.01,2.036-.006,4.072-.006,6.108Z" transform="translate(-884.031 289.613)" fill="#a7a9ac"/>
    <path id="Path_65" data-name="Path 65" d="M1067.966-207.114c.454-.33.877-.655,1.317-.954a5.9,5.9,0,0,1,2.589-1.037,4.767,4.767,0,0,1,3.77.847,4.87,4.87,0,0,1,1.425,2.009,8.822,8.822,0,0,1,.537,3.388c0,2.423-.008,4.846.019,7.269a5.3,5.3,0,0,0,.69,2.767.225.225,0,0,1-.063.339,4.352,4.352,0,0,1-1.8.878,5.366,5.366,0,0,1-2.472-.025,1.985,1.985,0,0,1-1.471-1.362,5.3,5.3,0,0,1-.262-1.774q.011-3.721,0-7.443a5.7,5.7,0,0,0-.129-1.125,1.223,1.223,0,0,0-1.35-1.046,3.384,3.384,0,0,0-1.824.6c-.167.1-.317.234-.482.343a.614.614,0,0,0-.269.571q.006,3.289,0,6.577c0,1.41,0,2.819.008,4.228,0,.224-.059.326-.292.35a14.979,14.979,0,0,1-3.05.129q-.883-.088-1.77-.145c-.216-.014-.243-.121-.242-.3q.008-3.264,0-6.528,0-5.032,0-10.063a.435.435,0,0,1,.5-.494c.593,0,1.189-.03,1.779.016a4.563,4.563,0,0,1,1.34.277,2.545,2.545,0,0,1,1.322,1.405c.03.067.061.135.1.2A.857.857,0,0,0,1067.966-207.114Z" transform="translate(-944.92 246.044)" fill="#a7a9ac"/>
    <path id="Path_66" data-name="Path 66" d="M1018.221-200.712a10.74,10.74,0,0,1,.268-2.731,8.41,8.41,0,0,1,1.853-3.9,6.641,6.641,0,0,1,3.256-2.039,9.275,9.275,0,0,1,3.2-.319,7.1,7.1,0,0,1,5.557,2.9,8.448,8.448,0,0,1,1.247,2.636,13.2,13.2,0,0,1,.44,4.23,10.879,10.879,0,0,1-.859,3.981,6.935,6.935,0,0,1-3.295,3.57,7.613,7.613,0,0,1-3.408.792,12.121,12.121,0,0,1-2.115-.139,6.778,6.778,0,0,1-4.215-2.45,7.86,7.86,0,0,1-1.454-2.862A12.578,12.578,0,0,1,1018.221-200.712Zm10.3-.062c0-.132,0-.263,0-.395a9.519,9.519,0,0,0-.384-3.022,2.116,2.116,0,0,0-.77-1.174,2.273,2.273,0,0,0-1.51-.338,1.7,1.7,0,0,0-1.052.428,3.134,3.134,0,0,0-1,2.088,24.26,24.26,0,0,0-.145,2.659,11.006,11.006,0,0,0,.378,3.4,2.112,2.112,0,0,0,.964,1.321,2.371,2.371,0,0,0,1.54.192,1.656,1.656,0,0,0,1.352-.953,7.859,7.859,0,0,0,.406-1.234A11.681,11.681,0,0,0,1028.523-200.774Z" transform="translate(-917.844 246.381)" fill="#a7a9ac"/>
    <path id="Path_67" data-name="Path 67" d="M1016.365-270.792q-2.089,0-4.179,0c-.15,0-.293,0-.281.209a3.388,3.388,0,0,0,.871,2.275,2.575,2.575,0,0,0,1.758.731,8.959,8.959,0,0,0,3.376-.473c.406-.131.813-.26,1.213-.405a.4.4,0,0,1,.514.148,4.958,4.958,0,0,1,.958,1.926c.062.263.132.526.168.794a.334.334,0,0,1-.111.281,21.306,21.306,0,0,1-2.164,1.116,11.838,11.838,0,0,1-4.748.733,7.768,7.768,0,0,1-3.7-.892,6.2,6.2,0,0,1-2.378-2.378,8.158,8.158,0,0,1-.8-2.061,16.033,16.033,0,0,1-.341-5.4,8.766,8.766,0,0,1,2.031-5.148,6.438,6.438,0,0,1,2.177-1.591,8.358,8.358,0,0,1,4.348-.621,6.646,6.646,0,0,1,4.2,1.937,6.4,6.4,0,0,1,1.445,2.273,10.141,10.141,0,0,1,.4,4.941c-.055.463-.18.918-.25,1.38-.031.2-.132.226-.3.226C1019.167-270.794,1017.765-270.792,1016.365-270.792Zm-2.249-3.7h1.926c.283,0,.358-.048.327-.328a8.817,8.817,0,0,0-.242-1.476,2.156,2.156,0,0,0-.741-1.111,2.1,2.1,0,0,0-1.54-.383,1.768,1.768,0,0,0-1.538,1.067,5.667,5.667,0,0,0-.446,1.909c-.028.257.035.321.3.322C1012.814-274.487,1013.465-274.488,1014.115-274.488Z" transform="translate(-910.702 289.978)" fill="#a7a9ac"/>
    <path id="Path_68" data-name="Path 68" d="M941.919-290.2q0-5.118,0-10.237c0-.346.108-.538.521-.522.79.03,1.585-.023,2.372.033a2.079,2.079,0,0,1,1.987,1.18,4.074,4.074,0,0,1,.315,1.635q0,8.395.007,16.79a2.571,2.571,0,0,0,.185.933c.244.609.8.723,1.381.767.23.017.463-.009.691.017a.353.353,0,0,1,.254.169,6.983,6.983,0,0,1,.361,2.353c0,.32-.056.639-.075.96-.008.146-.062.232-.209.256-.406.064-.81.155-1.218.187-.8.062-1.6.137-2.391.12a7.539,7.539,0,0,1-1.847-.262,2.821,2.821,0,0,1-1.944-1.91,7.589,7.589,0,0,1-.385-2.526Q941.917-285.231,941.919-290.2Z" transform="translate(-871.562 301.725)" fill="#a7a9ac"/>
    <path id="Path_69" data-name="Path 69" d="M992.686-206.012c.207-.365.372-.676.555-.976a4.1,4.1,0,0,1,2.162-1.792,4.667,4.667,0,0,1,2.071-.227c.491.052.978.137,1.469.185.225.022.313.118.284.331-.1.691-.168,1.388-.308,2.071a9.07,9.07,0,0,1-.828,2.341c-.108.21-.171.31-.469.237a6.171,6.171,0,0,0-1.748-.239,3.128,3.128,0,0,0-2.469,1.643.838.838,0,0,0-.068.43q-.006,4.972,0,9.943c0,.367,0,.383-.362.436-.39.057-.787.069-1.179.116a18.464,18.464,0,0,1-3.008-.049,2.508,2.508,0,0,1-.583-.1.308.308,0,0,1-.169-.194,1.37,1.37,0,0,1-.007-.344c0-3.5.012-6.991-.008-10.487a5.479,5.479,0,0,0-.472-2.527,5.979,5.979,0,0,0-.68-.959.348.348,0,0,1-.1-.383,7.065,7.065,0,0,1,1.212-2.218.694.694,0,0,1,.758-.251,5.486,5.486,0,0,1,2.2.826,4.8,4.8,0,0,1,1.554,1.82C992.536-206.272,992.6-206.169,992.686-206.012Z" transform="translate(-898.751 245.969)" fill="#a7a9ac"/>
  </g>
</svg>
