<svg xmlns="http://www.w3.org/2000/svg" width="145.486" height="145.486" viewBox="0 0 145.486 145.486">
  <g id="Group_310" data-name="Group 310" transform="translate(0 0)">
    <path id="Path_172" data-name="Path 172" d="M4127.321-3007.132v-145.486h145.486c-.017.7-.047,1.4-.047,2.092q0,70.644,0,141.289v2.055H4270.7q-70.644,0-141.289,0C4128.716-3007.181,4128.019-3007.149,4127.321-3007.132Zm101.122-84.067c.858,0,1.6-.034,2.334.01a15.452,15.452,0,0,1,2.362.266,3.518,3.518,0,0,1,3.08,4.185c-.2,1.941-1.607,3.139-3.818,3.219-.995.036-1.995-.014-2.986.055-.34.024-.939.281-.949.456-.064,1.243-.512,2.542.683,3.614a67.05,67.05,0,0,1,5.273,5.073c1.576,1.759,3.353.955,5.164.753l-8.058-7.146a41.494,41.494,0,0,0,4.942-1.259c2.119-.816,3.024-2.622,3.134-4.831.122-2.443-.487-4.555-2.815-5.81-2.619-1.409-5.437-1.255-8.345-1.177Zm-13.359-11.126v2.446c1.379,0,2.666.042,3.949-.009a8.675,8.675,0,0,0,8-6.1,14.738,14.738,0,0,0-.05-9.088,7.332,7.332,0,0,0-4.142-4.646c-2.485-1.089-5.1-1.011-7.707-.8-.378,2.651-.378,2.65,2.053,2.666.6,0,1.2,0,1.793.026a5.128,5.128,0,0,1,5.063,4.049,12.93,12.93,0,0,1-.1,7.064,5.271,5.271,0,0,1-4.8,4.041C4217.818-3102.529,4216.487-3102.445,4215.083-3102.325Zm-68.278-18.2v20.54h3.138v-9.241h9.937v-2.765h-9.955v-8.534Zm-.033,26.794v20.44H4150v-8.975h9.866v-2.769h-9.949v-8.7Zm110.153,8.66h-10.1v-8.636h-3.09v20.412h3.206v-8.98h9.984Zm-80.936,38.761c.365-2.251.351-2.208-1.609-2.846-1.356-.441-2.692-1.146-3.051-2.617a28.265,28.265,0,0,1-.882-5.815c-.1-3.518,1.116-6.236,5.036-6.974,1.2-.227.57-1.3.613-2,.014-.225-.533-.693-.826-.694a8.036,8.036,0,0,0-7.593,5.484,16.145,16.145,0,0,0-.448,8.4C4168.087-3048.638,4171.438-3046.031,4175.99-3046.313Zm19.387-74.331a7.765,7.765,0,0,0-8.223,5.274,16.147,16.147,0,0,0-.356,8.827c.9,4.218,3.346,6.3,7.606,6.754.374.041,1.03-.187,1.142-.458a1.566,1.566,0,0,0-1.289-2.367c-2.077-.424-3.624-1.689-3.881-3.654a32.784,32.784,0,0,1-.014-7.947,4.431,4.431,0,0,1,3.58-3.615C4195.859-3118.359,4195.945-3118.536,4195.377-3120.645Zm-21.665,18.418a9.833,9.833,0,0,0,.037,1.881,1.052,1.052,0,0,0,.758.648,8.09,8.09,0,0,0,7.889-5.693,16.605,16.605,0,0,0,.108-9.268c-1.016-3.7-3.427-5.594-7.247-6.055-1.351-.164-1.583.285-1.606,1.491-.023,1.159.756,1.156,1.437,1.287a4.841,4.841,0,0,1,4.239,4.385,29.548,29.548,0,0,1,.039,6.363,4.882,4.882,0,0,1-4.337,4.62C4174.643-3102.5,4174.266-3102.373,4173.712-3102.227Zm-19.062,55.9c.392-2.188.311-2.02-1.586-2.933a6.478,6.478,0,0,1-2.821-2.651,11.047,11.047,0,0,1-.853-4.188c-.363-5.094,1-7.259,5.429-8.709a6.091,6.091,0,0,0-.044-1.7,1.251,1.251,0,0,0-.954-.717c-3.725.253-6.611,2.48-7.293,6.137a24.9,24.9,0,0,0-.287,7.679C4146.843-3048.815,4150.116-3045.946,4154.651-3046.323Zm22.96.027c4.363.173,7.71-1.915,8.541-5.832a22.8,22.8,0,0,0,.3-7.965,7.888,7.888,0,0,0-8.807-7.063v2.509c2.621.32,4.654,1.393,5.314,4.091a13.55,13.55,0,0,1,.471,3.684c-.148,3.932-.315,7.2-5.574,8.079-.08.013-.143.119-.246.209Zm19.409-71.981c3.792,1.013,5,1.791,5.421,4.479a26.686,26.686,0,0,1,.049,6.934,4.777,4.777,0,0,1-4.307,4.31,10.241,10.241,0,0,0-1.027.287v2.6c3.438-.212,6.445-1.132,7.859-4.391a14.966,14.966,0,0,0-.093-12.568,7.5,7.5,0,0,0-7.845-3.939c-.019.28-.049.574-.054.867C4197.014-3119.258,4197.02-3118.814,4197.02-3118.277Zm-24.784-2.447c-5.1.13-7.973,2.51-8.726,7.256a22.832,22.832,0,0,0-.242,5.053c.367,5.49,3.764,8.741,8.947,8.629v-2.569c-3.933-.421-5.407-3.012-5.583-6.566-.215-4.37.144-8.479,5.6-9.319Zm26.773,29.51c.344-2.535.344-2.538-1.854-2.594q-1.345-.034-2.69-.042c-1.516-.007-3.03,0-4.524,0v20.576H4193v-17.938Zm-35.477-2.608c0,4.527-.062,8.862.041,13.193a10.752,10.752,0,0,0,.861,3.607,6.518,6.518,0,0,0,7.113,3.868c.306-2.311.3-2.289-1.681-3.029a3.769,3.769,0,0,1-2.674-3.455c-.179-4.127-.214-8.26-.3-12.391-.013-.573,0-1.147,0-1.794Zm47.773,20.739a6.556,6.556,0,0,0,7.06-4.025,13.848,13.848,0,0,0,.86-4.346c.113-4.071.04-8.147.04-12.179-3.036-.773-3.352-.536-3.358,2.327-.005,3.389.03,6.779-.048,10.166-.064,2.747-1.126,4.4-3.007,5.017C4210.876-3075.481,4210.813-3075.357,4211.305-3073.084Zm-1.777.058c.38-2.441.375-2.424-1.6-3.15a4.029,4.029,0,0,1-2.716-3.44,29.482,29.482,0,0,1-.3-3.708c-.042-3.135-.062-6.271.009-9.4.029-1.244-.683-1.263-1.521-1.183-.79.076-1.913-.41-1.9,1.136.038,3.832-.1,7.669.058,11.493C4201.8-3075.729,4204.521-3072.98,4209.528-3073.026Zm-28.583-20.772h-3.081c0,2.493.038,4.875-.011,7.256s-.088,4.781-.315,7.156a3.72,3.72,0,0,1-2.6,3.189c-2.127.8-2.136.8-1.692,3.116,3.9.427,7.343-2,7.618-6.011C4181.2-3083.9,4180.946-3088.74,4180.946-3093.8Zm32.52-6.158v-20.594c-.46-.025-.8-.057-1.148-.061-2.1-.023-2.107-.021-2.107,2.087q0,8.381,0,16.762v1.805Zm13.389,26.677c.042-.716.11-1.352.111-1.987q.013-7.92,0-15.841c0-3.029,0-3.03-2.989-2.622-.084.012-.161.1-.267.171v20.28Zm-70.445,27.023c5.349-.025,8.793-3.254,8.35-7.8h-3.167c-.658,2.975-1.608,4.274-3.513,4.88C4156.017-3048.521,4156.017-3048.521,4156.409-3046.256Zm-.093-18.382c2.789.347,4.566,1.712,5.111,4.487a1.082,1.082,0,0,0,.729.7,25.463,25.463,0,0,0,2.618.033,7.4,7.4,0,0,0-8.458-7.691Zm101.6-29.221c-2.814,0-5.481.02-8.149-.012-.986-.011-1.555.17-1.566,1.375-.013,1.255.606,1.354,1.573,1.309,1.139-.053,2.282-.014,3.423-.015h4.719Zm-106.39-26.662c-.4,1.933-.272,2.621.556,2.64,2.821.063,5.644.024,8.509.024v-2.664Zm9.074,26.658c-2.574,0-4.956,0-7.337,0-2.1,0-2.318.333-1.7,2.556h9.034Zm97.272,20.668v-2.608c-3.008,0-5.923-.035-8.834.057-.278.008-.738.812-.739,1.248s.458,1.238.734,1.246C4251.947-3073.16,4254.862-3073.2,4257.875-3073.2Zm-69.3-18.055c-.2-.961-.271-2.346-.54-2.386a12.955,12.955,0,0,0-4.091.092c-.211.038-.18,1.456-.268,2.294Z" transform="translate(-4127.321 3152.618)" fill="#a7a9ac"/>
  </g>
</svg>
