<svg xmlns="http://www.w3.org/2000/svg" width="146.569" height="145.486" viewBox="0 0 146.569 145.486">
  <g id="Group_307" data-name="Group 307" transform="translate(0)">
    <path id="Path_146" data-name="Path 146" d="M1917.692-2872.809h8.006a2.363,2.363,0,0,0,.359.087c1.309.111,2.621.2,3.929.325a65.725,65.725,0,0,1,9.754,1.753,72.715,72.715,0,0,1,16.234,6.224,73.359,73.359,0,0,1,8.511,5.251,73.587,73.587,0,0,1,11.756,10.484,75.215,75.215,0,0,1,6.121,7.737,71.279,71.279,0,0,1,7.75,14.636,70.622,70.622,0,0,1,4.667,20.313c.049.648.13,1.293.2,1.939v7.945c-.1,1.051-.21,2.1-.3,3.151a65.656,65.656,0,0,1-1.855,10.684,72.133,72.133,0,0,1-6.96,17.424,72.923,72.923,0,0,1-12.03,15.913c-1.758,1.765-3.652,3.405-5.562,5.011a68.138,68.138,0,0,1-12.067,8.047,73.435,73.435,0,0,1-15.392,6.058,71.239,71.239,0,0,1-15.615,2.433,75.549,75.549,0,0,1-12.454-.477,74.1,74.1,0,0,1-14.49-3.269,75.011,75.011,0,0,1-11.043-4.769,73.023,73.023,0,0,1-15.489-10.989,71.421,71.421,0,0,1-8.395-9.215,73.829,73.829,0,0,1-8.135-13.4,72.591,72.591,0,0,1-4.654-13,67.541,67.541,0,0,1-2.085-14.537,83.937,83.937,0,0,1,.236-9.621,78.565,78.565,0,0,1,1.35-8.78,66.093,66.093,0,0,1,5.056-15.091,64.334,64.334,0,0,1,6.624-11.345c1.9-2.531,3.884-5,5.979-7.374,1.542-1.745,3.3-3.306,5-4.905a62.5,62.5,0,0,1,7.866-6.156,72.049,72.049,0,0,1,14.7-7.663,72.085,72.085,0,0,1,20.47-4.633C1916.391-2872.664,1917.04-2872.744,1917.692-2872.809Zm-45.891,69.753c.2-.1.39-.184.571-.291a2.092,2.092,0,0,0,1.166-1.373c.252-1.459-.087-2.6-1.572-3.2a4.7,4.7,0,0,0-1.6-.351c-1.545-.047-3.093-.025-4.639-.017a1.146,1.146,0,0,0-1.3,1.27q-.012,4.34,0,8.68c0,.932.439,1.362,1.379,1.37,1.422.01,2.847.048,4.265-.02a7.925,7.925,0,0,0,2.235-.433,2.859,2.859,0,0,0,.984-4.644A10.257,10.257,0,0,0,1871.8-2803.056Zm78.867-1.26c-.1-.2-.161-.321-.219-.444a1.419,1.419,0,0,0-1.82-.753.683.683,0,0,0-.38.479c-.022,2.4-.026,4.8.011,7.2a1.088,1.088,0,0,0,.444.78,1.245,1.245,0,0,0,1.958-1.11c.01-1.288,0-2.576,0-3.865a1.553,1.553,0,0,1,1.479-1.613c1.155-.082,1.591.244,1.759,1.338a6.615,6.615,0,0,1,.078.947c.01,1.129,0,2.259.01,3.388a.993.993,0,0,0,1.087,1.1c.889.037,1.322-.365,1.34-1.323.025-1.323,0-2.647.017-3.971a1.379,1.379,0,0,1,.164-.7,1.905,1.905,0,0,1,2.124-.726c.653.187.925.65.928,1.6,0,1.076-.006,2.153.005,3.229a6.745,6.745,0,0,0,.091,1,1.028,1.028,0,0,0,1.178.9c.682,0,1.152-.293,1.159-.9.023-1.882.018-3.767-.073-5.647a2.283,2.283,0,0,0-1.06-1.768,3.346,3.346,0,0,0-4.167.416c-.23.229-.445.473-.717.765a2.711,2.711,0,0,0-2.561-1.707A3.411,3.411,0,0,0,1950.669-2804.316Zm-37.544.009c-.557-1.1-1.032-1.414-1.81-1.29a.67.67,0,0,0-.667.77c.021,2.223,0,4.447.011,6.671,0,.9.384,1.279,1.254,1.285.82,0,1.174-.368,1.18-1.28.009-1.289,0-2.577,0-3.865a1.565,1.565,0,0,1,1.479-1.621c1.079-.111,1.578.241,1.778,1.275a3.946,3.946,0,0,1,.059.736c.006,1.2,0,2.4.006,3.6.005.765.326,1.091,1.09,1.147.874.064,1.325-.338,1.338-1.249.02-1.342,0-2.683.013-4.024a1.425,1.425,0,0,1,.128-.66,1.958,1.958,0,0,1,2.1-.814c.562.1.883.5,1.022,1.326a4.931,4.931,0,0,1,.062.789c.007,1.147,0,2.295.006,3.442.006.8.348,1.168,1.1,1.2.852.033,1.292-.332,1.332-1.152.029-.581.022-1.165.009-1.746-.028-1.163-.009-2.332-.125-3.486a2.531,2.531,0,0,0-1.964-2.317,3.249,3.249,0,0,0-3.68,1.238,2.048,2.048,0,0,0-.182.372,3.076,3.076,0,0,0-2.706-1.753A3.259,3.259,0,0,0,1913.124-2804.307Zm16.426,1.757c0,.212,0,.424,0,.635,0,1.253-.025,2.508.025,3.759a1.183,1.183,0,0,0,1.4,1.285c.81-.034,1.205-.465,1.217-1.354.01-.795.016-1.589,0-2.383-.009-.428.156-.608.595-.6q1.387.022,2.775,0c.772-.013,1.133-.36,1.122-1.037s-.326-.954-1.114-.96q-1.468-.011-2.935,0c-.379,0-.554-.153-.546-.538.012-.564,0-1.129,0-1.695,0-.707.037-.74.763-.742,1.352,0,2.7,0,4.055-.007a.976.976,0,0,0,1.009-.546,1.028,1.028,0,0,0-1-1.554c-1.9-.013-3.807-.006-5.71,0-1.239,0-1.651.41-1.657,1.666C1929.546-2805.269,1929.551-2803.909,1929.551-2802.55Zm-48.408,4.434a1.531,1.531,0,0,0,1.7,1.254c.446-.035.687-.208.684-.685-.01-1.676.022-3.352-.013-5.027a2.991,2.991,0,0,0-2.428-2.959,6.358,6.358,0,0,0-3.575.1,4.766,4.766,0,0,0-1.628,1.027,1.037,1.037,0,0,0,.054,1.517.961.961,0,0,0,1.5-.165,2.46,2.46,0,0,1,2.565-.745,1.28,1.28,0,0,1,1.051,1.073c.081.361-.035.574-.451.589a7.9,7.9,0,0,0-1.536.124,12.749,12.749,0,0,0-2.673.813,2.222,2.222,0,0,0-.891,3.026,2.987,2.987,0,0,0,3.147,1.387A4.252,4.252,0,0,0,1881.142-2798.116Zm62.836.075a1.457,1.457,0,0,0,1.717,1.173c.4-.044.609-.206.606-.636-.012-1.729.013-3.459-.019-5.188a2.8,2.8,0,0,0-.9-2.028,3.947,3.947,0,0,0-2.583-.971,5.906,5.906,0,0,0-3.455.641,1.629,1.629,0,0,0-.927,1.6c.07.506.447.691.872.815a.7.7,0,0,0,.868-.308,2.347,2.347,0,0,1,2.713-.829,1.282,1.282,0,0,1,1,1.121c.057.334-.022.5-.391.51-.514.017-1.029.051-1.54.111a6.347,6.347,0,0,0-2.884.859,2.357,2.357,0,0,0,.24,4.014,3.54,3.54,0,0,0,3.191.055A13.223,13.223,0,0,0,1943.979-2798.041Zm-37.873-.206c.685,1.159,1.182,1.475,1.982,1.335a.646.646,0,0,0,.635-.742c-.024-1.077-.007-2.154-.008-3.231,0-1.165.01-2.33-.006-3.495-.011-.768-.279-1.1-.919-1.224a1.138,1.138,0,0,0-1.509,1.2c-.013,1.323,0,2.648-.007,3.972a1.756,1.756,0,0,1-1.88,1.671,1.551,1.551,0,0,1-1.654-1.616c-.013-.812.01-1.624-.007-2.436-.014-.651-.044-1.3-.1-1.951a.91.91,0,0,0-.836-.831c-.864-.172-1.484.152-1.506,1.016a51.882,51.882,0,0,0,.108,5.436,2.436,2.436,0,0,0,1.78,2.187,3.308,3.308,0,0,0,3.6-.746A2.739,2.739,0,0,0,1906.106-2798.247Zm-13.469-5.969-.252-.166-.208-.417a1.375,1.375,0,0,0-1.689-.748.614.614,0,0,0-.54.667c.007,2.277-.009,4.553.014,6.83.009.832.458,1.2,1.306,1.178.769-.02,1.116-.39,1.121-1.227.008-1.289-.005-2.577.01-3.865a1.681,1.681,0,0,1,.153-.763,2.124,2.124,0,0,1,2.33-.891,1.627,1.627,0,0,1,1.118,1.527,4.726,4.726,0,0,1,.028.634c0,1.13,0,2.259,0,3.388,0,.8.348,1.167,1.1,1.2.852.032,1.289-.332,1.33-1.155.029-.582.024-1.165.009-1.747-.029-1.145.006-2.3-.136-3.43a2.662,2.662,0,0,0-1.974-2.34,3.2,3.2,0,0,0-3.279.663A3.2,3.2,0,0,0,1892.637-2804.215Zm84.412,4.581h-.149c-.077-.173-.16-.343-.228-.518-.542-1.418-1.074-2.84-1.623-4.254a3.021,3.021,0,0,0-.428-.784,1.391,1.391,0,0,0-1.843-.135c-.629.365-.257.787-.09,1.178q1.251,2.92,2.538,5.825a1.443,1.443,0,0,0,.5.654c.358.21.346.426.2.74-.358.787-.715,1.576-1.04,2.376a.644.644,0,0,0,.033.557,1.422,1.422,0,0,0,2.148-.158,3.988,3.988,0,0,0,.411-.8c.435-1.1.853-2.205,1.281-3.308q1.2-3.085,2.4-6.169c.217-.56.137-.744-.406-1a1.333,1.333,0,0,0-1.98.867c-.516,1.446-1,2.9-1.5,4.354C1977.2-2800.018,1977.122-2799.827,1977.048-2799.634Zm-52.129,19.7a3.375,3.375,0,0,0,.083.9c.074.188.338.449.48.427.193-.028.371-.279.514-.466.061-.08.019-.24.019-.363q0-4.979,0-9.956a3.33,3.33,0,0,0-.063-.683c-.072-.333-.31-.579-.639-.478a.751.751,0,0,0-.338.589c-.033,1.146-.014,2.294-.018,3.441,0,.183-.028.365-.051.649l-.437-.375a4.036,4.036,0,0,0-5.615.384,4.627,4.627,0,0,0-1.032,3.569,3.95,3.95,0,0,0,2.266,3.475,3.746,3.746,0,0,0,4.2-.523C1924.483-2779.5,1924.661-2779.688,1924.92-2779.933Zm43.7-23.275c0,1.712-.007,3.423,0,5.134a1.034,1.034,0,0,0,1.015,1.189c.913.124,1.406-.273,1.414-1.189.015-1.675.006-3.352.006-5.028,0-1.411.005-2.823,0-4.235a1.748,1.748,0,0,0-.686-1.584,1.367,1.367,0,0,0-1.465-.085c-.206.12-.267.607-.272.929C1968.606-2806.455,1968.62-2804.832,1968.622-2803.208Zm-34.648,23.419a2.45,2.45,0,0,0,.193.752,2.262,2.262,0,0,0,.579.453c.113-.19.322-.379.325-.57.024-1.73.043-3.46,0-5.189a2.709,2.709,0,0,0-1.347-2.332,4.411,4.411,0,0,0-4.549.232,3.336,3.336,0,0,0-.814,1.014c-.074.141.158.44.251.667.172-.085.4-.127.508-.264a3.093,3.093,0,0,1,3.254-1.078,1.922,1.922,0,0,1,1.657,1.977c0,.312-.091.5-.445.522-.461.021-.922.057-1.381.11a6.955,6.955,0,0,0-3.339.972,2.051,2.051,0,0,0-.889,2.03,2.048,2.048,0,0,0,1.4,1.778,3.839,3.839,0,0,0,3.3-.167A12.58,12.58,0,0,0,1933.973-2779.789Zm-40.716,1.359a4.263,4.263,0,0,0,4.353-4.384,4.319,4.319,0,0,0-4.371-4.39,4.318,4.318,0,0,0-4.354,4.4A4.282,4.282,0,0,0,1893.257-2778.429Zm57.64,0a4.187,4.187,0,0,0,4.315-4.359,4.255,4.255,0,0,0-4.391-4.416,4.285,4.285,0,0,0-4.3,4.4A4.258,4.258,0,0,0,1950.9-2778.429Zm-69.813-5.8q0,1.033,0,2.064c0,.989,0,1.977,0,2.965,0,.338.1.609.486.632a.581.581,0,0,0,.647-.564,3.658,3.658,0,0,0,.022-.528c0-1.129.01-2.259,0-3.388,0-.406.161-.576.57-.569.729.013,1.458,0,2.187,0,.587,0,1.178.027,1.758-.033a.674.674,0,0,0,.432-.465c.022-.115-.248-.323-.425-.422a1.074,1.074,0,0,0-.472-.025c-1.138,0-2.277-.012-3.415,0-.447.007-.646-.146-.637-.614q.03-1.614,0-3.229c-.009-.46.176-.625.63-.621,1.4.015,2.809.006,4.214,0a7.474,7.474,0,0,0,1.118-.025c.16-.025.428-.26.409-.35a1.17,1.17,0,0,0-.376-.538c-.07-.066-.239-.033-.363-.034-1.956,0-3.912,0-5.868,0-.733,0-.911.181-.913.914C1881.081-2787.446,1881.085-2785.84,1881.084-2784.234Zm24.365,4.365c.057.332.031.6.149.757a3.118,3.118,0,0,0,.649.529c.111-.21.317-.418.319-.628.023-2.347.013-4.694.016-7.041,0-.383-.054-.739-.53-.766-.523-.029-.579.368-.615.752-.015.158-.008.318-.008.476q0,1.88,0,3.76a2.3,2.3,0,0,1-1.778,2.433c-1.527.424-3-.035-3.26-1.937a10.383,10.383,0,0,1-.1-1.264c-.013-1.218,0-2.435-.011-3.653-.005-.488-.415-.769-.762-.518a.811.811,0,0,0-.271.577c-.021,1.553-.041,3.107,0,4.658a3.523,3.523,0,0,0,.835,2.3,3.5,3.5,0,0,0,4.694.205C1904.984-2779.415,1905.179-2779.609,1905.449-2779.869Zm4.519-5.9c-.04-.251-.065-.383-.081-.516-.049-.409-.218-.75-.68-.73-.493.021-.362.447-.363.737-.01,2.259-.006,4.518,0,6.777,0,.176-.039.395.049.517a.866.866,0,0,0,.534.382c.146.006.342-.239.446-.414.072-.119.029-.31.029-.468,0-1.429,0-2.86,0-4.289a2.134,2.134,0,0,1,.074-.678,3.059,3.059,0,0,1,3.255-1.692,2.255,2.255,0,0,1,1.8,2.463c.008,1.359,0,2.718.006,4.077a1.324,1.324,0,0,0,.094.667.786.786,0,0,0,.568.34c.156,0,.323-.256.453-.423.054-.07.031-.2.031-.311,0-1.412.068-2.828-.026-4.234a5.179,5.179,0,0,0-.611-2.263,3.343,3.343,0,0,0-4.952-.544C1910.409-2786.191,1910.224-2786.012,1909.968-2785.766Zm47.911-.007c-.04-.271-.055-.41-.081-.547-.069-.372-.21-.718-.658-.694-.495.026-.366.444-.367.736-.009,2.276-.006,4.552,0,6.828a1.072,1.072,0,0,0,.046.518c.1.156.309.346.458.337a.8.8,0,0,0,.506-.35c.085-.125.042-.341.043-.517,0-1.394.039-2.789-.011-4.181a2.262,2.262,0,0,1,1.313-2.132,2.661,2.661,0,0,1,2.794-.07,2.259,2.259,0,0,1,1.038,2.085c.025,1.5.009,3,.012,4.5,0,.371.106.69.55.693s.586-.32.583-.679c-.015-1.674,0-3.351-.1-5.021a2.853,2.853,0,0,0-2.069-2.743,3.352,3.352,0,0,0-3.59.817C1958.222-2786.073,1958.09-2785.964,1957.879-2785.773Zm-69.973-15.482c0-1.094.01-2.189,0-3.283a.993.993,0,0,0-1.09-1.094c-.876-.035-1.333.415-1.34,1.391-.014,2-.005,3.989,0,5.984a2.253,2.253,0,0,0,.042.421,1.133,1.133,0,0,0,1.359.961,1,1,0,0,0,1.033-1.15C1887.913-2799.1,1887.907-2800.177,1887.906-2801.255Zm76.224,0c0,1.076-.007,2.152,0,3.228a1,1,0,0,0,1.032,1.149,1.1,1.1,0,0,0,1.339-.965,4.512,4.512,0,0,0,.064-.789q.008-2.619,0-5.239a4.594,4.594,0,0,0-.063-.788,1.075,1.075,0,0,0-1.28-.969c-.763.056-1.085.383-1.092,1.145C1964.122-2803.4,1964.13-2802.327,1964.13-2801.251Zm-22.539,21.334-.251.18a1.645,1.645,0,0,1-1.756.234,1.386,1.386,0,0,1-.654-1.411c-.007-1.5.006-3-.01-4.5,0-.438.129-.664.607-.643.5.022,1,.009,1.493,0,.3,0,.654.032.665-.411.012-.468-.325-.527-.692-.527-.5,0-1-.014-1.493,0-.4.011-.59-.15-.577-.561a3.224,3.224,0,0,0-.049-1,.685.685,0,0,0-.508-.4c-.16,0-.4.25-.462.436a2.284,2.284,0,0,0-.03.839c.035.488-.138.729-.665.694-.34-.022-.678.07-.679.492s.349.456.656.432c.555-.042.7.214.691.724-.023,1.464-.019,2.928,0,4.393a4.94,4.94,0,0,0,.164,1.146c.4,1.584,2.735,1.695,3.577.864A.586.586,0,0,0,1941.591-2779.917Zm3.1-2.9h-.006c0-1.181.006-2.362,0-3.543,0-.375-.153-.671-.591-.659-.408.011-.525.3-.544.652-.007.123-.007.247-.007.37q0,3.227,0,6.453a1.184,1.184,0,0,0,.036.52c.1.18.285.424.441.43a.813.813,0,0,0,.573-.332,1.136,1.136,0,0,0,.1-.612C1944.692-2780.631,1944.687-2781.724,1944.687-2782.817Zm20.624-24.215a1.21,1.21,0,0,0,1.36-1.23,1.215,1.215,0,0,0-1.4-1.191,1.194,1.194,0,0,0-1.333,1.2A1.2,1.2,0,0,0,1965.311-2807.033Zm-78.578,0a1.2,1.2,0,0,0,1.362-1.227,1.193,1.193,0,0,0-1.339-1.194,1.215,1.215,0,0,0-1.391,1.2A1.212,1.212,0,0,0,1886.733-2807.033Zm58.065,17.158a.639.639,0,0,0-.715-.714.631.631,0,0,0-.656.719.647.647,0,0,0,.715.715A.633.633,0,0,0,1944.8-2789.875Z" transform="translate(-1848.407 2872.809)" fill="#a7a9ac"/>
    <path id="Path_147" data-name="Path 147" d="M2235.745-2485.139c0,.834,0,1.668,0,2.5,0,.242.029.574-.335.525-.124-.017-.293-.327-.3-.505q-.041-1.627,0-3.255c.005-.183.2-.519.291-.511a.987.987,0,0,1,.7.3c.334.557.578,1.17.922,1.9.335-.687.593-1.259.895-1.8a.909.909,0,0,1,.478-.42c.319-.09.553.054.553.441,0,1.138.012,2.278-.014,3.415,0,.157-.2.309-.306.464-.11-.151-.308-.3-.316-.453-.035-.728-.017-1.458-.019-2.187a1.1,1.1,0,0,0-.095-.532c-.274.551-.538,1.107-.831,1.648-.075.139-.241.316-.366.317s-.3-.173-.372-.311c-.266-.517-.5-1.049-.744-1.576Z" transform="translate(-2105.717 2614.586)" fill="#a7a9ac"/>
    <path id="Path_148" data-name="Path 148" d="M2225.846-2485.47a4.509,4.509,0,0,0-.913-.305,3.092,3.092,0,0,0-1.085.071.6.6,0,0,0-.326.47.629.629,0,0,0,.335.469,9.482,9.482,0,0,0,1.133.28c.776.2,1.142.6,1.108,1.218a1.325,1.325,0,0,1-1.277,1.211,7.764,7.764,0,0,1-1.632-.128c-.438-.072-.563-.377-.377-.866a2.793,2.793,0,0,0,.578.219,7.251,7.251,0,0,0,1.495.119c.169-.012.438-.365.434-.557s-.273-.438-.481-.522a9.3,9.3,0,0,0-1.09-.236,1.1,1.1,0,0,1-.936-1.232,1.14,1.14,0,0,1,1.075-1.125,7.35,7.35,0,0,1,1.534.07C2225.9-2486.256,2226-2485.935,2225.846-2485.47Z" transform="translate(-2097.491 2614.566)" fill="#a7a9ac"/>
    <path id="Path_149" data-name="Path 149" d="M1905.257-2656.226a8.36,8.36,0,0,1-1.223-.019.61.61,0,0,1-.416-.408,19.538,19.538,0,0,1,0-2.237.594.594,0,0,1,.406-.414,25.553,25.553,0,0,1,2.921.1,1.327,1.327,0,0,1,1.239,1.425,1.338,1.338,0,0,1-1.229,1.481,15.831,15.831,0,0,1-1.7.117Z" transform="translate(-1885.125 2730.183)" fill="#a7a9ac"/>
    <path id="Path_150" data-name="Path 150" d="M1905.12-2670.085c-.267,0-.533,0-.8,0-.658-.007-.709-.053-.715-.688,0-.587.008-1.174,0-1.76-.007-.378.146-.568.535-.55.815.039,1.634.045,2.446.125a1.257,1.257,0,0,1,1.155,1.259,1.35,1.35,0,0,1-.978,1.473,14.484,14.484,0,0,1-1.633.2Z" transform="translate(-1885.135 2739.387)" fill="#a7a9ac"/>
    <path id="Path_151" data-name="Path 151" d="M1938.211-2656.236c.916.11,1.126.4.869,1.253a2.137,2.137,0,0,1-2.9,1.132.992.992,0,0,1,.033-1.772A11.914,11.914,0,0,1,1938.211-2656.236Z" transform="translate(-1906.459 2728.133)" fill="#a7a9ac"/>
    <path id="Path_152" data-name="Path 152" d="M2126-2656.083c.16,0,.348-.054.472.012.169.091.41.274.408.416a1.849,1.849,0,0,1-.91,1.7,2.088,2.088,0,0,1-2.134.113,1.027,1.027,0,0,1,.152-1.815,13.008,13.008,0,0,1,1.984-.532Z" transform="translate(-2031.369 2728.102)" fill="#a7a9ac"/>
    <path id="Path_153" data-name="Path 153" d="M2065.156-2608.852a3.332,3.332,0,0,1-.848,2.708,2.96,2.96,0,0,1-4.987-1.045,3.929,3.929,0,0,1,.81-4.2,3.13,3.13,0,0,1,4.9,1.114A5.64,5.64,0,0,1,2065.156-2608.852Z" transform="translate(-1988.57 2698.656)" fill="#a7a9ac"/>
    <path id="Path_154" data-name="Path 154" d="M2091.529-2598.153a6.649,6.649,0,0,1-.895-.112,1.234,1.234,0,0,1-1.025-1.03,1.27,1.27,0,0,1,.634-1.508,14.4,14.4,0,0,1,2.334-.672,10.533,10.533,0,0,1,1.378-.126c.374-.033.546.111.568.509A2.748,2.748,0,0,1,2091.529-2598.153Z" transform="translate(-2008.892 2691.634)" fill="#a7a9ac"/>
    <path id="Path_155" data-name="Path 155" d="M1979.206-2608.68a3.212,3.212,0,0,1-4.126,3.343,3.451,3.451,0,0,1-2.25-4.085,3.206,3.206,0,0,1,3.4-2.729A3.253,3.253,0,0,1,1979.206-2608.68Z" transform="translate(-1931.154 2698.671)" fill="#a7a9ac"/>
    <path id="Path_156" data-name="Path 156" d="M2145.1-2608.681c0-2.683,2.469-4.3,4.694-3.131a3.737,3.737,0,0,1,1.193,5.126,3.182,3.182,0,0,1-5.078.365A3.264,3.264,0,0,1,2145.1-2608.681Z" transform="translate(-2045.832 2698.693)" fill="#a7a9ac"/>
  </g>
</svg>
