<svg xmlns="http://www.w3.org/2000/svg" viewBox="0 0 783.22 176.21"><defs><style>.cls-1{fill:#a7a9ac;}</style></defs><title>logo-mma</title><g id="Layer_2" data-name="Layer 2"><g id="Layer_1-2" data-name="Layer 1"><polygon class="cls-1" points="0.92 1.31 33.16 80.47 80.56 80.47 80.56 34.54 0.92 1.31"/><path class="cls-1" d="M81.06,81H32.83l-.13-.31L0,.39,81.06,34.21ZM33.5,80H80.06V34.87L1.83,2.24Z"/><polygon class="cls-1" points="175.35 1.31 143.1 80.47 95.7 80.47 95.7 34.54 175.35 1.31"/><path class="cls-1" d="M143.44,81H95.21V34.21L176.26.39ZM96.21,80h46.55L174.43,2.24,96.21,34.87Z"/><polygon class="cls-1" points="175.35 173.79 143.1 94.64 95.7 94.64 95.7 140.57 175.35 173.79"/><path class="cls-1" d="M176.26,174.72l-81-33.82V94.14h48.23l.12.31Zm-80-34.49,78.22,32.64L142.76,95.14H96.21Z"/><polygon class="cls-1" points="0.92 173.79 33.16 94.64 80.56 94.64 80.56 140.57 0.92 173.79"/><path class="cls-1" d="M0,174.72,32.83,94.14H81.06V140.9ZM33.5,95.14,1.83,172.87l78.23-32.64V95.14Z"/><path class="cls-1" d="M273.76,79.35l.66-53.19H274L261,79.35H248.59L236,26.16h-.32l.54,53.19H220.35V1.86h22.11l12.48,49.91h.44L267.52,1.86H291V79.35Z"/><path class="cls-1" d="M359.46,79.35l.65-53.19h-.43l-13,53.19H334.29L321.7,26.16h-.33l.55,53.19H306.05V1.86h22.11l12.47,49.91h.44L353.22,1.86h23.42V79.35Z"/><path class="cls-1" d="M426.11,79.35l-3.17-14.12H405.53l-3.17,14.12H384.85L403.67,1.86h22l18.72,77.49Zm-11.6-60.63h-.44L407.5,51.66h13.25Z"/><path class="cls-1" d="M500.75,0A25.38,25.38,0,0,1,511.8,2.3a19.86,19.86,0,0,1,8,7L513.66,16a16.29,16.29,0,0,0-5.58-5.25A14,14,0,0,0,501.19,9a12.15,12.15,0,0,0-7.72,2.52,19.94,19.94,0,0,0-5.42,6.84,36.65,36.65,0,0,0-3.22,10.07,67.19,67.19,0,0,0-1,12.09,63.86,63.86,0,0,0,1.14,12.43,36.28,36.28,0,0,0,3.4,10A18.69,18.69,0,0,0,494,69.5a13.49,13.49,0,0,0,8,2.41q6.14,0,9.31-2.63v-24H501.08V36.77h19.7V74.53a26.72,26.72,0,0,1-7.94,4.54,31.93,31.93,0,0,1-11.11,1.7,24.33,24.33,0,0,1-11.93-2.9,26.28,26.28,0,0,1-8.91-8.15A39,39,0,0,1,475.3,57a66.64,66.64,0,0,1-1.91-16.53,66.08,66.08,0,0,1,1.86-16.14,42.68,42.68,0,0,1,5.36-12.8,26.55,26.55,0,0,1,8.59-8.49A22,22,0,0,1,500.75,0Z"/><path class="cls-1" d="M537.3,79.35V1.86h9.85V70.15H569v9.2Z"/><path class="cls-1" d="M625.84,40.49A71.12,71.12,0,0,1,624,57.08a41.91,41.91,0,0,1-5.26,12.86,25.88,25.88,0,0,1-8.32,8.31,20.94,20.94,0,0,1-11.1,3,21.31,21.31,0,0,1-11.17-3,25.72,25.72,0,0,1-8.37-8.31,41.65,41.65,0,0,1-5.25-12.86,70.57,70.57,0,0,1-1.81-16.59,72.85,72.85,0,0,1,1.75-16.58,40.82,40.82,0,0,1,5.15-12.8A24.56,24.56,0,0,1,588,2.9,22.11,22.11,0,0,1,599.36,0a21.27,21.27,0,0,1,11.1,2.9,25.44,25.44,0,0,1,8.32,8.21A41.13,41.13,0,0,1,624,23.91,71.1,71.1,0,0,1,625.84,40.49Zm-10.4,0a70.41,70.41,0,0,0-1-12.36,40.11,40.11,0,0,0-3.07-10.07,19.08,19.08,0,0,0-5-6.73,10.68,10.68,0,0,0-6.95-2.46,11,11,0,0,0-7.12,2.46,18.74,18.74,0,0,0-5.09,6.73,38.57,38.57,0,0,0-3,10.07,74.61,74.61,0,0,0-1,12.36,74.56,74.56,0,0,0,1,12.37,38.57,38.57,0,0,0,3,10.07,18.74,18.74,0,0,0,5.09,6.73,11,11,0,0,0,7.12,2.46,10.68,10.68,0,0,0,6.95-2.46,19.08,19.08,0,0,0,5-6.73,40.11,40.11,0,0,0,3.07-10.07A70.36,70.36,0,0,0,615.44,40.49Z"/><path class="cls-1" d="M669.51,38.63a16.06,16.06,0,0,1,4.43,1.76,15.51,15.51,0,0,1,4.33,3.66,20,20,0,0,1,3.28,5.8A23,23,0,0,1,682.86,58a22.92,22.92,0,0,1-2,10.06A18.84,18.84,0,0,1,669,78.25a25.75,25.75,0,0,1-7.25,1.1h-21V1.86h18.61a31.64,31.64,0,0,1,6.95.82,18.41,18.41,0,0,1,6.73,3,16.84,16.84,0,0,1,5,5.91,20,20,0,0,1,2,9.41,22.92,22.92,0,0,1-.88,6.68,17.92,17.92,0,0,1-2.35,5,15.21,15.21,0,0,1-3.4,3.56,15.65,15.65,0,0,1-4,2.19Zm1.42-16.14a14,14,0,0,0-1.09-5.88A11.07,11.07,0,0,0,667,12.76a10.34,10.34,0,0,0-4-2.09,18,18,0,0,0-4.65-.6h-8.21V35.13h8.43a14.79,14.79,0,0,0,4.43-.71,11.62,11.62,0,0,0,4-2.2,10.91,10.91,0,0,0,2.85-3.9A14.11,14.11,0,0,0,670.93,22.49ZM673,57.41a16.41,16.41,0,0,0-1.26-6.76,12.71,12.71,0,0,0-3.23-4.51,12.5,12.5,0,0,0-4.43-2.47,16.33,16.33,0,0,0-4.87-.77h-9.08V71.14h9.52a16,16,0,0,0,5.2-.83,11.72,11.72,0,0,0,4.27-2.47A11.22,11.22,0,0,0,672,63.61,16.65,16.65,0,0,0,673,57.41Z"/><path class="cls-1" d="M730.47,79.35l-4.38-18.17H703.66l-4.49,18.17h-10L708.69,1.86h13l19,77.49Zm-15.21-68.3h-.44L705,53.41h19.81Z"/><path class="cls-1" d="M751.48,79.35V1.86h9.85V70.15h21.89v9.2Z"/><path class="cls-1" d="M222,174.35V96.86h9.85v77.49Z"/><path class="cls-1" d="M285.25,174.35l-24.73-60.09h-.33v60.09h-9.08V96.86h11.82l24.4,60.2h.33V96.86h9.08v77.49Z"/><path class="cls-1" d="M339.76,174.35h-12.7L308,96.86h10.83L333.63,163h.22l14.77-66.11h10.51Z"/><path class="cls-1" d="M370.4,174.35V96.86H403v8.76H379.92V130h21.56v8.21H379.92v27.25h24.19v8.87Z"/><path class="cls-1" d="M454.23,153.77a25.81,25.81,0,0,1-1.64,9.47,20.58,20.58,0,0,1-4.43,7.06,19.05,19.05,0,0,1-6.62,4.38,22,22,0,0,1-8.21,1.53,26.38,26.38,0,0,1-11.22-2.46,22.76,22.76,0,0,1-8.48-6.52l5.8-7.11a17.68,17.68,0,0,0,6.29,5.14,16.94,16.94,0,0,0,7.61,1.86,10.78,10.78,0,0,0,8.1-3.28q3.17-3.28,3.17-9.52a13,13,0,0,0-1-5.2,13.74,13.74,0,0,0-2.74-4.05,23.9,23.9,0,0,0-4-3.28A46,46,0,0,0,432,139a44.68,44.68,0,0,1-6-3.45,26.33,26.33,0,0,1-5-4.43,18.86,18.86,0,0,1-3.45-6,23.75,23.75,0,0,1-1.25-8.15,24.91,24.91,0,0,1,1.75-9.74,19.89,19.89,0,0,1,4.65-6.9,18.64,18.64,0,0,1,6.62-4A22.68,22.68,0,0,1,436.94,95a25.71,25.71,0,0,1,10,1.86,18.35,18.35,0,0,1,7.38,5.58l-5.91,7A13.3,13.3,0,0,0,437.27,104a12.09,12.09,0,0,0-4.1.72A9.94,9.94,0,0,0,429.5,107a11.61,11.61,0,0,0-2.63,4,15.43,15.43,0,0,0-1,5.8,12.68,12.68,0,0,0,.93,5.09,13.57,13.57,0,0,0,2.51,3.83,20.08,20.08,0,0,0,3.67,3.06,43.63,43.63,0,0,0,4.49,2.58,63.69,63.69,0,0,1,6,3.44,27.33,27.33,0,0,1,5.36,4.55,20.94,20.94,0,0,1,3.89,6.18A21.52,21.52,0,0,1,454.23,153.77Z"/><path class="cls-1" d="M485,105.29v69.06h-9.85V105.29H460.36V96.86h39.4v8.43Z"/><path class="cls-1" d="M563.35,174.35V110.21H563l-17.29,64.14h-8.87l-17.07-64.14h-.33v64.14h-9.08V96.86h14.47l16.55,61.51h.44l16.23-61.51H573.2v77.49Z"/><path class="cls-1" d="M592.35,174.35V96.86H625v8.76H601.87V130h21.56v8.21H601.87v27.25h24.19v8.87Z"/><path class="cls-1" d="M675.31,174.35l-24.74-60.09h-.32v60.09h-9.09V96.86H653l24.41,60.2h.33V96.86h9.08v77.49Z"/><path class="cls-1" d="M722.15,105.29v69.06H712.3V105.29H697.53V96.86h39.4v8.43Z"/><path class="cls-1" d="M782.56,153.77a25.81,25.81,0,0,1-1.64,9.47,20.58,20.58,0,0,1-4.43,7.06,19.05,19.05,0,0,1-6.62,4.38,22,22,0,0,1-8.21,1.53,26.38,26.38,0,0,1-11.22-2.46,22.76,22.76,0,0,1-8.48-6.52l5.8-7.11a17.68,17.68,0,0,0,6.29,5.14,16.94,16.94,0,0,0,7.61,1.86,10.78,10.78,0,0,0,8.1-3.28q3.16-3.28,3.17-9.52a13,13,0,0,0-1-5.2,13.74,13.74,0,0,0-2.74-4.05,23.9,23.9,0,0,0-4-3.28,46,46,0,0,0-4.87-2.79,44.68,44.68,0,0,1-6-3.45,26.33,26.33,0,0,1-5-4.43,18.86,18.86,0,0,1-3.45-6A24,24,0,0,1,744.7,117a24.91,24.91,0,0,1,1.75-9.74,19.89,19.89,0,0,1,4.65-6.9,18.64,18.64,0,0,1,6.62-4A22.68,22.68,0,0,1,765.27,95a25.71,25.71,0,0,1,10,1.86,18.35,18.35,0,0,1,7.38,5.58l-5.91,7A13.3,13.3,0,0,0,765.6,104a12.13,12.13,0,0,0-4.1.72,10,10,0,0,0-3.67,2.29,11.61,11.61,0,0,0-2.63,4,15.43,15.43,0,0,0-1,5.8,12.68,12.68,0,0,0,.93,5.09,13.39,13.39,0,0,0,2.52,3.83,19.68,19.68,0,0,0,3.66,3.06,43.63,43.63,0,0,0,4.49,2.58,63.69,63.69,0,0,1,6,3.44,27.33,27.33,0,0,1,5.36,4.55,20.94,20.94,0,0,1,3.89,6.18A21.52,21.52,0,0,1,782.56,153.77Z"/></g></g></svg>