<svg xmlns="http://www.w3.org/2000/svg" width="243.52" height="130.368" viewBox="0 0 243.52 130.368">
  <g id="Group_311" data-name="Group 311" transform="translate(0)">
    <path id="Path_173" data-name="Path 173" d="M4795.659-2084.67a3.166,3.166,0,0,1-3.793-1.725c-2.768-4.439-5.77-8.732-9-13.566v15.26h-2.985v-21.259a2.93,2.93,0,0,1,3.835,1.466c2.554,4.107,5.325,8.08,8.013,12.1.2.306.444.588.9,1.188v-14.873h3.032Z" transform="translate(-4552.139 2214.618)" fill="#a7a9ac"/>
    <path id="Path_174" data-name="Path 174" d="M4722.376-2084.961a12.22,12.22,0,0,1-4.817-19.208,8.329,8.329,0,0,1,9.119-2.67,8.951,8.951,0,0,1,6.577,7.864,20.2,20.2,0,0,1-.465,7.519c-.845,3.41-3.417,5.469-6.773,6.5Zm8.386-11.042a37.277,37.277,0,0,0-1.745-5.19,5.2,5.2,0,0,0-4.868-3.031,5.5,5.5,0,0,0-4.922,3.306,10.177,10.177,0,0,0,.066,9.827c2.163,4.062,7.252,4.3,9.585.379A28.39,28.39,0,0,0,4730.762-2096Z" transform="translate(-4509.997 2215.312)" fill="#a7a9ac"/>
    <path id="Path_175" data-name="Path 175" d="M4368.516-2084.918c-7.519-2.426-10.465-12.189-5.593-18.538a8.854,8.854,0,0,1,15.271,1.432c2.44,4.856,1.594,11.376-2.135,14.708a21.9,21.9,0,0,1-4.307,2.4Zm-4.812-11.5a37.688,37.688,0,0,0,1.361,5.1,5.287,5.287,0,0,0,5.21,3.444,5.387,5.387,0,0,0,4.967-3.527c1.477-3.531,1.521-7.074-.688-10.339a5.208,5.208,0,0,0-8.9.1A27.6,27.6,0,0,0,4363.7-2096.417Z" transform="translate(-4271.885 2215.27)" fill="#a7a9ac"/>
    <path id="Path_176" data-name="Path 176" d="M4430.988-2083.959c-3.994-.932-6.145-3.5-6.264-7.534-.138-4.686-.031-9.379-.031-14.209h3.14v5.733c0,2.489-.012,4.978.005,7.466.022,3.5,1.765,5.582,4.682,5.631,2.86.049,4.731-2.027,4.812-5.531.075-3.294.012-6.591.009-9.886v-3.384h2.938c0,5.18.258,10.351-.091,15.481-.228,3.378-2.635,5.43-5.965,6.234Z" transform="translate(-4314.665 2214.311)" fill="#a7a9ac"/>
    <path id="Path_177" data-name="Path 177" d="M4341.768-2214.906c-4.143-.014-6.228-1.749-6.71-4.685-.834-5.086,4.247-10.9,9.382-10.614a8.313,8.313,0,0,1,3.431,1,11.472,11.472,0,0,0,6.053,1.831c2.314-.062,3.479,2.6,2.218,4.544a1.623,1.623,0,0,1-.23.33C4351.589-2218.465,4346.648-2215.666,4341.768-2214.906Z" transform="translate(-4254.843 2298.13)" fill="#a7a9ac"/>
    <path id="Path_178" data-name="Path 178" d="M4516.9-2204.015c1.418-5.148,2.662-10.353,4.329-15.419.868-2.634,2.583-2.757,4.243-.474a41.6,41.6,0,0,1,4.281,7c1.981,4.323-.23,11.165-4.26,14.059-1.688,1.213-3.479,1.75-5.461.73a5.031,5.031,0,0,1-2.738-4.8c-.007-.335,0-.671,0-1.006Z" transform="translate(-4376.248 2291.928)" fill="#a7a9ac"/>
    <path id="Path_179" data-name="Path 179" d="M4360.305-2403.379c.042-5.361,3.394-9.651,7.572-10.752,3.346-.882,7.367,2.737,6.337,6.008-1.57,4.988-3.482,9.873-5.424,14.732-.354.884-1.612,2.048-2.336,1.971-.806-.086-1.623-1.351-2.175-2.26a29.717,29.717,0,0,1-2.3-4.6C4361.207-2400.259,4360.646-2402.322,4360.305-2403.379Z" transform="translate(-4271.608 2421.901)" fill="#a7a9ac"/>
    <path id="Path_180" data-name="Path 180" d="M4537.518-2367.859a62.717,62.717,0,0,1-7.1-1.959c-2.367-.942-3.027-2.829-1.868-5.1a10.769,10.769,0,0,1,3.023-3.646,14.026,14.026,0,0,1,9.741-2.55,7.537,7.537,0,0,1,6.6,8.022c-.259,2.4-2.042,3.945-5.267,4.413-1.66.242-3.343.314-5.018.462C4537.595-2368.1,4537.558-2367.978,4537.518-2367.859Z" transform="translate(-4383.918 2400.51)" fill="#a7a9ac"/>
    <path id="Path_181" data-name="Path 181" d="M4325.209-2306.355c-6.4.163-11.96-6.092-10.583-13.707.55-3.04,4.579-5.788,7.606-5.511,1.664.152,3.042,2.255,3.182,4.585.126,2.133.4,4.257.649,6.381a4.244,4.244,0,0,0,3.569,3.842,1.152,1.152,0,0,1,.384.119c.859.6,1.708,1.217,2.561,1.828a11.379,11.379,0,0,1-2.788,1.843A27.646,27.646,0,0,1,4325.209-2306.355Z" transform="translate(-4241.019 2361.922)" fill="#a7a9ac"/>
    <path id="Path_182" data-name="Path 182" d="M4563.1-2288.792c7.181-.535,9.924,3.6,11.032,8.8.715,3.361-1.871,7.6-5.2,8.329a5.551,5.551,0,0,1-3.86-.949,8.624,8.624,0,0,1-2.269-3.235c-1.624-3.144-3.066-6.381-4.724-9.505-1.039-1.959-.416-3.359,1.775-3.437C4560.8-2288.819,4561.742-2288.792,4563.1-2288.792Z" transform="translate(-4403.573 2337.336)" fill="#a7a9ac"/>
    <path id="Path_183" data-name="Path 183" d="M4427.31-2174.308c-4.443-.106-5.768-2.174-3.914-6.288,1.274-2.823,3.047-5.062,6.305-6.03,2.716-.807,4.38-2.977,5.2-5.734.373-1.264.606-2.881,2.461-2.57a2.8,2.8,0,0,1,2.276,3.158c-.5,5.92-1.747,11.645-6.786,15.537-1.5,1.159-3.523,1.646-5.306,2.44Z" transform="translate(-4313.32 2274.241)" fill="#a7a9ac"/>
    <path id="Path_184" data-name="Path 184" d="M4495.51-2106.078h3.076v21.271a2.694,2.694,0,0,1-3.552-1.32c-2.91-4.574-5.991-9.041-9.258-13.924v15.285h-3.017v-21.165c1.914-.678,3.033,0,4.045,1.6,2.709,4.291,5.584,8.477,8.705,13.175Z" transform="translate(-4353.513 2214.627)" fill="#a7a9ac"/>
    <path id="Path_185" data-name="Path 185" d="M4446.436-2420.877a18.443,18.443,0,0,1,5.185-12.26,9.582,9.582,0,0,1,12.4-.832c2.268,1.771,2.583,4.044.286,5.683a27.392,27.392,0,0,1-7.32,3.589,8.567,8.567,0,0,0-4.736,3.124,5.127,5.127,0,0,1-1.411,1.683c-.916.489-2.115,1.068-2.986.836C4447.114-2419.251,4446.67-2420.545,4446.436-2420.877Z" transform="translate(-4329.349 2435.854)" fill="#a7a9ac"/>
    <path id="Path_186" data-name="Path 186" d="M4542.134-2106.1a62.329,62.329,0,0,1,7.947.06c4.866.638,8.11,4.656,8.3,9.639a11.887,11.887,0,0,1-1.943,7.826,9.02,9.02,0,0,1-6.556,3.873c-2.517.25-5.077.053-7.753.053Zm2.99,18.387c3.44.31,6.666.4,8.79-2.807a9.7,9.7,0,0,0-.146-9.949c-2.171-3.007-5.322-2.917-8.645-2.6Z" transform="translate(-4393.223 2214.633)" fill="#a7a9ac"/>
    <path id="Path_187" data-name="Path 187" d="M4239.16-2093.479v9.01h-3.122v-21.288h3.1v9.037h9.13v-9.043h2.931v21.277h-2.848v-8.993Z" transform="translate(-4188.566 2214.35)" fill="#a7a9ac"/>
    <path id="Path_188" data-name="Path 188" d="M4610.765-2084.95c-3.215.38-3.376.425-4.168-2.39-.606-2.152-1.6-3.245-3.9-2.764a1.728,1.728,0,0,1-.6,0c-3.567-.566-6.226.124-6.958,4.331-.1.6-1.928.909-2.955,1.352l-.439-.565c.316-.91.611-1.828.952-2.73,2.151-5.693,4.327-11.376,6.459-17.076.38-1.017.761-1.657,2.087-1.652,1.3.006,1.721.6,2.1,1.629,2.277,6.076,4.6,12.138,6.894,18.206C4610.417-2086.116,4610.556-2085.606,4610.765-2084.95Zm-12.771-8.194h6.411c-1.048-2.8-2.035-5.443-3.189-8.531Z" transform="translate(-4426.511 2214.79)" fill="#a7a9ac"/>
    <path id="Path_189" data-name="Path 189" d="M4151.843-2084.733c-3.026.481-3.2.53-3.993-2.311-.633-2.278-1.764-3.269-4.1-2.829a5.518,5.518,0,0,1-1.007.008c-4.521,0-4.587-.026-6.161,4.109-.789,2.073-2.245.96-3.768,1.169,1.647-4.359,3.2-8.474,4.759-12.588,1-2.627,1.928-5.282,3.046-7.856a2.335,2.335,0,0,1,1.767-1.045,2.273,2.273,0,0,1,1.839.91c2.6,6.591,5.1,13.228,7.607,19.857A1.692,1.692,0,0,1,4151.843-2084.733Zm-9.423-16.75c-1.169,3.161-2.155,5.825-3.185,8.61h6.4C4144.6-2095.658,4143.605-2098.313,4142.42-2101.483Z" transform="translate(-4118.683 2214.552)" fill="#a7a9ac"/>
    <path id="Path_190" data-name="Path 190" d="M4095.9-2092.208v7.128h-3.041v-21.625c3.357.258,6.8.153,10.049.876,3.228.716,4.667,4.1,4.1,7.979-.445,3.039-3.384,5.449-6.937,5.632C4098.8-2092.153,4097.52-2092.208,4095.9-2092.208Zm.125-2.983c2.673-.129,5.571.763,7.382-2.044a3.815,3.815,0,0,0-.176-4.546c-1.88-2.52-4.571-1.566-7.207-1.7Z" transform="translate(-4092.858 2214.958)" fill="#a7a9ac"/>
    <path id="Path_191" data-name="Path 191" d="M4407.366-2369.659c-.578,0-.981,0-1.386,0-1.36.013-2.555-.279-3.093-1.728a3.149,3.149,0,0,1,1.166-3.749c2.486-2.129,7.43-2.905,10.037-1.016a29.584,29.584,0,0,1,5.875,5.957,4.72,4.72,0,0,1-.106,5.845c-.812,1.16-1.742,1.432-2.826.37a8.189,8.189,0,0,1-1.627-1.776C4413.615-2369.1,4410.584-2369.735,4407.366-2369.659Z" transform="translate(-4300.035 2397.958)" fill="#a7a9ac"/>
    <path id="Path_192" data-name="Path 192" d="M4406.231-2222.394c.633-2.014,1.375-4.7,2.359-7.285.245-.643,1.281-.986,1.954-1.467.435.709,1.185,1.391,1.245,2.129a9.476,9.476,0,0,0,2.59,5.709,12.569,12.569,0,0,1,2.115,4.08c1.073,3-.457,5.753-3.578,6.757-2.455.789-4.64-.494-5.569-3.563A57.124,57.124,0,0,1,4406.231-2222.394Z" transform="translate(-4302.207 2298.609)" fill="#a7a9ac"/>
    <path id="Path_193" data-name="Path 193" d="M4530.176-2326.948c.042,3.47-.648,4.458-3.019,5.3-1.773.627-3.529,1.321-5.334,1.839-1.657.476-2.647-.267-2.373-1.879.606-3.564,1.367-7.105,2.15-10.637a6.086,6.086,0,0,1,1.071-2.15c1.325-1.828,4.436-1.8,5.227.192C4528.958-2331.625,4529.617-2328.8,4530.176-2326.948Z" transform="translate(-4377.817 2368.839)" fill="#a7a9ac"/>
    <path id="Path_194" data-name="Path 194" d="M4330.207-2105.69v2.836h-9.978v6.457h8.742v3.125h-5.041c-3.894,0-3.894,0-3.891,3.994,0,1.6,0,3.19,0,4.894h-3.121v-21.305Z" transform="translate(-4242.594 2214.302)" fill="#a7a9ac"/>
    <path id="Path_195" data-name="Path 195" d="M4362.187-2261.813a16.845,16.845,0,0,1-2.206-.23c-1.874-.442-2.53-1.557-2.12-3.447,1-4.595,7.326-10.147,12.024-10.546,1.679-.143,1.985.945,1.743,2.2a12.014,12.014,0,0,1-1.1,2.8c-.929,1.941-2.057,3.8-2.83,5.8A4.922,4.922,0,0,1,4362.187-2261.813Z" transform="translate(-4269.893 2328.858)" fill="#a7a9ac"/>
    <path id="Path_196" data-name="Path 196" d="M4475.71-2209.453c-3.848-.127-7.051-2-8.228-4.942-1.052-2.633.057-4.467,2.9-4.493a9.133,9.133,0,0,1,4.1.727,7.265,7.265,0,0,0,5.644.35c1.971-.56,2.559-.149,2.9,1.818a4.821,4.821,0,0,1-3.214,5.6A36.293,36.293,0,0,1,4475.71-2209.453Z" transform="translate(-4343.044 2290.774)" fill="#a7a9ac"/>
    <path id="Path_197" data-name="Path 197" d="M4524.793-2262.762c.237,4.2-3.773,9.255-9.449,7.4a24.714,24.714,0,0,1-5.479-2.394c-1.46-.916-1.248-2.024.216-3a2.36,2.36,0,0,1,1.071-.533,12.53,12.53,0,0,0,8.4-3.787,3.343,3.343,0,0,1,.886-.477C4523.358-2266.9,4524.84-2265.944,4524.793-2262.762Z" transform="translate(-4370.973 2322.322)" fill="#a7a9ac"/>
    <path id="Path_198" data-name="Path 198" d="M4485.794-2367.106c-.41,2.025-.7,4.086-1.3,6.053a2.478,2.478,0,0,1-1.811,1.476,2.45,2.45,0,0,1-1.8-1.515,14.26,14.26,0,0,0-3.253-6.294,10.269,10.269,0,0,1-1.64-4.26c-.393-1.736,1.26-3.62,3.054-3.774,3.746-.322,6.071,1.841,6.463,6.052.068.732.009,1.475.009,2.213Z" transform="translate(-4348.75 2395.394)" fill="#a7a9ac"/>
    <path id="Path_199" data-name="Path 199" d="M4364.186-2331.785a69.805,69.805,0,0,1,7.027.4,3.313,3.313,0,0,1,2.23,1.84c.179.509-.817,2-1.482,2.143-3.163.678-5.487,2.677-8.012,4.432-1.481,1.029-3.2,1.988-4.976.488-1.48-1.248-1.79-4.261-.641-6.177A5.946,5.946,0,0,1,4364.186-2331.785Z" transform="translate(-4269.866 2366.267)" fill="#a7a9ac"/>
    <path id="Path_200" data-name="Path 200" d="M4194.377-2102.974v18.541h-3.255v-18.406h-5.665v-2.881h14.6v2.747Z" transform="translate(-4152.709 2214.323)" fill="#a7a9ac"/>
    <path id="Path_201" data-name="Path 201" d="M4652.987-2084.4h-3.34v-18.409h-5.67v-2.889h14.575v2.732h-5.565Z" transform="translate(-4461.226 2214.31)" fill="#a7a9ac"/>
    <path id="Path_202" data-name="Path 202" d="M4698.047-2084.3h-2.777v-21.289h2.777Z" transform="translate(-4497.452 2214.239)" fill="#a7a9ac"/>
    <path id="Path_203" data-name="Path 203" d="M4397.756-2299.881a23.17,23.17,0,0,1,2.427-4.219c.543-.624,2.236-1.068,2.775-.691a4.123,4.123,0,0,1,1.72,3.013,5.73,5.73,0,0,0,.785,4.131c.831,1.193.03,2.51-1.465,2.829C4402.158-2294.427,4398.111-2297.786,4397.756-2299.881Z" transform="translate(-4296.477 2348.292)" fill="#a7a9ac"/>
    <path id="Path_204" data-name="Path 204" d="M4439.959-2244.318c-.31-.324-1.368-.931-1.373-1.547-.009-1.044.345-2.609,1.083-3.042a31.309,31.309,0,0,1,6.247-2.5c.263-.085,1.254.88,1.24,1.338C4447.094-2248.071,4442.628-2244.309,4439.959-2244.318Z" transform="translate(-4323.76 2312.598)" fill="#a7a9ac"/>
    <path id="Path_205" data-name="Path 205" d="M4491.839-2288.676c.073-.565-.049-1.377.3-1.848a3.622,3.622,0,0,1,1.975-1.377c.378-.078,1.212.753,1.407,1.321a50.076,50.076,0,0,1,1.481,5.421,1.872,1.872,0,0,1-1.621,2.525c-1.4.2-2.806.022-3.113-1.733C4492.023-2285.75,4491.979-2287.166,4491.839-2288.676Z" transform="translate(-4359.213 2339.602)" fill="#a7a9ac"/>
    <path id="Path_206" data-name="Path 206" d="M4455.646-2331.456a14.789,14.789,0,0,1-2.743,1.985,21.415,21.415,0,0,1-4.062,1.023c-1.275.241-2.176-.291-2.139-1.668.082-3.12,4.531-5.464,7.12-3.729A10.943,10.943,0,0,1,4455.646-2331.456Z" transform="translate(-4329.19 2368.094)" fill="#a7a9ac"/>
    <path id="Path_207" data-name="Path 207" d="M4411.309-2260.151c-1.437-.409-2.861-1.876-2.9-3.155-.04-1.326,1.37-3.293,2.532-3.16a19.828,19.828,0,0,1,4.817,1.168,1.31,1.31,0,0,1,.325,2.412A46.185,46.185,0,0,1,4411.309-2260.151Z" transform="translate(-4303.599 2322.682)" fill="#a7a9ac"/>
    <path id="Path_208" data-name="Path 208" d="M4417.267-2326.434a43.664,43.664,0,0,1,2.052-5.49,2.885,2.885,0,0,1,2.313-1c.362.014,1.031,1.368.937,2.026a20.329,20.329,0,0,1-1.367,5.169c-.35.809-1.468,1.286-2.24,1.914C4418.408-2324.67,4417.854-2325.528,4417.267-2326.434Z" transform="translate(-4309.431 2367.032)" fill="#a7a9ac"/>
    <path id="Path_209" data-name="Path 209" d="M4480.413-2256.817c-.213,1.107-.128,2.434-.732,3.255a4.126,4.126,0,0,1-2.824,1.223c-.327.022-1.134-1.521-1.063-2.287a13.657,13.657,0,0,1,1.221-4.411c.321-.69,1.347-1.052,2.054-1.563a15.868,15.868,0,0,1,1.14,2.156,4.971,4.971,0,0,1,.031,1.6Z" transform="translate(-4348.479 2318.701)" fill="#a7a9ac"/>
    <path id="Path_210" data-name="Path 210" d="M4479.7-2314.025c-1.776-.277-3.1-.842-3.643-2.6-.377-1.216.018-1.76,1.333-1.715,1.654.056,3.317-.061,4.965.053.627.043,1.682.457,1.734.818a2.417,2.417,0,0,1-.709,2.047A20.211,20.211,0,0,1,4479.7-2314.025Z" transform="translate(-4348.684 2357.376)" fill="#a7a9ac"/>
  </g>
</svg>
