<svg xmlns="http://www.w3.org/2000/svg" width="145.486" height="145.581" viewBox="0 0 145.486 145.581">
  <g id="Group_309" data-name="Group 309" transform="translate(0 0)">
    <path id="Path_165" data-name="Path 165" d="M3353.025-3071.156c-.068-39.9,32.65-72.575,72.7-72.607,39.988-.031,72.734,32.505,72.782,72.318.05,40.53-32.216,73.185-72.389,73.263A72.708,72.708,0,0,1,3353.025-3071.156Zm118.562-11.128c-1.252-.345-2.181-.627-3.122-.857a11.8,11.8,0,0,0-12.98,5.085,15.7,15.7,0,0,0-2.037,13.321c2.453,8.562,11.906,11.526,17.865,7.009.137-.1.352-.1.186-.06.663.542,1.119,1.236,1.594,1.249,3.318.1,6.639.051,10.613.051-.595-1.24-.8-2.571-1.438-2.826-1.829-.733-1.924-2.06-1.922-3.628q.023-14.709.009-29.419v-2.271c-3.328,0-6.385-.062-9.435.044-.754.026-1.922.419-2.14.954-.43,1.05.208,1.871,1.372,2.4a2.692,2.692,0,0,1,1.372,1.856C3471.692-3087.112,3471.587-3084.826,3471.587-3082.284Zm-52.364,64.082.53-.608c-.579-.7-1.2-1.375-1.724-2.113-.456-.638-1.147-1.346-1.154-2.03q-.124-11.666.005-23.333c.008-.711.826-1.42,1.288-2.115.492-.74,1.009-1.465,1.784-2.584h-13.6l-.439.474c.563.711,1.117,1.43,1.691,2.133.389.477,1.141.923,1.155,1.4.1,3.431.053,6.866.053,10.336h-12.457c0-3.507-.045-6.889.05-10.267a2.051,2.051,0,0,1,1.09-1.4,1.934,1.934,0,0,0,1.182-2.7h-13.5c.81,1.147,1.339,1.869,1.838,2.613.471.7,1.3,1.419,1.3,2.138q.142,11.567-.006,23.136c-.01.765-.906,1.517-1.39,2.275l-1.656,2.587h13.477l.438-.517c-.553-.71-1.1-1.425-1.661-2.132-.379-.48-1.091-.942-1.1-1.426-.095-3.636-.052-7.276-.052-11.009h12.514c0,3.61.071,7.065-.061,10.512a2.667,2.667,0,0,1-1.322,1.88,1.979,1.979,0,0,0-1.151,2.749Zm-35.857-38.4a2.268,2.268,0,0,0-1.6-3.117,2.377,2.377,0,0,1-1.358-1.626c-.113-4.356-.062-8.716-.062-13.282,1.5,0,2.786.029,4.074-.008a2.387,2.387,0,0,1,2.623,1.885c.557,2.1,1.939,2.357,3.865,1.872v-11.3c-1.246.677-2.433.943-2.967,1.681-1.763,2.435-3.5,3.271-6.568,2.592a1.4,1.4,0,0,1-.9-.959c-.063-4.035-.041-8.072-.041-12.278,2.958,0,5.742-.017,8.526.006a4.011,4.011,0,0,1,3.865,2.8c.3.723.428,1.646.958,2.111a5.348,5.348,0,0,0,2.392.911c.241.051.868-.476.873-.747.063-3.092.041-6.186.041-8.991-2.7.187-5.074.47-7.454.495-6.47.067-12.942,0-19.412.065a6.258,6.258,0,0,0-2.051.83c.466.756.919,1.52,1.4,2.265.522.807,1.528,1.592,1.538,2.4q.164,13.527,0,27.057a3.4,3.4,0,0,1-1.559,2.34,2.391,2.391,0,0,0-1.229,3.008Zm61.3,5.534c.6,1.121.815,2.206,1.345,2.394,1.726.608,1.766,1.87,1.764,3.293q-.015,12.549,0,25.1v2.379a8.962,8.962,0,0,0,2.732-.664c1.356-.936,2.466-.8,3.939-.137,8.074,3.634,16.139-.872,17.164-9.475.943-7.91-4.145-13.905-11.479-13.411a34.938,34.938,0,0,0-4.782,1.016v-10.979Zm-21.758-18.84a13.8,13.8,0,0,0,14,14.246c8.375.111,14.658-5.715,14.77-13.7.113-8.108-5.73-14.022-14.021-14.192C3429.241-3083.726,3423.016-3077.969,3422.906-3069.911Zm-29.826.03a13.706,13.706,0,0,0,13.97,14.213c8.413.06,14.759-5.851,14.735-13.724-.026-8.322-5.9-14.156-14.244-14.148C3399.083-3083.533,3393.105-3077.887,3393.081-3069.882Zm49.929,28.893H3432.9l-.444.663c.6.74,1.239,1.454,1.79,2.23.419.591,1.022,1.253,1.037,1.9.1,4.246.121,8.5,0,12.742a2.85,2.85,0,0,1-1.39,2.009c-2.6,1.3-4.448-.037-4.5-3.267-.076-4.77-.017-9.542-.027-14.313,0-.694-.064-1.388-.092-1.958h-10.4c.512,1.148.656,2.274,1.179,2.492,1.767.736,1.675,2.113,1.682,3.567.019,3.594-.1,7.2.136,10.777.29,4.417,2.787,6.706,7.149,6.508a40.825,40.825,0,0,0,6.449-1.32c.481.994,6.018,1.526,10.468.46-.549-.868-.843-1.91-1.5-2.245a2.406,2.406,0,0,1-1.424-2.5c.017-4.248,0-8.5,0-12.744C3443.009-3037.677,3443.01-3039.359,3443.01-3040.988Zm-19.655-85.728c-2.824-.018-5.084.391-6.875,1.946a5.624,5.624,0,0,0-1.928,3.03,12.7,12.7,0,0,0,2.609,10.318,6.594,6.594,0,0,0,3.825,1.87c1.789.278,3.739-.373,5.493-.009a3.557,3.557,0,0,0,3.748-1.412,15.567,15.567,0,0,0,3.552-7.929c.607-3.982-4.209-8.893-8.507-6.372a10.451,10.451,0,0,1-3.156.688c-.031-.154-.063-.308-.094-.463Zm29.431,34.074c1.578,1.338,3.2,1.685,4.415.528.286-.271.075-1.064.092-1.618-1.551.134-1.2-1.025-1.226-1.865-.044-1.24-.053-2.486-.009-3.726.083-2.317-.75-4.133-2.929-5.073a7.155,7.155,0,0,0-7.434.657,2.631,2.631,0,0,0-.624,2.362,2.24,2.24,0,0,0,1.972,1.04c.645-.159,1.1-1.136,1.6-1.788.348-.454.619-1.346.944-1.355a2.09,2.09,0,0,1,1.554.876,7.094,7.094,0,0,1,.562,2.106c-2,.672-3.837,1.137-5.538,1.908a3.541,3.541,0,0,0-2.177,4.169,3.7,3.7,0,0,0,3.916,2.9A29.129,29.129,0,0,0,3452.787-3092.642Zm-43.922-17.142-.4-.354H3401.1l-.422.291c2.239,1.588,1.629,3.783,1.68,5.833a23.67,23.67,0,0,1-.01,2.934c-.292,2.912.99,6.068-1.3,8.684-.047.054.058.24.124.48h13.639v-5.176c-.756.482-1.4.675-1.674,1.1-1.574,2.486-2.821,2.991-6.12,2.2,0-2.887-.127-5.82.039-8.736C3407.2-3105.011,3405.912-3107.856,3408.865-3109.784Zm13.71,18.335a6.716,6.716,0,0,0,7.11-6.741,6.717,6.717,0,0,0-6.974-6.888c-4.111,0-7.087,2.821-7.113,6.751A6.73,6.73,0,0,0,3422.575-3091.449Zm35.858-18.867c0,.457-.1.862.015.936,1.7,1.1,1.269,2.8,1.281,4.368.019,2.607.017,5.215.008,7.822-.006,1.569.4,3.257-1.262,4.375-.136.092-.018.564-.018.912h7.05a9.676,9.676,0,0,0-.255-1.216,16.39,16.39,0,0,1-1.109-3.046,31.238,31.238,0,0,1-.066-4.3c0-3.3,0-6.609,0-10.155Zm-19.932,19.208a39.33,39.33,0,0,0,3.61-1.676c.339-.2.37-.925.543-1.409a3.909,3.909,0,0,0-1.444.251c-2.369,1.527-4.81.74-5.391-2.029a15.173,15.173,0,0,1-.013-5.015,4.552,4.552,0,0,1,1.472-2.185,1.627,1.627,0,0,1,1.428-.244c.238.084.192.847.364,1.268.271.663.461,1.552.978,1.864a2.02,2.02,0,0,0,1.922-.267,2.687,2.687,0,0,0,.6-2.064,2.842,2.842,0,0,0-1.226-1.644c-3.293-2.174-8.885-.137-10.108,3.623C3429.675-3095.839,3433.08-3091.443,3438.5-3091.108Zm-12.859-36.955c1.77.949,4.942-.293,10.308-4.037C3432.363-3135.127,3428.148-3133.476,3425.642-3128.063Zm71.535,57.056-1.61-1.7c-.432.443-1.179.865-1.212,1.336a1.933,1.933,0,0,0,.989,1.5C3495.632-3069.74,3496.3-3070.438,3497.177-3071.008Zm-73.831-59.934.54,5.832C3425.122-3127.429,3424.911-3130.311,3423.346-3130.941Zm17.452-8.424c-.726-.514-1.243-1.139-1.575-1.053-.473.122-.812.767-1.207,1.189.41.344.809.938,1.236.958C3439.657-3138.252,3440.091-3138.833,3440.8-3139.365Zm-79.236,43.2c.472-.746,1.006-1.216.96-1.62s-.661-.765-1.026-1.144c-.4.423-1.006.8-1.118,1.286C3360.308-3097.338,3360.979-3096.86,3361.562-3096.167Zm104.785-32.6c-.8-.516-1.273-1.047-1.746-1.049-.35,0-.7.687-1.053,1.069.42.385.793.976,1.275,1.083C3465.142-3127.593,3465.617-3128.211,3466.347-3128.769Zm-99.27,18.863c-.554.627-1.208,1.055-1.163,1.391.064.485.635.9.989,1.35.412-.4,1.033-.738,1.163-1.213C3368.154-3108.7,3367.554-3109.21,3367.077-3109.906Zm38.386-27.056c-.689-.578-1.146-1.234-1.479-1.177-.481.083-.872.685-1.3,1.065.372.378.709,1,1.125,1.061S3404.692-3136.489,3405.463-3136.962Zm-15.877,8.164c.469-.782.988-1.278.984-1.768,0-.338-.862-1.021-1.1-.929a1.844,1.844,0,0,0-1.047,1.235C3388.371-3129.91,3389.017-3129.47,3389.586-3128.8Zm-3,117.029c.517-.681,1.1-1.115,1.078-1.51-.027-.432-.62-.828-.966-1.24-.429.394-1.08.727-1.212,1.2C3385.4-3013,3386.053-3012.479,3386.585-3011.769ZM3495.1-3061.35c.466-.759,1.044-1.292.95-1.648-.121-.455-.783-.766-1.212-1.139-.307.425-.863.856-.853,1.274S3494.56-3062.033,3495.1-3061.35Zm-110.053,45.674c-.74-.52-1.247-1.136-1.594-1.056-.46.1-.8.755-1.185,1.17.4.338.793.927,1.207.943S3384.321-3015.16,3385.043-3015.676Zm107.662-37.253c-.541.676-1.2,1.155-1.128,1.49.1.487.714.872,1.109,1.3.357-.4.963-.769,1-1.193S3493.178-3052.207,3492.7-3052.929Zm2.726-12.429c.476-.738,1.076-1.282.975-1.6-.151-.47-.8-.781-1.24-1.159-.321.429-.887.858-.89,1.29C3494.274-3066.428,3494.875-3066.025,3495.431-3065.358Zm-85.641,61.737c-.695-.485-1.2-1.087-1.518-1-.476.125-.824.736-1.227,1.14.444.363.853.931,1.345,1.017C3408.707-3002.411,3409.147-3003.063,3409.79-3003.621ZM3493-3047.581c-.71-.513-1.235-1.144-1.533-1.05-.483.151-.819.777-1.217,1.2.408.35.8.953,1.226.974C3491.874-3046.435,3492.3-3047.031,3493-3047.581Zm-38.275,41.565c.565-.681,1.237-1.163,1.168-1.486-.1-.474-.733-.834-1.139-1.243-.359.383-.968.742-1.007,1.154S3454.253-3006.728,3454.726-3006.015Zm-97.742-78.132c-.465.795-.979,1.288-.953,1.751.02.37.7.706,1.079,1.057.384-.438.973-.833,1.078-1.33C3358.251-3082.979,3357.586-3083.443,3356.984-3084.147Zm.984-3.91c-.58.708-1.233,1.175-1.17,1.505.094.484.7.871,1.086,1.3.37-.382.984-.732,1.04-1.155C3358.974-3086.81,3358.443-3087.288,3357.968-3088.057Zm58.113,84.536c-.567.667-1.242,1.153-1.166,1.44.129.488.732.85,1.135,1.265.367-.378.981-.728,1.029-1.143C3417.122-3002.348,3416.568-3002.806,3416.08-3003.521Zm-33.2-120.8c.577-.712,1.245-1.214,1.164-1.51-.134-.489-.752-.845-1.167-1.257-.354.406-.931.781-.991,1.226C3381.839-3125.492,3382.393-3125.037,3382.882-3124.324Zm104.875,18.716c-.672-.555-1.076-1.151-1.474-1.146s-.819.591-1.227.923c.377.437.685,1.074,1.157,1.238C3486.5-3104.492,3487.045-3105.114,3487.757-3105.608Zm-121.194.629c-.726-.492-1.221-1.074-1.55-.991a1.816,1.816,0,0,0-1.142,1.135c-.065.281.684,1.079,1.013,1.049C3365.371-3103.831,3365.808-3104.4,3366.563-3104.978Zm127.54,13.812c-.733-.522-1.226-1.126-1.562-1.049a1.787,1.787,0,0,0-1.132,1.144c-.062.286.671,1.064,1.02,1.048C3492.9-3090.046,3493.351-3090.617,3494.1-3091.166Zm-97.557-41.413c.48-.785,1.008-1.273.99-1.74-.014-.358-.866-1.05-1.079-.961a2.03,2.03,0,0,0-1.1,1.246C3395.3-3133.727,3395.956-3133.268,3396.546-3132.579Zm93.076,30.306c-.709-.479-1.163-1.025-1.566-.99s-1.1.781-1.031,1a1.942,1.942,0,0,0,1.148,1.171C3488.473-3101.017,3488.957-3101.7,3489.622-3102.273Zm-44.953-36.179c-.764-.544-1.215-1.1-1.7-1.128-.344-.019-.727.673-1.092,1.048.4.386.755.99,1.217,1.088C3443.444-3137.371,3443.928-3137.948,3444.669-3138.452Zm-83.008,44.49c-.678-.556-1.144-1.206-1.475-1.144-.476.09-.854.7-1.274,1.085.373.366.72.984,1.127,1.026S3360.913-3093.485,3361.661-3093.962Zm63.874,92.711c-.687-.554-1.1-1.151-1.5-1.136-.433.017-.843.6-1.263.931.385.437.7,1.077,1.181,1.237C3424.256-3000.119,3424.8-3000.742,3425.534-3001.251Zm66.964-93.373.448-.774c-.513-.225-1.058-.677-1.531-.612-.491.068-.912.637-1.364.987.385.421.709,1.051,1.178,1.191C3491.546-3093.738,3492.068-3094.336,3492.5-3094.624Zm-99.677-36.234c.576-.666,1.241-1.128,1.175-1.428-.1-.472-.7-.836-1.09-1.244-.368.37-.969.7-1.033,1.121C3391.816-3132.037,3392.354-3131.575,3392.821-3130.858Zm96.888,30.645c-.492.711-1.05,1.165-1.015,1.564.038.428.635.808.988,1.209.419-.413,1.052-.771,1.178-1.26C3490.941-3099.009,3490.269-3099.515,3489.709-3100.213Zm-125-1.268c-.718-.478-1.175-1.021-1.575-.981-.417.041-.778.646-1.162,1,.409.408.767,1.037,1.245,1.149C3363.527-3100.237,3364.015-3100.91,3364.706-3101.481Zm93.154-29.758c.532-.68,1.184-1.181,1.1-1.488-.126-.474-.754-.815-1.169-1.213-.354.389-.963.762-.988,1.172S3457.352-3131.93,3457.86-3131.239Zm-83.229,109.14c.477-.713,1.013-1.161.984-1.571s-.616-.791-.959-1.184c-.4.4-1.04.757-1.132,1.22C3373.456-3023.286,3374.094-3022.8,3374.631-3022.1Zm85.33,12.774c-.7-.545-1.128-1.136-1.531-1.121-.421.017-.818.619-1.227.964.389.423.719,1.063,1.189,1.193C3458.717-3008.2,3459.235-3008.818,3459.96-3009.325ZM3372-3025.088c.5-.72,1.055-1.167,1.024-1.57s-.629-.793-.979-1.187c-.412.4-1.046.747-1.158,1.218C3370.813-3026.3,3371.456-3025.8,3372-3025.088Zm37.271-113.044c-.674-.56-1.072-1.149-1.482-1.157s-.831.566-1.246.885c.362.438.656,1.1,1.111,1.24C3407.979-3137.062,3408.522-3137.654,3409.274-3138.132Zm30.472,133.819c-.532.7-1.167,1.2-1.091,1.526.105.458.744.792,1.156,1.18.351-.38.964-.749.981-1.144C3440.809-3003.163,3440.254-3003.6,3439.746-3004.312Zm-70.572-108.913c-.5.73-1.107,1.251-1.015,1.567.136.462.773.776,1.2,1.154.347-.4.95-.794.966-1.208C3370.335-3112.108,3369.737-3112.526,3369.174-3113.225Zm115.227,78.232c-.536.828-1.083,1.319-1.1,1.831-.012.322.773.943,1.185.931.354-.01.932-.716.958-1.14S3484.917-3034.239,3484.4-3034.993Zm-119.255.12c.588-.707,1.237-1.164,1.177-1.489a1.925,1.925,0,0,0-1.092-1.219c-.236-.088-1.075.593-1.082.937C3364.138-3036.169,3364.657-3035.682,3365.146-3034.874Zm87.086-101.2c-.76-.53-1.27-1.134-1.582-1.044-.481.137-.827.75-1.229,1.16.413.338.805.905,1.245.944C3451.051-3134.977,3451.488-3135.536,3452.233-3136.07Zm36.2,94.269c-.585.674-1.255,1.134-1.192,1.445.1.488.693.875,1.078,1.3.369-.38.97-.723,1.038-1.151C3489.422-3040.586,3488.893-3041.062,3488.436-3041.8Zm-59.528-98.72c-.675-.563-1.141-1.222-1.467-1.159-.476.092-.852.7-1.271,1.093.379.354.731.946,1.146.994C3427.714-3139.548,3428.177-3140.067,3428.909-3140.522Zm26.967,5.9c-.734-.507-1.275-1.129-1.573-1.029-.459.156-.752.8-1.115,1.245.4.32.805.882,1.214.888C3454.8-3133.51,3455.2-3134.08,3455.876-3134.62Zm-90.989,94.728c-.63-.558-1.018-1.174-1.424-1.186s-.831.578-1.248.905c.371.447.669,1.092,1.14,1.267C3363.641-3038.8,3364.2-3039.423,3364.886-3039.892Zm68.046-100.643c-.793-.455-1.273-.954-1.681-.9s-.741.661-1.108,1.026c.427.374.817.968,1.293,1.049C3431.771-3139.3,3432.224-3139.948,3432.932-3140.534Zm49.023,29.819c.469-.738,1.013-1.216.962-1.619-.053-.418-.68-.766-1.056-1.143-.383.425-1,.813-1.072,1.286C3480.734-3111.848,3481.391-3111.391,3481.955-3110.716Zm-6,89.8c-.677-.568-1.12-1.206-1.444-1.15a1.837,1.837,0,0,0-1.231,1.049c-.088.271.587,1.113.937,1.123C3474.685-3019.883,3475.171-3020.424,3475.954-3020.919Zm-26.916,16.223c-.709-.524-1.146-1.1-1.557-1.081s-.822.613-1.232.955c.4.422.734,1.067,1.208,1.19C3447.789-3003.546,3448.305-3004.174,3449.039-3004.7Zm12.872-8.221c-.561.662-1.156,1.055-1.169,1.467-.012.394.579.808.9,1.212.444-.363,1.1-.653,1.256-1.114C3463.005-3011.652,3462.39-3012.2,3461.91-3012.916Zm-79.927-5.2c-.8-.564-1.248-1.117-1.733-1.149-.345-.022-1.026.656-1.029,1.025,0,.406.586,1.135.94,1.149C3380.637-3017.075,3381.135-3017.606,3381.984-3018.118Zm96.373-100.292c-.7-.536-1.2-1.187-1.534-1.11-.466.109-.807.76-1.2,1.179.4.351.779.955,1.194.979S3477.664-3117.908,3478.356-3118.41Zm-4.4-4.478c-.528.725-1.155,1.236-1.068,1.548.135.483.757.831,1.173,1.236.331-.4.905-.791.923-1.205S3474.462-3122.158,3473.956-3122.888ZM3356.6-3064.428c-.515.742-1.062,1.185-1.049,1.61s.6.81.934,1.215c.409-.4,1.044-.744,1.152-1.211C3357.715-3063.162,3357.115-3063.669,3356.6-3064.428Zm2.177,5.677c-.72-.581-1.226-1.248-1.516-1.165-.491.14-.847.756-1.259,1.172.4.347.773.923,1.209.975C3357.591-3057.724,3358.043-3058.264,3358.774-3058.751Zm.9,3.9c-.84-.584-1.293-1.137-1.759-1.147-.358-.009-1.006.654-1.022,1.038a1.456,1.456,0,0,0,.94,1.11C3358.3-3053.82,3358.791-3054.333,3359.672-3054.848Zm136.384-4.169c-.707-.536-1.128-1.1-1.532-1.092s-.814.592-1.22.923c.387.424.71,1.059,1.182,1.2C3494.8-3057.894,3495.321-3058.508,3496.055-3059.017Zm-2.339,2.292c-.548.683-1.135,1.1-1.115,1.477.023.428.594.826.926,1.238.432-.386,1.051-.705,1.226-1.185C3494.853-3055.47,3494.228-3056.007,3493.716-3056.725Zm-137.46-11.606c-.524.734-1.138,1.233-1.058,1.566.112.47.738.817,1.144,1.217.333-.4.908-.787.93-1.2S3356.756-3067.6,3356.256-3068.331Zm4.259,17.341c-.649-.57-1.132-1.258-1.415-1.184-.478.125-.83.732-1.235,1.137.375.374.716.992,1.133,1.048C3359.372-3049.939,3359.829-3050.508,3360.515-3050.99Zm41.166-84.823c-.711-.5-1.254-1.126-1.532-1.025-.486.177-.811.8-1.2,1.238.419.322.83.882,1.258.9C3400.594-3134.694,3401-3135.274,3401.68-3135.814Zm-45.468,62.834c.522-.742,1.074-1.182,1.052-1.593s-.605-.809-.944-1.213c-.4.4-1.021.752-1.13,1.222C3355.112-3074.221,3355.705-3073.722,3356.212-3072.979Zm5.586,25.623c-.717-.482-1.174-1.03-1.565-.987-.418.046-.775.65-1.16,1.01.417.407.781,1.014,1.271,1.146C3360.633-3046.111,3361.124-3046.788,3361.8-3047.357Zm38.821,42.97c.546-.666,1.225-1.167,1.145-1.471-.125-.48-.758-.829-1.176-1.233-.354.386-.965.756-.989,1.162S3400.133-3005.075,3400.619-3004.387Zm96.268-71.036c-.66-.563-1.057-1.167-1.46-1.172s-.828.583-1.243.91c.369.455.662,1.11,1.135,1.289C3495.6-3074.289,3496.167-3074.927,3496.887-3075.424Zm-138.816-3.115c-.656-.541-1.064-1.139-1.45-1.125-.411.015-1.178.7-1.123.932a1.973,1.973,0,0,0,1.065,1.26C3356.837-3077.374,3357.378-3078.023,3358.071-3078.539Zm138.441-1.06c-.722-.456-1.188-.985-1.6-.945s-.737.664-1.1,1.031c.419.408.788,1.027,1.276,1.144C3495.381-3078.3,3495.863-3079.01,3496.512-3079.6Zm-49.639-59.34c-.522.683-1.1,1.108-1.078,1.5.026.425.609.816.949,1.221.432-.393,1.061-.721,1.221-1.2C3448.059-3137.708,3447.4-3138.239,3446.873-3138.939Zm-10-.915c-.687-.591-1.144-1.262-1.484-1.207-.476.077-.865.694-1.291,1.08.371.368.709.982,1.119,1.034S3436.1-3139.406,3436.869-3139.854Zm8.316,136.28c-.712-.546-1.219-1.189-1.515-1.1-.49.141-.846.752-1.258,1.166.4.347.779.935,1.207.973C3444.01-3002.5,3444.455-3003.061,3445.185-3003.574Zm25.979-118.762c.458-.746,1.04-1.3.929-1.605-.168-.461-.818-.745-1.263-1.1-.312.417-.885.846-.865,1.246S3470.583-3123,3471.164-3122.337ZM3398.5-3007.617c-.719-.475-1.186-1.023-1.552-.962-.42.07-.75.68-1.12,1.055.421.39.792.963,1.282,1.1C3397.382-3006.355,3397.852-3007.032,3398.5-3007.617Zm13.624,3.388c-.537.658-1.207,1.151-1.132,1.468.112.47.75.816,1.164,1.216.361-.379.99-.743,1.011-1.139C3413.192-3003.1,3412.626-3003.539,3412.128-3004.229Zm-43.277-28.791c-.642-.534-1.037-1.122-1.442-1.129s-.838.555-1.257.868c.372.449.671,1.095,1.145,1.271C3367.582-3031.9,3368.139-3032.532,3368.852-3033.021Zm.687,4.779c.539-.717,1.19-1.24,1.1-1.542-.145-.486-.778-.827-1.2-1.229-.337.408-.916.8-.94,1.228C3368.47-3029.382,3369.03-3028.947,3369.539-3028.241Zm114.152-1.955c-.732-.425-1.211-.928-1.586-.859-.4.074-.711.682-1.061,1.058.419.373.8.957,1.27,1.042C3482.613-3028.9,3483.046-3029.586,3483.69-3030.2Zm-124.848-61.672c-.507.69-1.071,1.122-1.059,1.537s.6.812.937,1.216c.416-.4,1.048-.742,1.172-1.219C3359.978-3090.657,3359.351-3091.167,3358.843-3091.869Zm34.533,84.216c.541-.693,1.114-1.107,1.1-1.5-.017-.413-.594-.8-.925-1.2-.43.371-1.069.674-1.219,1.136C3392.234-3008.92,3392.856-3008.391,3393.376-3007.653Zm85.329-16.119c-.634-.565-1.095-1.26-1.423-1.2-.479.085-.862.71-1.286,1.1.365.363.709.986,1.1,1.02C3477.519-3022.814,3477.988-3023.332,3478.7-3023.772Zm-92.7-102.9c.6-.656,1.221-1.039,1.239-1.449s-.57-.846-.893-1.271c-.451.367-1.1.658-1.28,1.129C3384.96-3127.968,3385.552-3127.4,3386.008-3126.67Zm83.546.271c-.774-.541-1.229-1.1-1.686-1.1-.373,0-.748.665-1.123,1.034.413.4.772,1,1.26,1.136C3468.31-3125.247,3468.808-3125.858,3469.553-3126.4Zm-97.848,10.046c-.559.677-1.17,1.094-1.156,1.487.016.428.613.835.957,1.252.439-.394,1.069-.719,1.244-1.208C3372.85-3115.1,3372.212-3115.647,3371.706-3116.354Zm109.322.81c-.829-.491-1.321-1-1.812-1-.306,0-.884.8-.836,1.185a1.5,1.5,0,0,0,1.115.961C3479.887-3114.38,3480.3-3114.966,3481.027-3115.543Zm-7.989,97.181c-.74-.515-1.184-1.066-1.568-1.027-.426.044-.8.626-1.191.974.4.4.749,1.011,1.222,1.134C3471.815-3017.2,3472.309-3017.82,3473.039-3018.362Zm-53.081,15.274c-.531.694-1.173,1.2-1.086,1.492.143.475.761.808,1.177,1.2.353-.391.954-.763.986-1.178C3421.064-3001.96,3420.485-3002.392,3419.958-3003.088Zm11.929-.019c-.53.717-1.085,1.14-1.053,1.513.036.416.6.786.94,1.177.409-.39,1-.719,1.157-1.192C3433.022-3001.888,3432.41-3002.393,3431.887-3003.106Zm36.475-14.318c-.534.744-1.15,1.249-1.066,1.567.127.477.746.822,1.156,1.224.335-.409.9-.8.937-1.234C3469.422-3016.258,3468.873-3016.7,3468.362-3017.425Zm-86.825-106.049c-.768-.488-1.287-1.06-1.613-.966-.47.136-.8.756-1.19,1.17.387.35.8,1.006,1.154.977C3380.36-3122.331,3380.79-3122.9,3381.537-3123.474Zm83.584,108.389c-.527.726-1.163,1.251-1.071,1.552.146.477.781.8,1.209,1.195.345-.407.939-.8.963-1.225C3466.245-3013.956,3465.659-3014.384,3465.121-3015.084Zm-35.632,13.705c-.708-.492-1.15-1.039-1.542-1.006s-.754.636-1.128.99c.389.411.723,1.034,1.189,1.156C3428.308-3000.16,3428.8-3000.82,3429.49-3001.379Zm50.175-27.1c-.472.741-.98,1.189-.952,1.6.027.385.622.73.967,1.092.384-.4.993-.748,1.079-1.2C3480.822-3027.323,3480.2-3027.787,3479.664-3028.481Zm11.885-15.326c-.692-.523-1.18-1.144-1.489-1.065-.483.122-.846.719-1.26,1.114.394.349.767.937,1.19.976C3490.38-3042.746,3490.824-3043.3,3491.549-3043.807Zm-128.3.164c-.7-.508-1.232-1.139-1.515-1.043a1.9,1.9,0,0,0-1.052,1.238c-.053.244.705.918,1.112.932C3362.178-3042.5,3362.585-3043.1,3363.247-3043.643Zm57.722-96.719c-.728-.507-1.167-1.05-1.55-1.014-.416.039-.782.617-1.17.96.391.4.727,1.009,1.191,1.131C3419.748-3139.2,3420.239-3139.82,3420.969-3140.362Zm-14.954,135.807c-.711-.527-1.118-1.065-1.51-1.054-.427.012-.841.531-1.26.83.379.423.693,1.044,1.16,1.2C3404.712-3003.483,3405.24-3004.06,3406.015-3004.556Zm9.393-133.688c.519-.706,1.141-1.2,1.064-1.53-.107-.459-.737-.8-1.143-1.187-.34.387-.932.765-.95,1.167S3414.908-3138.95,3415.408-3138.244Zm-2.267-1.054c-.767-.441-1.248-.944-1.652-.888s-.755.66-1.128,1.024c.433.363.834.945,1.31,1.015C3412.013-3138.1,3412.456-3138.73,3413.141-3139.3Zm82.781,55.778c-.726-.462-1.184-.985-1.594-.948s-.737.648-1.1,1.007c.407.39.772,1,1.238,1.094C3494.789-3082.306,3495.252-3082.961,3495.922-3083.52Zm-11.855-27.219c-.5.764-1.034,1.217-1.008,1.634s.627.771.975,1.154c.4-.4,1.03-.753,1.131-1.22C3485.239-3109.51,3484.615-3110,3484.067-3110.739ZM3435.733-3000.4c.56-.7,1.143-1.106,1.135-1.5-.008-.419-.579-.827-.9-1.24-.425.381-1.052.7-1.205,1.166C3434.662-3001.673,3435.25-3001.143,3435.733-3000.4Zm-58.83-121.886c-.474.738-1,1.192-.962,1.6.033.388.646.729,1,1.09.392-.4,1-.76,1.1-1.223C3378.107-3121.143,3377.46-3121.609,3376.9-3122.289Zm13.064,109.5c-.525.692-1.087,1.108-1.071,1.5.016.416.583.811.908,1.215.41-.382,1.031-.706,1.159-1.167C3391.052-3011.559,3390.46-3012.067,3389.967-3012.79Zm-12.678-6.457c.555-.7,1.183-1.171,1.117-1.5-.095-.478-.688-.857-1.069-1.278-.354.376-.95.725-1,1.136S3376.811-3020.022,3377.289-3019.247Zm73.9,11.619c-.528.683-1.094,1.094-1.085,1.492s.6.775.931,1.162c.424-.373,1.051-.681,1.2-1.142C3452.321-3006.409,3451.7-3006.927,3451.188-3007.628Zm-26.339-133.1c-.718-.462-1.272-1.049-1.534-.938-.464.2-.75.813-1.11,1.254.416.311.831.86,1.249.862C3423.826-3139.548,3424.2-3140.15,3424.849-3140.727Zm-49.069,22.959c-.652-.532-1.061-1.123-1.444-1.107-.407.017-1.155.681-1.105.935a1.854,1.854,0,0,0,1.04,1.237C3374.56-3116.61,3375.087-3117.253,3375.78-3117.768Zm85.486-14.682c-.485.737-1.061,1.251-.966,1.551.146.458.756.768,1.169,1.14.319-.4.878-.792.888-1.2C3462.369-3131.348,3461.809-3131.752,3461.266-3132.451Zm-103.586,61.892c-.638-.567-1.018-1.169-1.417-1.182s-1.151.641-1.109.9a1.867,1.867,0,0,0,.992,1.271C3356.426-3069.467,3356.977-3070.081,3357.68-3070.559Zm130.307,33.818c-.691-.512-1.209-1.131-1.466-1.036-.473.173-.793.766-1.177,1.183.385.335.757.912,1.16.935C3486.883-3035.638,3487.294-3036.2,3487.987-3036.741Z" transform="translate(-3353.025 3143.763)" fill="#a7a9ac"/>
    <path id="Path_166" data-name="Path 166" d="M3744.9-2913.687c0,1.646-.084,3.3.026,4.936a2.315,2.315,0,0,1-1.859,2.663,2.577,2.577,0,0,1-3.3-1.033,7.708,7.708,0,0,1-1.2-3.5,41.418,41.418,0,0,1,.441-8.187c.407-2.262,2.581-3.076,4.658-2.246a1.708,1.708,0,0,1,1.253,1.854C3744.845-2917.368,3744.9-2915.526,3744.9-2913.687Z" transform="translate(-3626.717 2987.609)" fill="#a7a9ac"/>
    <path id="Path_167" data-name="Path 167" d="M3711.6-2768.122c0-1.5-.025-3,.011-4.5.019-.767-.314-1.713.821-2.059a2.737,2.737,0,0,1,3.094.524,5.733,5.733,0,0,1,1.164,2.129,12.677,12.677,0,0,1-.235,8.519,3.1,3.1,0,0,1-3.223,2.2c-1.043-.1-1.691-.529-1.643-1.744.067-1.69.017-3.384.017-5.077Z" transform="translate(-3607.758 2884.137)" fill="#a7a9ac"/>
    <path id="Path_168" data-name="Path 168" d="M3638.083-2914.362c-.413,2.168-.676,4.026-1.141,5.832a2.685,2.685,0,0,1-2.594,2.163,2.809,2.809,0,0,1-2.9-1.983,17.542,17.542,0,0,1,.034-12.586A2.613,2.613,0,0,1,3634-2922.8a2.53,2.53,0,0,1,2.552,1.8C3637.195-2918.744,3637.617-2916.433,3638.083-2914.362Z" transform="translate(-3549.56 2988.804)" fill="#a7a9ac"/>
    <path id="Path_169" data-name="Path 169" d="M3524.679-2914.448c.373-2.041.607-3.96,1.1-5.809a2.864,2.864,0,0,1,2.825-2.472,3.007,3.007,0,0,1,2.858,2.473,19.811,19.811,0,0,1,.217,11.416,2.975,2.975,0,0,1-2.8,2.528,2.867,2.867,0,0,1-2.992-2.28C3525.344-2910.526,3525.062-2912.532,3524.679-2914.448Z" transform="translate(-3474.706 2988.755)" fill="#a7a9ac"/>
    <path id="Path_170" data-name="Path 170" d="M3690.142-2985.9a15.925,15.925,0,0,1-.337,2.853c-.128.428-.763.7-1.168,1.048-.329-.464-.9-.908-.939-1.4C3687.577-2984.832,3688.476-2985.552,3690.142-2985.9Z" transform="translate(-3591.597 3031.393)" fill="#a7a9ac"/>
    <path id="Path_171" data-name="Path 171" d="M3592.053-2999.029a15.432,15.432,0,0,1-.525,2.74,1.779,1.779,0,0,1-1.2,1.013,1.673,1.673,0,0,1-1.337-.8,7.609,7.609,0,0,1,.006-6.155,1.185,1.185,0,0,1,2.291.049A18.024,18.024,0,0,1,3592.053-2999.029Z" transform="translate(-3520.564 3044.055)" fill="#a7a9ac"/>
  </g>
</svg>
