<svg xmlns="http://www.w3.org/2000/svg" width="117.827" height="136.063" viewBox="0 0 117.827 136.063">
  <g id="Group_306" data-name="Group 306" transform="translate(0)">
    <path id="Path_139" data-name="Path 139" d="M3956.4-219.447q0,6.522,0,13.044c-.007,5.024-1.57,9.649-5.19,13.011-7.935,7.367-16.29,14.379-26.568,18.257-14.025,5.291-27.687,3.9-40.332-4.169a180.264,180.264,0,0,1-16.835-12.629,17.935,17.935,0,0,1-6.656-14.383c-.029-8.7-.007-17.391-.008-26.087,0-4.518,1.147-8.863,4.333-11.974,9.3-9.08,19.282-17.351,32.185-20.834a42.616,42.616,0,0,1,34.98,5.365,190.283,190.283,0,0,1,17.153,12.752c4.8,3.845,6.982,9.107,6.946,15.273C3956.38-227.7,3956.4-223.572,3956.4-219.447Zm-87.511-8.149c1.373-1.054,2.4-1.858,3.44-2.639,6.6-4.945,13.078-10.081,19.854-14.781,10.438-7.239,22.381-7.185,32.857-.066,3.961,2.692,7.793,5.6,11.521,8.6,5.121,4.132,4.992,9.755-.246,13.787q-9.145,7.042-18.421,13.915c-5.892,4.374-12.678,4.333-18.61-.013-2.5-1.83-4.973-3.7-7.542-5.607l-7.043,5.479c4.888,3.48,9.127,6.987,13.818,9.723,6.891,4.019,14.235,4.161,20.871-.456,8.414-5.854,16.328-12.42,24.67-18.382,6.233-4.454,6.015-19.286,0-23.384-5.337-3.635-10.145-8.086-15.627-11.462-13.286-8.182-26.846-8.016-40.082.227-4.716,2.937-8.982,6.591-13.51,9.839C3869.788-239.188,3867.852-234.33,3868.887-227.6Zm63.629-2.181c-4.5-3.283-8.472-6.539-12.787-9.239-7.486-4.684-15.294-4.893-22.6.266-8.193,5.787-15.959,12.177-24.112,18.026-5.884,4.221-5.9,18.772-.515,22.685,6.217,4.514,12.108,9.565,18.681,13.479a33.221,33.221,0,0,0,26.179,3.423c11.507-3.049,20.3-10.5,28.6-18.484,3.012-2.9,3.08-7.1,2.239-11.537-1.719,1.331-3.108,2.438-4.528,3.5-6.342,4.74-12.526,9.713-19.079,14.141-10.272,6.942-20.964,6.873-31.429.4a125.975,125.975,0,0,1-12.641-9.329c-4.994-4.032-4.895-9.568.214-13.554q9.5-7.408,19.237-14.5a14.526,14.526,0,0,1,17.21-.044c2.285,1.6,4.41,3.422,6.726,4.966a2.917,2.917,0,0,0,2.55.239C3928.43-226.541,3930.21-228.047,3932.516-229.777Zm-14.161,10.3c-8.594-7.75-10.87-7.756-19.536-.044C3906.293-211.533,3910.685-211.523,3918.355-219.481Z" transform="translate(-3848.884 266.817)" fill="#a7a9ac"/>
    <path id="Path_140" data-name="Path 140" d="M4087.8,107.078c5.572-.037,9.171,3.565,9.167,9.171-.006,5.461-3.495,9.078-8.856,9.18-5.491.105-9.312-3.554-9.436-9.036S4082.279,107.114,4087.8,107.078Zm4.925,9.164c.006-3.03-2-5.274-4.75-5.328a5.188,5.188,0,0,0-5.05,5.458,4.933,4.933,0,0,0,5.012,5.071C4090.829,121.417,4092.717,119.367,4092.723,116.242Z" transform="translate(-3998.17 10.622)" fill="#a7a9ac"/>
    <path id="Path_141" data-name="Path 141" d="M3822.947,116.329c-.018-5.713,3.433-9.232,9.043-9.223,5.546.009,9.178,3.689,9.127,9.252-.049,5.515-3.781,9.153-9.325,9.091C3826.43,125.39,3822.963,121.816,3822.947,116.329Zm13.919-.211a5.059,5.059,0,0,0-5.023-5.192,5.112,5.112,0,0,0-4.771,5.44,4.909,4.909,0,1,0,9.794-.249Z" transform="translate(-3822.947 10.602)" fill="#a7a9ac"/>
    <path id="Path_142" data-name="Path 142" d="M4153.687,121.415c-.118,1.481-.2,2.466-.3,3.722h-3.713v-17.9c2.84,0,5.592-.15,8.321.035,4.1.278,6.6,3,6.652,6.9.049,3.956-2.326,6.708-6.388,7.213A39.4,39.4,0,0,1,4153.687,121.415Zm-.589-4.18c3.076.854,5.488,1.044,6.854-1.337.543-.948.31-3.324-.4-3.795-1.327-.878-4.455-1.532-4.732-1.056C4153.787,112.814,4153.613,115.078,4153.1,117.236Z" transform="translate(-4046.824 10.552)" fill="#a7a9ac"/>
    <path id="Path_143" data-name="Path 143" d="M4021.434,107.2c2.826,0,5.491-.139,8.136.032,4.215.273,6.559,2.818,6.6,6.875.048,4.247-2.324,6.914-6.588,7.308-1.21.112-2.438.017-3.852.017-.237,1.289-.449,2.434-.7,3.783l-3.6.206Zm4.885,2.988-1.2,1.141q.431,3.119.862,6.237c1.688-.274,3.629-.142,4.968-.976.8-.5,1.3-3.3.818-3.695C4030.233,111.648,4028.174,111.044,4026.32,110.19Z" transform="translate(-3958.951 10.574)" fill="#a7a9ac"/>
    <path id="Path_144" data-name="Path 144" d="M3964.954,107.9h4.019c0,3.765.234,7.421-.06,11.035-.365,4.487-3.352,6.987-7.79,7.059-4.609.075-7.724-2.41-8.144-7.042-.32-3.521-.064-7.094-.064-10.914h4c0,2.5-.009,4.923,0,7.346.021,4.854,1.17,6.693,4.123,6.632,2.827-.058,3.9-1.825,3.914-6.476C3964.96,113.109,3964.954,110.68,3964.954,107.9Z" transform="translate(-3911.936 10.06)" fill="#a7a9ac"/>
    <path id="Path_145" data-name="Path 145" d="M3905.178,113.094c-4.083-2.521-6.716-2.635-8.58-.5a5.413,5.413,0,0,0-.038,7.07c2.052,2.373,4.775,2.359,9.011-.047,1.174,4.338.508,5.363-3.783,5.817-5.855.62-10.545-3.253-10.721-8.853-.184-5.865,3.759-9.714,9.631-9.4C3905.05,107.415,3905.684,108.2,3905.178,113.094Z" transform="translate(-3869.62 10.563)" fill="#a7a9ac"/>
  </g>
</svg>
