<svg xmlns="http://www.w3.org/2000/svg" width="1304" height="707" viewBox="0 0 1304 707">
  <g id="Group_380" data-name="Group 380" transform="translate(-538 -171)">
    <g id="Group_321" data-name="Group 321">
      <rect id="Rectangle_68" data-name="Rectangle 68" width="1227" height="707" rx="12" transform="translate(545 171)" fill="#f2f0e7"/>
      <rect id="Rectangle_107" data-name="Rectangle 107" width="1304" height="174" transform="translate(538 243)" fill="#f8f6ee"/>
      <rect id="Rectangle_108" data-name="Rectangle 108" width="1304" height="174" transform="translate(538 592)" fill="#f8f6ee"/>
      <text id="_200_000" data-name="$200,000" transform="translate(560 597)" font-size="18" font-family="Montserrat-Light, Montserrat" font-weight="300"><tspan x="0" y="0">$200,000</tspan></text>
      <text id="_400_000" data-name="$400,000" transform="translate(560 423)" font-size="18" font-family="Montserrat-Light, Montserrat" font-weight="300"><tspan x="0" y="0">$400,000</tspan></text>
      <text id="_600_000" data-name="$600,000" transform="translate(560 249)" font-size="18" font-family="Montserrat-Light, Montserrat" font-weight="300"><tspan x="0" y="0">$600,000</tspan></text>
      <rect id="Rectangle_99" data-name="Rectangle 99" width="32" height="59" transform="translate(649 707)" fill="#265c35"/>
      <rect id="Rectangle_99-2" data-name="Rectangle 99" width="32" height="70" transform="translate(699 696)" fill="#265c35"/>
      <rect id="Rectangle_99-3" data-name="Rectangle 99" width="32" height="73" transform="translate(749 693)" fill="#265c35"/>
      <rect id="Rectangle_99-4" data-name="Rectangle 99" width="32" height="70" transform="translate(799 696)" fill="#265c35"/>
      <rect id="Rectangle_99-5" data-name="Rectangle 99" width="32" height="87" transform="translate(849 679)" fill="#265c35"/>
      <rect id="Rectangle_99-6" data-name="Rectangle 99" width="32" height="73" transform="translate(899 693)" fill="#265c35"/>
      <rect id="Rectangle_99-7" data-name="Rectangle 99" width="32" height="79" transform="translate(949 687)" fill="#265c35"/>
      <rect id="Rectangle_99-8" data-name="Rectangle 99" width="32" height="76" transform="translate(999 690)" fill="#265c35"/>
      <rect id="Rectangle_99-9" data-name="Rectangle 99" width="32" height="87" transform="translate(1049 679)" fill="#265c35"/>
      <rect id="Rectangle_99-10" data-name="Rectangle 99" width="32" height="87" transform="translate(1099 679)" fill="#265c35"/>
      <rect id="Rectangle_99-11" data-name="Rectangle 99" width="32" height="123" transform="translate(1149 643)" fill="#265c35"/>
      <rect id="Rectangle_99-12" data-name="Rectangle 99" width="32" height="112" transform="translate(1199 654)" fill="#265c35"/>
      <rect id="Rectangle_100" data-name="Rectangle 100" width="32" height="139" transform="translate(1199 515)" fill="#60b460"/>
      <rect id="Rectangle_99-13" data-name="Rectangle 99" width="32" height="132" transform="translate(1249 634)" fill="#265c35"/>
      <rect id="Rectangle_101" data-name="Rectangle 101" width="32" height="177" transform="translate(1249 457)" fill="#60b460"/>
      <g id="Group_320" data-name="Group 320" transform="translate(-3876 -13643)">
        <text id="Actual_Sales_B2C" data-name="Actual Sales B2C" transform="translate(5280 14497)" font-size="18" font-family="Montserrat-Light, Montserrat" font-weight="300"><tspan x="0" y="0">Actual Sales B2C</tspan></text>
        <rect id="Rectangle_102" data-name="Rectangle 102" width="22" height="22" transform="translate(5240 14480)" fill="#265c35"/>
      </g>
      <g id="Group_319" data-name="Group 319" transform="translate(-3827 -13643)">
        <text id="Actual_Sales_B2B" data-name="Actual Sales B2B" transform="translate(4929 14497)" font-size="18" font-family="Montserrat-Light, Montserrat" font-weight="300"><tspan x="0" y="0">Actual Sales B2B</tspan></text>
        <rect id="Rectangle_103" data-name="Rectangle 103" width="22" height="22" transform="translate(4889 14480)" fill="#60b460"/>
      </g>
      <g id="Group_318" data-name="Group 318" transform="translate(-3876 -13643)">
        <text id="Forecasted_Sales" data-name="Forecasted Sales" transform="translate(4676 14497)" font-size="18" font-family="Montserrat-Light, Montserrat" font-weight="300"><tspan x="0" y="0">Forecasted Sales</tspan></text>
        <rect id="Rectangle_104" data-name="Rectangle 104" width="22" height="22" rx="11" transform="translate(4642 14480)" fill="#fdb714"/>
      </g>
      <rect id="Rectangle_105" data-name="Rectangle 105" width="18" height="18" rx="9" transform="translate(656 659)" fill="#fdb714"/>
      <rect id="Rectangle_105-2" data-name="Rectangle 105" width="18" height="18" rx="9" transform="translate(706 646)" fill="#fdb714"/>
      <rect id="Rectangle_105-3" data-name="Rectangle 105" width="18" height="18" rx="9" transform="translate(756 641)" fill="#fdb714"/>
      <rect id="Rectangle_105-4" data-name="Rectangle 105" width="18" height="18" rx="9" transform="translate(806 682)" fill="#fdb714"/>
      <rect id="Rectangle_105-5" data-name="Rectangle 105" width="18" height="18" rx="9" transform="translate(856 668)" fill="#fdb714"/>
      <rect id="Rectangle_105-6" data-name="Rectangle 105" width="18" height="18" rx="9" transform="translate(906 679)" fill="#fdb714"/>
      <rect id="Rectangle_105-7" data-name="Rectangle 105" width="18" height="18" rx="9" transform="translate(956 677)" fill="#fdb714"/>
      <rect id="Rectangle_105-8" data-name="Rectangle 105" width="18" height="18" rx="9" transform="translate(1006 669)" fill="#fdb714"/>
      <rect id="Rectangle_105-9" data-name="Rectangle 105" width="18" height="18" rx="9" transform="translate(1056 659)" fill="#fdb714"/>
      <rect id="Rectangle_105-10" data-name="Rectangle 105" width="18" height="18" rx="9" transform="translate(1106 650)" fill="#fdb714"/>
      <rect id="Rectangle_105-11" data-name="Rectangle 105" width="18" height="18" rx="9" transform="translate(1156 645)" fill="#fdb714"/>
      <rect id="Rectangle_105-12" data-name="Rectangle 105" width="18" height="18" rx="9" transform="translate(1206 497)" fill="#fdb714"/>
      <rect id="Rectangle_105-13" data-name="Rectangle 105" width="18" height="18" rx="9" transform="translate(1256 471)" fill="#fdb714"/>
      <rect id="Rectangle_105-14" data-name="Rectangle 105" width="18" height="18" rx="9" transform="translate(1306 430)" fill="#fdb714"/>
      <rect id="Rectangle_105-15" data-name="Rectangle 105" width="18" height="18" rx="9" transform="translate(1356 408)" fill="#fdb714"/>
      <rect id="Rectangle_105-16" data-name="Rectangle 105" width="18" height="18" rx="9" transform="translate(1406 426)" fill="#fdb714"/>
      <rect id="Rectangle_105-17" data-name="Rectangle 105" width="18" height="18" rx="9" transform="translate(1456 382)" fill="#fdb714"/>
      <rect id="Rectangle_105-18" data-name="Rectangle 105" width="18" height="18" rx="9" transform="translate(1506 448)" fill="#fdb714"/>
      <rect id="Rectangle_105-19" data-name="Rectangle 105" width="18" height="18" rx="9" transform="translate(1556 404)" fill="#fdb714"/>
      <rect id="Rectangle_105-20" data-name="Rectangle 105" width="18" height="18" rx="9" transform="translate(1606 382)" fill="#fdb714"/>
      <rect id="Rectangle_105-21" data-name="Rectangle 105" width="18" height="18" rx="9" transform="translate(1656 351)" fill="#fdb714"/>
      <rect id="Rectangle_105-22" data-name="Rectangle 105" width="18" height="18" rx="9" transform="translate(1706 274)" fill="#fdb714"/>
      <text id="Aug_18" data-name="Aug 18" transform="translate(712 786)" font-size="14" font-family="Montserrat-Medium, Montserrat" font-weight="500"><tspan x="-23.604" y="0">Aug 18</tspan></text>
      <text id="Oct_18" data-name="Oct 18" transform="translate(812 786)" font-size="14" font-family="Montserrat-Medium, Montserrat" font-weight="500"><tspan x="-21.805" y="0">Oct 18</tspan></text>
      <text id="Dec_18" data-name="Dec 18" transform="translate(912 786)" font-size="14" font-family="Montserrat-Medium, Montserrat" font-weight="500"><tspan x="-23.044" y="0">Dec 18</tspan></text>
      <text id="Feb_19" data-name="Feb 19" transform="translate(1012 786)" font-size="14" font-family="Montserrat-Medium, Montserrat" font-weight="500"><tspan x="-22.176" y="0">Feb 19</tspan></text>
      <text id="Apr_19" data-name="Apr 19" transform="translate(1112 786)" font-size="14" font-family="Montserrat-Medium, Montserrat" font-weight="500"><tspan x="-21.56" y="0">Apr 19</tspan></text>
      <text id="Jun_19" data-name="Jun 19" transform="translate(1212 786)" font-size="14" font-family="Montserrat-Medium, Montserrat" font-weight="500"><tspan x="-21.889" y="0">Jun 19</tspan></text>
      <text id="Aug_19" data-name="Aug 19" transform="translate(1312 786)" font-size="14" font-family="Montserrat-Medium, Montserrat" font-weight="500"><tspan x="-23.415" y="0">Aug 19</tspan></text>
      <text id="Oct_19" data-name="Oct 19" transform="translate(1412 786)" font-size="14" font-family="Montserrat-Medium, Montserrat" font-weight="500"><tspan x="-21.616" y="0">Oct 19</tspan></text>
      <text id="Dec_19" data-name="Dec 19" transform="translate(1512 786)" font-size="14" font-family="Montserrat-Medium, Montserrat" font-weight="500"><tspan x="-22.855" y="0">Dec 19</tspan></text>
      <text id="Feb_20" data-name="Feb 20" transform="translate(1612 786)" font-size="14" font-family="Montserrat-Medium, Montserrat" font-weight="500"><tspan x="-23.933" y="0">Feb 20</tspan></text>
      <text id="Apr_20" data-name="Apr 20" transform="translate(1712 786)" font-size="14" font-family="Montserrat-Medium, Montserrat" font-weight="500"><tspan x="-23.317" y="0">Apr 20</tspan></text>
      <path id="Path_234" data-name="Path 234" d="M2764,13199l50.984-14.3,48.9-4.221,50.688,41.448,49.007-16.579,49.521,12.993h50.656l49.341-12.993,48.932-6.346,53.031-10.05,49.17-4.253,48.389-147.138,51.486-26.8,51.115-42.409,49.329-21.775,48.525,18.313,52.441-46.294,47.51,69.163,50.375-45.9,47.657-20.149,54.218-31.984,50.067-80.211" transform="translate(-2099 -12530)" fill="none" stroke="#fdb714" stroke-width="5"/>
    </g>
  </g>
</svg>
