<?xml version="1.0" standalone="no"?>
<!DOCTYPE svg PUBLIC "-//W3C//DTD SVG 20010904//EN"
 "http://www.w3.org/TR/2001/REC-SVG-20010904/DTD/svg10.dtd">
<svg version="1.0" xmlns="http://www.w3.org/2000/svg"
 width="700.000000pt" height="700.000000pt" viewBox="0 0 700.000000 700.000000"
 preserveAspectRatio="xMidYMid meet">
<metadata>
Created by potrace 1.11, written by Peter Selinger 2001-2013
</metadata>
<g transform="translate(0.000000,700.000000) scale(0.100000,-0.100000)"
fill="#000000" stroke="none">
<path d="M3298 6995 c-1 -1 -41 -5 -88 -9 -100 -7 -225 -22 -295 -36 -27 -5
-61 -12 -75 -14 -191 -35 -488 -121 -627 -182 -18 -8 -48 -21 -67 -29 -19 -8
-37 -15 -41 -15 -16 0 -302 -150 -413 -216 -136 -83 -324 -215 -403 -284 -10
-8 -42 -35 -73 -60 -91 -74 -345 -337 -440 -455 -288 -360 -510 -786 -637
-1224 -22 -74 -41 -146 -44 -160 -3 -14 -7 -37 -10 -51 -18 -79 -44 -223 -50
-275 -4 -33 -9 -69 -11 -80 -18 -98 -25 -571 -11 -715 37 -361 114 -678 239
-990 52 -129 168 -368 213 -439 14 -23 25 -43 25 -46 0 -22 242 -359 344 -480
55 -64 308 -321 366 -371 145 -124 390 -302 520 -377 157 -91 376 -197 520
-252 236 -91 590 -182 782 -201 35 -3 66 -8 69 -9 15 -10 227 -20 409 -20 188
0 341 8 430 21 447 66 781 168 1135 346 194 97 416 235 551 343 28 22 68 54
90 70 79 61 255 226 349 326 535 574 866 1316 933 2094 13 156 4 677 -13 704
-1 4 -6 33 -9 66 -3 33 -8 69 -10 80 -2 11 -11 61 -21 110 -154 824 -640 1605
-1320 2121 -102 77 -291 204 -305 204 -5 0 -10 5 -10 10 0 6 -5 10 -10 10 -6
0 -29 12 -52 26 -127 80 -445 222 -643 287 -263 85 -406 116 -765 163 -47 6
-526 15 -532 9z m392 -460 c63 -3 129 -7 145 -10 27 -4 102 -14 210 -30 22 -3
46 -8 54 -11 8 -2 30 -7 50 -10 63 -10 332 -91 431 -129 474 -184 900 -482
1215 -850 33 -38 62 -72 66 -75 17 -15 135 -178 191 -265 246 -379 405 -809
463 -1245 3 -25 8 -56 10 -70 16 -93 23 -439 11 -559 -3 -31 -8 -81 -11 -111
-3 -30 -7 -66 -10 -79 -2 -14 -7 -47 -10 -75 -3 -28 -8 -58 -10 -66 -2 -8 -7
-28 -9 -45 -3 -16 -15 -68 -26 -115 -168 -681 -559 -1282 -1110 -1704 -156
-120 -398 -269 -550 -338 -219 -100 -449 -180 -615 -214 -283 -58 -434 -75
-673 -76 -116 0 -267 7 -347 17 -98 12 -142 18 -155 21 -8 1 -63 12 -122 23
-710 140 -1390 573 -1827 1164 -68 92 -171 244 -171 253 0 2 -11 22 -25 45
-104 164 -255 529 -310 749 -39 154 -69 324 -80 445 -3 28 -7 75 -10 105 -7
60 -7 356 -1 432 4 50 13 134 22 208 6 41 43 239 58 300 82 350 262 738 488
1055 160 226 398 471 623 642 445 338 932 534 1510 608 17 2 95 7 175 11 80 4
147 8 148 10 2 1 22 1 45 -1 23 -2 94 -6 157 -10z"/>
<path d="M1982 4956 c-23 -94 -73 -306 -112 -471 -39 -165 -80 -338 -91 -385
-12 -47 -22 -92 -24 -100 -2 -8 -17 -76 -35 -150 -37 -157 -39 -167 -46 -200
-3 -14 -11 -50 -19 -80 -7 -30 -17 -75 -21 -100 -6 -43 -7 -189 -1 -220 2 -8
9 -42 16 -75 17 -78 80 -214 133 -284 111 -148 266 -252 438 -294 95 -24 122
-26 378 -26 l232 -1 0 -409 c0 -382 1 -410 18 -414 9 -3 112 -4 227 -3 l210 1
2 350 c1 193 2 378 2 413 l1 62 100 0 100 0 0 229 0 229 -100 -2 -100 -1 0 35
c-1 19 -1 493 -1 1052 l-1 1016 -229 0 -229 -1 0 -1045 c0 -659 -3 -1048 -9
-1052 -6 -3 -112 -5 -238 -4 -208 1 -233 3 -284 23 -78 30 -142 88 -180 166
-53 109 -46 169 91 720 9 38 48 204 90 380 37 159 80 342 111 470 17 72 32
137 34 145 4 17 32 144 40 177 l5 21 -233 0 -234 0 -41 -172z"/>
<path d="M3719 5086 c0 -53 0 -3294 1 -3322 0 -21 2 -22 224 -21 196 0 225 3
228 16 2 9 3 670 3 1469 l-1 1452 258 0 c236 0 257 -1 262 -17 3 -10 10 -45
16 -78 5 -33 12 -71 15 -85 6 -34 111 -588 136 -720 11 -58 24 -127 29 -155 5
-27 16 -86 24 -130 20 -103 20 -179 -1 -241 -33 -98 -104 -170 -207 -209 -38
-14 -81 -18 -175 -19 l-126 -2 -2 -228 -2 -228 172 5 c182 6 242 17 345 64
281 128 459 392 468 693 2 58 -1 125 -6 150 -12 63 -39 208 -45 250 -3 19 -8
42 -10 50 -2 8 -7 31 -10 50 -7 44 -36 199 -41 223 -11 49 -14 65 -20 97 -3
19 -16 91 -29 160 -30 158 -31 163 -55 290 -11 58 -22 116 -24 130 -10 47 -15
75 -21 112 -2 21 -9 57 -14 80 -5 24 -12 61 -16 84 -5 37 -18 92 -27 112 -2 4
-306 8 -675 8 l-673 1 -1 -41z"/>
</g>
</svg>
