<?xml version="1.0" encoding="utf-8"?>
<!-- Generator: Adobe Illustrator 22.1.0, SVG Export Plug-In . SVG Version: 6.00 Build 0)  -->
<svg version="1.1" id="Layer_1" xmlns="http://www.w3.org/2000/svg" xmlns:xlink="http://www.w3.org/1999/xlink" x="0px" y="0px"
	 viewBox="0 0 600 600" style="enable-background:new 0 0 600 600;" xml:space="preserve">
<style type="text/css">
	.st0{fill:#5FB35F;}
</style>
<path class="st0" d="M281.8,160.5h-39.1v180.2h-35.6c-15.8,0-28.6-12.8-28.6-28.6c0-2.2,0.3-4.4,0.8-6.6l34.2-145h-40.2l-32.1,136
	c-8.6,36.4,14,72.9,50.4,81.4c5.1,1.2,10.3,1.8,15.5,1.8h35.6v70.8h39.1v-70.8h17.4v-39.1h-17.4V160.5z"/>
<path class="st0" d="M434.7,160.5h-116v290.1h39.1V198.8h44.3l20.3,108c2.9,15.5-7.3,30.5-22.8,33.4c-1.7,0.3-3.5,0.5-5.3,0.5h-17
	v39.1h17c37.4,0,67.7-30.3,67.7-67.7c0-4.2-0.4-8.4-1.2-12.6L434.7,160.5z"/>
<path class="st0" d="M300,0C134.6,0,0,134.6,0,300s134.6,300,300,300s300-134.6,300-300S465.4,0,300,0z M300,560.9
	c-143.9,0-260.9-117-260.9-260.9C39.4,156,156,39.4,300,39.1c143.9,0,260.9,117,260.9,260.9S443.9,560.9,300,560.9z"/>
</svg>
