<svg id="Layer_1" data-name="Layer 1" xmlns="http://www.w3.org/2000/svg" viewBox="0 0 2000 1000"><title>logo-wordmark-black</title><path d="M540.46,392.76c1.3-4.95,3.45-13.36,4.49-17.43a1.88,1.88,0,0,0-1.83-2.34l-52.4,0L400,539.05l26.07,40s43.31-3.62,64.58-5.25l0,29.66c-1.28,5-3.27,13.13-4.28,17.22a1.89,1.89,0,0,0,2,2.32l54.88-4.51a1.88,1.88,0,0,0,1.66-2.41c-1.12-3.72-3.36-11.25-4.64-16l0-30.9,9.46-.86a1.89,1.89,0,0,0,1.71-1.68l3.85-37.11a1.9,1.9,0,0,0-2-2.08l-13,.86Zm-49.68,63.13-.07,74.94c-9,.77-23.64,1.22-35.39,2C455.32,532.86,481.07,481.44,490.78,455.89Z"/><path d="M702.65,372.73H587.14a1.89,1.89,0,0,0-1.84,2.32c1,4.15,3.13,12.88,4.43,17.74l-.13,203.89c-1.27,4.81-3.23,12.5-4.22,16.44a1.88,1.88,0,0,0,2,2.34L642.18,612a1.88,1.88,0,0,0,1.68-2.42c-1-3.45-3-10.23-4.29-16.07l.56-69.89,53.53-2.07,45.67-42.68-.13-73ZM673,478.13l-33.82.52.09-55.75c9.8-.09,25.58-.18,35.38-.26l15.1,12.2,0,29C690.25,464.28,673.58,478.79,673,478.13Z"/><path d="M904.24,372.83l-136.15,0a1.88,1.88,0,0,0-1.82,2.38c1.15,4.17,3.54,12.78,4.83,17.42l-.23,192.9c-1.28,4.61-4.48,13.18-6.12,17.5a1.88,1.88,0,0,0,1.83,2.54l63.58-2.12a1.89,1.89,0,0,0,1.63-2.71c-1.92-4-5.49-11.68-7.06-17.21l.08-66.07c6.76-.13,15.46-.25,22.22-.36,4.79,1.33,13.82,6,18.36,8.44a1.89,1.89,0,0,0,2.77-1.67l0-55.77a1.88,1.88,0,0,0-2.78-1.66c-4.58,2.51-13.7,7.34-18.51,8.81l-22.06.27.06-52.8c15.36-.08,34.19-.14,49.56-.19l27.46,8.87a1.87,1.87,0,0,0,2.46-1.79Z"/><path d="M1070.6,405.07c-11.81-10.36-36.84-32.25-36.84-32.25H969.15l-38.54,33.79L930.52,568l38.6,33.77h64.66s25-22.32,36.86-32.54Zm-77,147.18c-2.81-1.22-12.37-10.56-12.37-10.56V434l12.41-10.65h14.73L1020.73,434V541.6s-9.6,9.39-12.42,10.61Z"/><path d="M1249,405.07c-11.82-10.36-36.85-32.25-36.85-32.25h-64.6L1109,406.61,1108.93,568l38.59,35.51,63,1.64s26.69-25.7,38.5-35.92ZM1172,552.25c-2.81-1.22-12.36-10.56-12.36-10.56V434L1172,423.34h14.72L1199.13,434l0,107.63s-9.61,9.39-12.43,10.61Z"/><path d="M1424.06,410.21c-12.36-11.77-25.22-23.86-38.23-35.93L1384.4,373h-2l-96.27-.06h-2.58a1.89,1.89,0,0,0-1.84,2.31c1,4.16,3,12.91,4.34,17.64v194.9c-1.32,4.71-3.51,13.66-4.52,17.8a1.88,1.88,0,0,0,1.73,2.32l101.26,5.79s27.28-23.36,39.55-34.09l1.71-1.49-.21-166.38Zm-68,151.13c-8.62-.5-20-1.19-20-1.19l-.23-137.62c12,.07,10.89.15,19.74.24l16.61,15.42.17,109.16Z"/><path d="M1512.49,443.31V431.89l11.86-9.44,47.14,3.15,25.78,8.8a1.89,1.89,0,0,0,2.48-2.06L1592.21,381l-93.3-7.94-38.35,36.52.06,48.73,14.94,26.65,62.28,45.94,12.36,17.55v12.23s-14.57,13.62-14.57,13.77c0-.15-46-3.45-46-3.3l-25.93-10.8a1.88,1.88,0,0,0-2.6,1.9l5.07,56.88,95.2,8.18L1600,595.81V531.09l-16.42-29.32-64.14-47Z"/></svg>