<svg id="Layer_1" data-name="Layer 1" xmlns="http://www.w3.org/2000/svg" viewBox="0 0 1200 501.65"><defs><style>.cls-1{fill:#fff;}</style></defs><title>logo-white</title><path class="cls-1" d="M140.46,267.14c1.3-4.95,3.45-13.36,4.49-17.43a1.88,1.88,0,0,0-1.83-2.34l-52.4,0L0,413.43l26.07,40s43.31-3.61,64.58-5.25l0,29.66c-1.28,5-3.27,13.13-4.28,17.22a1.88,1.88,0,0,0,2,2.32l54.88-4.51a1.88,1.88,0,0,0,1.66-2.41c-1.12-3.72-3.36-11.25-4.64-16l0-30.9,9.46-.86a1.88,1.88,0,0,0,1.71-1.68l3.85-37.11a1.88,1.88,0,0,0-2-2.07l-13,.85ZM90.78,330.27l-.07,74.94c-9,.77-23.64,1.22-35.39,2C55.32,407.24,81.07,355.82,90.78,330.27Z"/><path class="cls-1" d="M302.65,247.11H187.14a1.89,1.89,0,0,0-1.84,2.32c1,4.16,3.13,12.88,4.43,17.74l-.13,203.89c-1.27,4.81-3.23,12.5-4.22,16.44a1.88,1.88,0,0,0,2,2.34l54.85-3.49a1.87,1.87,0,0,0,1.68-2.41c-1-3.45-3-10.24-4.29-16.08l.56-69.88c18.3-.72,53.53-2.07,53.53-2.07l45.67-42.68-.13-73ZM273,352.52l-33.82.51.09-55.75c9.8-.09,25.58-.17,35.38-.26l15.1,12.2-.05,29C290.25,338.66,273.58,353.17,273,352.52Z"/><path class="cls-1" d="M504.24,247.21l-136.15,0a1.88,1.88,0,0,0-1.82,2.38c1.15,4.17,3.54,12.79,4.83,17.42L370.87,460c-1.28,4.62-4.48,13.18-6.12,17.5a1.87,1.87,0,0,0,1.83,2.54l63.58-2.12a1.88,1.88,0,0,0,1.63-2.7c-1.92-4-5.49-11.69-7.06-17.21l.08-66.08c6.76-.13,15.46-.25,22.22-.36,4.79,1.33,13.82,6,18.36,8.44a1.89,1.89,0,0,0,2.77-1.67l0-55.76a1.88,1.88,0,0,0-2.78-1.66c-4.58,2.5-13.7,7.33-18.51,8.8-6.7.09-15.35.18-22.06.28l.06-52.81c15.36-.08,34.19-.14,49.56-.19l27.46,8.88a1.88,1.88,0,0,0,2.46-1.8Z"/><path class="cls-1" d="M670.6,279.45c-11.81-10.36-36.84-32.25-36.84-32.25H569.15L530.61,281l-.09,161.39,38.6,33.77h64.66s25.05-22.31,36.86-32.53ZM593.55,426.63c-2.81-1.22-12.37-10.56-12.37-10.56V308.38l12.41-10.66h14.73l12.41,10.63V416s-9.6,9.39-12.42,10.62C601.74,426.6,600.14,426.61,593.55,426.63Z"/><path class="cls-1" d="M849,279.45c-11.82-10.36-36.85-32.25-36.85-32.25h-64.6L709,281l-.09,161.39,38.59,35.51,63,1.64s26.69-25.69,38.5-35.91ZM772,426.63c-2.81-1.22-12.36-10.56-12.36-10.56V308.38L772,297.72h14.72l12.41,10.63,0,107.63s-9.61,9.39-12.43,10.62C780.14,426.6,778.54,426.61,772,426.63Z"/><path class="cls-1" d="M1024.06,284.6c-12.36-11.78-25.22-23.87-38.23-35.94l-1.43-1.33h-2c-35.41,0-60.86-.05-96.27-.06h-2.58a1.87,1.87,0,0,0-1.84,2.3c1,4.16,3,12.91,4.34,17.65V462.11c-1.32,4.71-3.51,13.66-4.52,17.8a1.89,1.89,0,0,0,1.73,2.33L984.56,488s27.28-23.36,39.55-34.09l1.71-1.49-.21-166.37ZM956,435.72c-8.62-.5-20-1.19-20-1.19l-.23-137.62c12,.08,10.89.16,19.74.24l16.61,15.42.17,109.17Z"/><path class="cls-1" d="M1112.49,317.69V306.28l11.86-9.45,47.14,3.15,25.78,8.8a1.89,1.89,0,0,0,2.48-2.06l-7.53-51.37-93.3-7.95-38.35,36.52.06,48.73,14.94,26.65,62.28,45.94,12.36,17.56V435s-14.57,13.62-14.57,13.77c0-.15-46-3.45-46-3.3l-25.93-10.8a1.88,1.88,0,0,0-2.6,1.91l5.07,56.87,95.2,8.18L1200,470.19V405.48l-16.42-29.33-64.14-47Z"/><path class="cls-1" d="M594.71,46.54H583.38V98.78H573.05A8.3,8.3,0,0,1,565,88.58l9.9-42H563.24L553.94,86a19.63,19.63,0,0,0,19.11,24.13h10.33v20.53h11.33V110.11h5V98.78h-5Z"/><path class="cls-1" d="M639.06,46.54H605.42v84.1h11.33v-73h12.86L635.51,89a8.29,8.29,0,0,1-8.15,9.83h-4.94v11.33h4.94a19.62,19.62,0,0,0,19.29-23.26Z"/><path class="cls-1" d="M600,0a87,87,0,1,0,87,87A87.09,87.09,0,0,0,600,0Zm0,162.65A75.61,75.61,0,0,1,539.23,42a73.93,73.93,0,0,1,5.7-6.79A75.63,75.63,0,1,1,600,162.65Z"/></svg>